<?xml version="1.0" standalone="no"?>
<!DOCTYPE svg PUBLIC "-//W3C//DTD SVG 1.1//EN" "http://www.w3.org/Graphics/SVG/1.1/DTD/svg11.dtd" >
<svg xmlns="http://www.w3.org/2000/svg">
<metadata></metadata>
<defs>
<font id="simplon_normlight" horiz-adv-x="993" >
<font-face units-per-em="2048" ascent="1651" descent="-397" />
<missing-glyph horiz-adv-x="409" />
<glyph unicode=" "  horiz-adv-x="409" />
<glyph unicode="&#x09;" horiz-adv-x="409" />
<glyph unicode="&#xa0;" horiz-adv-x="409" />
<glyph unicode="!" horiz-adv-x="469" d="M187 1248h95v-874h-95v874zM160 0v150h150v-150h-150z" />
<glyph unicode="&#x22;" horiz-adv-x="634" d="M246 848h-95v400h95v-400zM483 848h-95v400h95v-400z" />
<glyph unicode="#" horiz-adv-x="1246" d="M1001 385h-165l-95 -385h-83l94 385h-376l-94 -385h-85l95 385h-127v80h146l80 317h-145v80h164l96 386h84l-97 -386h376l97 386h83l-95 -386h127v-80h-147l-79 -317h146v-80zM474 782l-78 -317h376l78 317h-376z" />
<glyph unicode="$" horiz-adv-x="899" d="M415 1263v162h77v-162q89 -8 155.5 -53.5t101 -114t38.5 -151.5h-94q-6 91 -59 154t-142 75v-515l73 -31q66 -27 114.5 -65.5t75.5 -83.5t39.5 -91t12.5 -95q0 -61 -18 -113t-54.5 -95t-98.5 -69t-144 -31v-162h-77v162q-48 5 -91.5 20t-79.5 39t-65.5 56.5t-50.5 72.5 t-32.5 86.5t-13.5 98.5h95q8 -115 70.5 -192t167.5 -90v510l-60 24q-125 51 -189 129.5t-64 200.5q0 134 83 223.5t230 100.5zM196 939q0 -85 43 -140.5t130 -91.5l46 -19v485q-57 -6 -100.5 -27.5t-69 -54t-37.5 -71t-12 -81.5zM713 292q0 83 -46.5 146t-124.5 94l-50 20 v-477q111 9 166 68t55 149z" />
<glyph unicode="%" horiz-adv-x="1435" d="M1105 1248h85l-857 -1248h-85zM337 588q56 0 94 35t38 98v328q0 64 -38 99t-94 35t-94 -35t-38 -99v-328q0 -63 38 -98t94 -35zM337 513q-40 0 -75 11t-66 34t-49.5 65t-18.5 98v328q0 56 18.5 98.5t49.5 65.5t66.5 34t74.5 11t74.5 -11t66.5 -34t49 -65.5t18 -98.5v-328 q0 -56 -18 -98t-49 -65t-66 -34t-75 -11zM1100 64q56 0 93.5 35t37.5 98v328q0 43 -18 74t-47.5 45.5t-65.5 14.5q-56 0 -94.5 -35t-38.5 -99v-328q0 -63 38.5 -98t94.5 -35zM1100 -10q-40 0 -75 10.5t-66 33.5t-49.5 65t-18.5 98v328q0 57 18.5 99t49.5 65t66.5 34t74.5 11 t74.5 -11t66.5 -34t49 -65t18 -99v-328q0 -56 -18 -98t-49 -65t-66 -33.5t-75 -10.5z" />
<glyph unicode="&#x26;" horiz-adv-x="1059" d="M716 1156h-276q-113 0 -177 -66.5t-64 -175.5q0 -107 64 -173t177 -66h276v143h95v-143h226v-90h-226v-585h-362q-160 0 -252 92.5t-92 245.5q0 102 45.5 177.5t123.5 113.5q-84 37 -126.5 110t-42.5 175q0 71 19.5 128t51.5 94.5t75.5 63t90.5 37t98 11.5h276v-92z M449 90h267v495h-267q-51 0 -93 -13t-70.5 -36t-48.5 -54t-29 -67t-9 -77q0 -51 15 -95t44.5 -78.5t78 -54.5t112.5 -20z" />
<glyph unicode="'" horiz-adv-x="396" d="M246 848h-95v400h95v-400z" />
<glyph unicode="(" horiz-adv-x="466" d="M180 20v1044q0 47 8.5 79t29.5 56.5t58.5 36.5t94.5 12h17v-75h-17q-36 0 -58.5 -6.5t-34.5 -21t-16.5 -33.5t-4.5 -48v-1044q0 -59 23 -84t91 -25h17v-75h-17q-57 0 -94.5 12t-58.5 36.5t-29.5 56.5t-8.5 79z" />
<glyph unicode=")" horiz-adv-x="466" d="M287 1064v-1044q0 -47 -8.5 -79t-29 -56.5t-58.5 -36.5t-94 -12h-19v75h19q35 0 57.5 6.5t34.5 21t17 33.5t5 48v1044q0 59 -23.5 84t-90.5 25h-19v75h19q56 0 94 -12t58.5 -36.5t29 -56.5t8.5 -79z" />
<glyph unicode="*" horiz-adv-x="806" d="M534 726l-131 177l-131 -177l-65 46l131 178l-210 69l25 77l211 -69v221h80v-221l210 69l25 -77l-210 -69l131 -178z" />
<glyph unicode="+" d="M458 146v313h-314v81h314v312h80v-312h312v-81h-312v-313h-80z" />
<glyph unicode="," horiz-adv-x="469" d="M160 0v150h150v-150l-55 -150h-87l55 150h-63z" />
<glyph unicode="-" horiz-adv-x="729" d="M624 459h-517v81h517v-81z" />
<glyph unicode="." horiz-adv-x="469" d="M160 0v150h150v-150h-150z" />
<glyph unicode="/" horiz-adv-x="590" d="M505 1248h87l-505 -1248h-87z" />
<glyph unicode="0" d="M850 905v-563q0 -77 -21 -139.5t-55.5 -102.5t-81 -67.5t-95 -38.5t-100.5 -11t-100.5 11t-95 38.5t-81 67.5t-55.5 102.5t-21 139.5v563q0 77 21 139.5t55.5 103t81 67.5t95 38.5t100.5 11.5q36 0 71.5 -6t70.5 -19t66 -32.5t58 -49t46 -65.5t30 -84t11 -104zM755 342 v486l-517 -517q9 -109 80.5 -173.5t178.5 -64.5q114 0 186 73.5t72 195.5zM238 905v-485l515 515q-9 110 -79.5 174.5t-176.5 64.5q-114 0 -186.5 -73.5t-72.5 -195.5z" />
<glyph unicode="1" d="M490 90v1036l-239 -205v121l239 206h95v-1158h304v-90h-705v90h306z" />
<glyph unicode="2" d="M235 905v-23h-94v23q0 77 21 139.5t55.5 103t80.5 67.5t95 38.5t100 11.5q52 0 101.5 -12t95.5 -39t80.5 -66.5t55.5 -99t21 -132.5q0 -83 -36.5 -162t-117.5 -171l-433 -493h587v-90h-706v90l485 553q126 144 126 273q0 114 -71.5 185.5t-187.5 72.5q-114 0 -186 -73.5 t-72 -195.5z" />
<glyph unicode="3" d="M495 -17q-55 0 -105 11t-97.5 38t-82 67t-55.5 102.5t-21 140.5v15h94v-15q0 -125 73.5 -197t193.5 -72q118 0 184 68t66 194q0 67 -27.5 122.5t-84.5 91.5t-133 36h-87v90h92q113 0 176.5 68.5t63.5 176.5q0 71 -33.5 129.5t-92.5 91.5t-133 33q-113 0 -185.5 -73.5 t-72.5 -195.5v-14h-94v14q0 77 21 139.5t55.5 103t81 67.5t95 38.5t99.5 11.5q53 0 102.5 -12.5t95.5 -39.5t80.5 -66.5t55 -98t20.5 -128.5q0 -105 -45.5 -178t-128.5 -113q79 -38 126.5 -115t47.5 -179q0 -70 -17 -128t-47.5 -99.5t-73.5 -69.5t-95 -41.5t-112 -13.5z" />
<glyph unicode="4" d="M658 1248h94v-804h130v-87h-130v-357h-94v357h-587v87zM182 444h476v650z" />
<glyph unicode="5" d="M280 1156v-479q42 48 107 75t135 27q43 0 84 -8.5t81 -25.5t73.5 -46.5t59.5 -68t40.5 -93t14.5 -119.5v-76q0 -77 -21 -139.5t-55.5 -102.5t-81 -67.5t-95 -38.5t-100.5 -11t-100.5 11t-95 38.5t-80.5 67.5t-55 102.5t-21 139.5v15h94v-15q0 -122 72 -195.5t186 -73.5 t186 73.5t72 195.5v76q0 123 -72 196.5t-186 73.5q-75 0 -134.5 -33.5t-91.5 -93.5h-111v687h641v-92h-546z" />
<glyph unicode="6" d="M244 905v-260q34 51 104.5 86t154.5 35q52 0 100.5 -11.5t95 -38.5t80.5 -67.5t55 -102.5t21 -140v-64q0 -77 -21 -139.5t-55 -102.5t-80.5 -67.5t-95 -38.5t-100.5 -11t-100.5 11t-95 38.5t-81 67.5t-55.5 102.5t-21 139.5v563q0 77 21 139.5t55.5 103t81 67.5t95 38.5 t100.5 11.5t100.5 -11.5t95 -38.5t80.5 -67.5t55 -103t21 -139.5v-14h-95v14q0 122 -71.5 195.5t-185.5 73.5q-75 0 -133.5 -32.5t-92 -94t-33.5 -142.5zM244 406v-64q0 -122 72.5 -195.5t186.5 -73.5t185.5 73.5t71.5 195.5v64q0 123 -71.5 196t-185.5 73t-186.5 -73 t-72.5 -196z" />
<glyph unicode="7" d="M136 1248h694v-92l-422 -1156h-95l423 1156h-600v92z" />
<glyph unicode="8" d="M838 925q0 -96 -41 -173.5t-120 -122.5q78 -38 125.5 -118.5t47.5 -182.5q0 -73 -22 -132.5t-57.5 -98t-82 -65t-94.5 -38t-97 -11.5t-97 11.5t-94.5 38t-82 65t-57.5 98t-22 132.5q0 102 47.5 182.5t126.5 118.5q-79 45 -120 122.5t-41 173.5q0 69 19.5 127t52.5 96.5 t77 65.5t92 39t99 12t99 -12t92 -39t77 -65.5t53 -96.5t20 -127zM755 328q0 73 -35 132.5t-94 92t-129 32.5q-108 0 -183.5 -73t-75.5 -183.5t75.5 -183t183 -72.5t183 72.5t75.5 182.5zM251 925q0 -110 64 -180t181.5 -70t182 70t64.5 180q0 109 -65.5 179t-181 70 t-180.5 -70t-65 -179z" />
<glyph unicode="9" d="M750 342v260q-34 -51 -104 -86t-154 -35q-52 0 -100.5 11.5t-95 38.5t-81 67.5t-55.5 103t-21 139.5v64q0 77 21 139.5t55.5 103t81 67.5t95 38.5t100.5 11.5q42 0 83 -8.5t81.5 -25.5t74 -46t59.5 -68t40.5 -93t14.5 -119v-563q0 -77 -21 -139.5t-55.5 -102.5t-81 -67.5 t-95.5 -38.5t-100.5 -11t-100 11t-95 38.5t-81 67.5t-55.5 102.5t-21 139.5v15h94v-15q0 -122 72.5 -195.5t186 -73.5t186 73.5t72.5 195.5zM750 841v64q0 122 -72.5 195.5t-186 73.5t-186 -73.5t-72.5 -195.5v-64q0 -122 72.5 -195.5t186 -73.5t186 73.5t72.5 195.5z" />
<glyph unicode=":" horiz-adv-x="469" d="M160 770v150h150v-150h-150zM160 0v150h150v-150h-150z" />
<glyph unicode=";" horiz-adv-x="469" d="M160 0v150h150v-150l-55 -150h-87l55 150h-63zM160 770v150h150v-150h-150z" />
<glyph unicode="&#x3c;" d="M221 461l629 -379v-91l-706 426v89l706 426v-91z" />
<glyph unicode="=" d="M144 704h706v-80h-706v80zM850 276h-706v81h706v-81z" />
<glyph unicode="&#x3e;" d="M144 82l629 379l-629 380v91l706 -426v-89l-706 -426v91z" />
<glyph unicode="?" horiz-adv-x="897" d="M84 905q0 77 21 139.5t55.5 103t81 67.5t95 38.5t100 11.5t100.5 -11.5t95 -38.5t80.5 -67.5t55.5 -103t21 -139.5q0 -153 -135 -274l-107 -99q-39 -36 -51.5 -60t-12.5 -59v-39h-95v39q0 52 21 94t74 90l107 98q105 98 105 210q0 122 -72 195.5t-186 73.5t-186.5 -73.5 t-72.5 -195.5v-14h-94v14zM357 0v150h149v-150h-149z" />
<glyph unicode="@" horiz-adv-x="1535" d="M1110 920v-749q0 -44 28.5 -78t80.5 -34t79.5 34t27.5 78v526q0 47 -10 94.5t-31.5 96.5t-53 93t-77.5 82.5t-101.5 66.5t-128.5 44t-156 16q-114 0 -209.5 -31t-158.5 -81t-107 -115.5t-63 -132.5t-19 -133v-474q0 -67 19 -134t63 -132.5t107 -115.5t158.5 -81 t209.5 -31q212 0 358 106l45 -65q-163 -115 -403 -115q-95 0 -178.5 18.5t-146.5 51t-115.5 77t-88 95t-59.5 106.5t-35 111t-11 109v474q0 47 8.5 94.5t26 97t46 95.5t65.5 88.5t87.5 77.5t109.5 60.5t133.5 40t157.5 14.5q95 0 178.5 -18.5t147 -51t115.5 -77t87.5 -95 t59.5 -107t35 -111t11 -108.5v-512q0 -101 -49.5 -151.5t-137.5 -50.5q-79 0 -131 37.5t-69 91.5q-40 -62 -109.5 -95.5t-148.5 -33.5q-52 0 -100.5 11t-95 38.5t-81 67.5t-55 102.5t-20.5 139.5v243q0 77 20.5 139.5t55 102.5t81 67t95 38.5t100.5 11.5q79 0 148.5 -33.5 t109.5 -96.5v106h95zM1015 342v243q0 122 -72 195t-186 73t-186 -73t-72 -195v-243q0 -122 72 -195.5t186 -73.5t186 73.5t72 195.5z" />
<glyph unicode="A" horiz-adv-x="1004" d="M871 0l-131 386h-475l-131 -386h-100l424 1248h89l424 -1248h-100zM296 478h413l-206 607z" />
<glyph unicode="B" horiz-adv-x="1030" d="M746 639q82 -30 137.5 -112t55.5 -187q0 -94 -39.5 -170.5t-118 -123t-182.5 -46.5h-448v1248h415q154 0 248 -94.5t94 -239.5q0 -91 -44 -165.5t-118 -109.5zM599 585h-349v-488h349q107 0 174.5 66t67.5 177t-67.5 178t-174.5 67zM250 679h316q104 0 174.5 62.5 t70.5 173t-70.5 173.5t-174.5 63h-316v-472z" />
<glyph unicode="C" horiz-adv-x="995" d="M802 357h98q-15 -173 -123 -273.5t-269 -100.5q-84 0 -156.5 29t-125 83t-82.5 133.5t-30 176.5v438q0 96 30 176t82.5 133.5t125 83t156.5 29.5q106 0 191 -44.5t138 -129.5t63 -200h-98q-12 136 -93.5 206.5t-200.5 70.5q-62 0 -114.5 -20t-93.5 -59t-64.5 -102 t-23.5 -144v-438q0 -81 23.5 -144.5t64 -102.5t93.5 -59.5t115 -20.5q118 0 200 71.5t94 207.5z" />
<glyph unicode="D" horiz-adv-x="1052" d="M939 825v-403q0 -96 -30 -176t-82 -133.5t-124.5 -83t-157.5 -29.5h-394v1248h394q68 0 128 -19t108.5 -55t84 -87t54.5 -118t19 -144zM250 1151v-1054h295q62 0 115 20t94 59t64 102t23 144v403q0 80 -23 143.5t-64 102.5t-94 59.5t-115 20.5h-295z" />
<glyph unicode="E" horiz-adv-x="963" d="M250 585v-488h591v-97h-690v1248h690v-97h-591v-472h591v-94h-591z" />
<glyph unicode="F" horiz-adv-x="945" d="M250 585v-585h-99v1248h690v-97h-591v-472h591v-94h-591z" />
<glyph unicode="G" horiz-adv-x="1008" d="M508 549v94h393v-238q0 -97 -29.5 -176.5t-82 -133.5t-124.5 -83t-156.5 -29t-157 29t-125 83t-82.5 133.5t-30 176.5v438q0 96 30 176t82.5 133.5t125 83t156.5 29.5q106 0 191 -44.5t138 -129.5t63 -200h-98q-8 90 -50.5 154t-104.5 93.5t-139 29.5q-62 0 -114.5 -20 t-93.5 -59t-64.5 -102t-23.5 -144v-438q0 -81 23.5 -144.5t64 -102.5t93.5 -59.5t115 -20.5t115 20.5t93.5 59.5t64 102.5t23.5 144.5v144h-296z" />
<glyph unicode="H" horiz-adv-x="1090" d="M841 679v569h98v-1248h-98v585h-591v-585h-99v1248h99v-569h591z" />
<glyph unicode="I" horiz-adv-x="400" d="M250 1248v-1248h-99v1248h99z" />
<glyph unicode="J" horiz-adv-x="831" d="M599 325v923h98v-923q0 -154 -94 -248t-239 -94t-237.5 94t-92.5 248v32h98v-32q0 -104 62.5 -175.5t170.5 -71.5t171 71.5t63 175.5z" />
<glyph unicode="K" horiz-adv-x="1063" d="M250 367v-367h-99v1248h99v-733l621 733h127l-439 -515l485 -733h-117l-434 654z" />
<glyph unicode="L" horiz-adv-x="876" d="M250 1248v-1151h591v-97h-690v1248h99z" />
<glyph unicode="M" horiz-adv-x="1257" d="M684 335h-111l-327 712v-1047h-95v1248h104l374 -808l374 808h104v-1248h-95v1047z" />
<glyph unicode="N" horiz-adv-x="1090" d="M939 1248v-1248h-98l-591 1053v-1053h-99v1248h99l591 -1054v1054h98z" />
<glyph unicode="O" horiz-adv-x="1015" d="M901 843v-438q0 -97 -29.5 -176.5t-82 -133.5t-124.5 -83t-156.5 -29t-157 29t-125 83t-82.5 133.5t-30 176.5v438q0 96 30 176t82.5 133.5t125 83t157 29.5t156.5 -29.5t124.5 -83t82 -133.5t29.5 -176zM212 843v-438q0 -81 23.5 -144.5t64 -102.5t93.5 -59.5t115 -20.5 t115 20.5t93.5 59.5t64 102.5t23.5 144.5v438q0 65 -15.5 118.5t-42.5 91.5t-64 64.5t-81 38.5t-93 12q-62 0 -114.5 -20t-93.5 -59t-64.5 -102t-23.5 -144z" />
<glyph unicode="P" horiz-adv-x="977" d="M554 522h-304v-522h-99v1248h403q75 0 140.5 -23.5t115.5 -68t79 -114t29 -156.5t-29 -157t-79 -115t-115.5 -68.5t-140.5 -23.5zM250 619h304q73 0 132.5 29.5t96.5 91t37 146t-37.5 146t-96.5 90.5t-132 29h-304v-532z" />
<glyph unicode="Q" horiz-adv-x="1013" d="M884 -80l-138 137q-99 -74 -238 -74q-84 0 -156.5 29t-125 83t-82.5 133.5t-30 176.5v438q0 96 30 176t82.5 133.5t125 83t157 29.5t156.5 -29.5t124.5 -83t82 -133.5t29.5 -176v-438q0 -174 -88 -284l137 -135zM212 843v-438q0 -81 23.5 -144.5t64 -102.5t93.5 -59.5 t115 -20.5q98 0 169 48l-130 131l64 66l134 -132q59 83 59 214v438q0 65 -15.5 118.5t-42.5 91.5t-64 64.5t-81 38.5t-93 12q-62 0 -114.5 -20t-93.5 -59t-64.5 -102t-23.5 -144z" />
<glyph unicode="R" horiz-adv-x="1018" d="M503 585h-253v-585h-99v1248h425q153 0 247.5 -94.5t94.5 -239.5q0 -134 -83.5 -225t-221.5 -103l346 -586h-112zM250 679h326q104 0 174 62.5t70 172.5q0 74 -34 129t-88.5 81.5t-121.5 26.5h-326v-472z" />
<glyph unicode="S" horiz-adv-x="916" d="M445 1168q-121 0 -187.5 -66t-66.5 -168q0 -89 46 -150t130 -84l223 -61q107 -28 175 -111t68 -210q0 -56 -13 -105t-42 -91.5t-71 -73.5t-102.5 -48t-133.5 -17q-168 0 -276.5 100.5t-121.5 273.5h98q8 -90 51 -154t107 -94.5t142 -30.5q127 0 196 61.5t69 178.5 q0 79 -45.5 140.5t-139.5 86.5l-216 59q-116 31 -179.5 119.5t-63.5 210.5q0 69 23.5 129t67.5 105t111.5 71t150.5 26q150 0 246 -84.5t123 -236.5h-98q-17 75 -54 125.5t-91.5 74.5t-125.5 24z" />
<glyph unicode="T" horiz-adv-x="856" d="M478 1151v-1151h-99v1151h-345v97h789v-97h-345z" />
<glyph unicode="U" horiz-adv-x="1057" d="M136 405v843h97v-843q0 -81 23.5 -144.5t64 -102.5t93.5 -59.5t115 -20.5t115 20.5t93.5 59.5t64 102.5t23.5 144.5v843h98v-843q0 -97 -30 -176.5t-82.5 -133.5t-124.5 -83t-157 -29t-157 29t-124.5 83t-82 133.5t-29.5 176.5z" />
<glyph unicode="V" horiz-adv-x="1004" d="M503 162l368 1086h100l-424 -1248h-89l-424 1248h100z" />
<glyph unicode="W" horiz-adv-x="1275" d="M894 0l-256 907l-257 -907h-94l-230 1248h96l192 -1054l248 875h89l248 -875l192 1054h97l-230 -1248h-95z" />
<glyph unicode="X" horiz-adv-x="1004" d="M853 0l-350 568l-352 -568h-110l399 645l-372 603h110l325 -527l323 527h111l-372 -603l399 -645h-111z" />
<glyph unicode="Y" horiz-adv-x="967" d="M954 1248l-422 -729v-519h-97v519l-421 729h109l362 -628l360 628h109z" />
<glyph unicode="Z" horiz-adv-x="956" d="M875 0h-797v97l677 1054h-668v97h779v-97l-677 -1054h686v-97z" />
<glyph unicode="[" horiz-adv-x="466" d="M180 -164v1412h208v-75h-131v-1262h131v-75h-208z" />
<glyph unicode="\" horiz-adv-x="590" d="M0 1248h87l505 -1248h-87z" />
<glyph unicode="]" horiz-adv-x="466" d="M287 1248v-1412h-209v75h133v1262h-133v75h209z" />
<glyph unicode="^" horiz-adv-x="1079" d="M864 534l-324 620l-324 -620h-92l373 714h86l372 -714h-91z" />
<glyph unicode="_" horiz-adv-x="722" d="M714 -203h-705v80h705v-80z" />
<glyph unicode="`" horiz-adv-x="530" d="M104 1248h149l152 -231h-92z" />
<glyph unicode="a" horiz-adv-x="965" d="M823 920v-920h-94v112q-40 -62 -110 -95.5t-148 -33.5q-52 0 -100.5 11t-95.5 38.5t-81 67.5t-55.5 102.5t-21.5 139.5v243q0 77 21.5 139.5t55.5 102.5t81 67t95.5 38.5t100.5 11.5q78 0 148 -33.5t110 -96.5v106h94zM729 342v243q0 122 -72 195t-186 73t-186.5 -73 t-72.5 -195v-243q0 -122 72.5 -195.5t186.5 -73.5t186 73.5t72 195.5z" />
<glyph unicode="b" horiz-adv-x="965" d="M143 0v1248h94v-434q40 63 109.5 96.5t148.5 33.5q52 0 100.5 -11.5t95 -38.5t81 -67t55.5 -102.5t21 -139.5v-243q0 -77 -21 -139.5t-55.5 -102.5t-81 -67.5t-95 -38.5t-100.5 -11q-79 0 -148.5 33.5t-109.5 95.5v-112h-94zM237 585v-243q0 -122 72 -195.5t186 -73.5 t186 73.5t72 195.5v243q0 122 -72 195t-186 73q-75 0 -133.5 -32t-91.5 -93.5t-33 -142.5z" />
<glyph unicode="c" horiz-adv-x="918" d="M471 -17q-52 0 -100.5 11t-95.5 38.5t-81 67.5t-55.5 102.5t-21.5 139.5v243q0 77 21.5 139.5t55.5 102.5t81 67t95.5 38.5t100.5 11.5q47 0 92.5 -10t89 -33t77.5 -57t58 -86t32 -117h-97q-16 99 -84.5 155.5t-167.5 56.5q-114 0 -186.5 -73t-72.5 -195v-243 q0 -122 72.5 -195.5t186.5 -73.5q99 0 167.5 57t84.5 155h97q-8 -64 -32 -116.5t-58 -86.5t-77.5 -57t-89 -32.5t-92.5 -9.5z" />
<glyph unicode="d" horiz-adv-x="965" d="M823 1248v-1248h-94v112q-40 -62 -110 -95.5t-148 -33.5q-52 0 -100.5 11t-95.5 38.5t-81 67.5t-55.5 102.5t-21.5 139.5v243q0 77 21.5 139.5t55.5 102.5t81 67t95.5 38.5t100.5 11.5q78 0 148 -33.5t110 -96.5v434h94zM729 342v243q0 122 -72 195t-186 73t-186.5 -73 t-72.5 -195v-243q0 -122 72.5 -195.5t186.5 -73.5t186 73.5t72 195.5z" />
<glyph unicode="e" horiz-adv-x="931" d="M212 451v-109q0 -122 72.5 -195.5t186.5 -73.5q99 0 167.5 57t84.5 155h97q-8 -64 -32 -116.5t-58 -86.5t-77.5 -57t-89 -32.5t-92.5 -9.5q-52 0 -100.5 11t-95.5 38.5t-81 67.5t-55.5 102.5t-21.5 139.5v243q0 77 21.5 139.5t55.5 102.5t81 67t95.5 38.5t100 11.5 t100 -11.5t95 -38.5t81 -67t55.5 -102.5t21 -139.5v-134h-611zM212 585v-43h517v43q0 122 -72 195t-186 73t-186.5 -73t-72.5 -195z" />
<glyph unicode="f" horiz-adv-x="542" d="M59 828v92h130v144q0 47 8.5 79t29 56.5t58.5 36.5t94 12h131v-92h-131q-57 0 -76 -20t-19 -72v-144h226v-92h-226v-828h-95v828h-130z" />
<glyph unicode="g" horiz-adv-x="963" d="M727 14v123q-40 -62 -109.5 -96t-148.5 -34q-52 0 -100.5 11.5t-95 38.5t-81 67.5t-55.5 103t-21 139.5v218q0 77 21 139.5t55.5 102.5t81 67t95 38.5t100.5 11.5q79 0 148.5 -33.5t109.5 -96.5v106h94v-906q0 -77 -21 -139.5t-55 -102.5t-80.5 -67.5t-95 -38.5 t-100.5 -11q-48 0 -93 9.5t-89 32.5t-78 57t-58 86.5t-32 116.5h97q16 -98 84.5 -155t168.5 -57q114 0 186 73.5t72 195.5zM727 585q0 122 -72 195t-186 73t-186 -73t-72 -195v-218q0 -122 72 -195.5t186 -73.5t186 73.5t72 195.5v218z" />
<glyph unicode="h" horiz-adv-x="977" d="M237 585v-585h-94v1248h94v-434q40 63 109.5 96.5t148.5 33.5q52 0 100.5 -11.5t95 -38.5t81 -67t55.5 -102.5t21 -139.5v-585h-95v585q0 122 -72 195t-186 73q-75 0 -133.5 -32t-91.5 -93.5t-33 -142.5z" />
<glyph unicode="i" horiz-adv-x="379" d="M143 920h94v-920h-94v920zM237 1248v-156h-94v156h94z" />
<glyph unicode="j" horiz-adv-x="379" d="M237 1248v-156h-94v156h94zM143 -144v1064h94v-1064q0 -37 -5.5 -64.5t-18 -51t-34 -38t-55 -22.5t-78.5 -8h-17v91h17q58 0 77.5 20.5t19.5 72.5z" />
<glyph unicode="k" horiz-adv-x="870" d="M237 1248v-808l442 480h121l-333 -362l378 -558h-112l-332 488l-164 -178v-310h-94v1248h94z" />
<glyph unicode="l" horiz-adv-x="379" d="M237 1248v-1248h-94v1248h94z" />
<glyph unicode="m" horiz-adv-x="1517" d="M1054 944q46 0 90.5 -11.5t89 -38.5t78.5 -67t55 -102.5t21 -139.5v-585h-94v585q0 120 -70 194t-171 74q-100 0 -170 -72.5t-70 -195.5v-585h-95v585q0 123 -70.5 195.5t-169.5 72.5q-101 0 -171 -74t-70 -194v-585h-94v920h94v-106q39 61 106.5 95.5t134.5 34.5 q40 0 79.5 -9.5t80 -29t74.5 -56t54 -84.5q21 48 55 84.5t73.5 56t79.5 29t80 9.5z" />
<glyph unicode="n" horiz-adv-x="977" d="M237 585v-585h-94v920h94v-106q40 63 109.5 96.5t148.5 33.5q52 0 100.5 -11.5t95 -38.5t81 -67t55.5 -102.5t21 -139.5v-585h-95v585q0 122 -72 195t-186 73q-75 0 -133.5 -32t-91.5 -93.5t-33 -142.5z" />
<glyph unicode="o" horiz-adv-x="940" d="M823 585v-243q0 -77 -21 -139.5t-55.5 -102.5t-81 -67.5t-95 -38.5t-100 -11t-100 11t-95.5 38.5t-81 67.5t-55.5 102.5t-21.5 139.5v243q0 77 21.5 139.5t55.5 102.5t81 67t95.5 38.5t100 11.5t100 -11.5t95 -38.5t81 -67t55.5 -102.5t21 -139.5zM729 342v243 q0 122 -72 195t-186 73t-186.5 -73t-72.5 -195v-243q0 -122 72.5 -195.5t186.5 -73.5t186 73.5t72 195.5z" />
<glyph unicode="p" horiz-adv-x="965" d="M143 -328v1248h94v-106q40 63 109.5 96.5t148.5 33.5q52 0 100.5 -11.5t95 -38.5t81 -67t55.5 -102.5t21 -139.5v-243q0 -77 -21 -139.5t-55.5 -102.5t-81 -67.5t-95 -38.5t-100.5 -11q-79 0 -148.5 33.5t-109.5 95.5v-440h-94zM237 585v-243q0 -122 72 -195.5t186 -73.5 t186 73.5t72 195.5v243q0 122 -72 195t-186 73q-75 0 -133.5 -32t-91.5 -93.5t-33 -142.5z" />
<glyph unicode="q" horiz-adv-x="965" d="M823 920v-1248h-94v440q-40 -62 -110 -95.5t-148 -33.5q-52 0 -100.5 11t-95.5 38.5t-81 67.5t-55.5 102.5t-21.5 139.5v243q0 77 21.5 139.5t55.5 102.5t81 67t95.5 38.5t100.5 11.5q78 0 148 -33.5t110 -96.5v106h94zM729 342v243q0 122 -72 195t-186 73t-186.5 -73 t-72.5 -195v-243q0 -122 72.5 -195.5t186.5 -73.5t186 73.5t72 195.5z" />
<glyph unicode="r" horiz-adv-x="561" d="M522 845h-27q-114 0 -186 -73.5t-72 -195.5v-576h-94v920h94v-114q40 62 109.5 95.5t148.5 33.5h27v-90z" />
<glyph unicode="s" horiz-adv-x="862" d="M753 656h-95q-9 91 -76 144t-165 53q-60 0 -109 -15.5t-82.5 -52.5t-33.5 -92q0 -63 37.5 -100t121.5 -55l176 -39q131 -29 190.5 -93t59.5 -180q0 -77 -42 -132.5t-115 -83t-171 -27.5q-72 0 -134.5 17t-114 52.5t-84 95.5t-38.5 139h97q6 -56 32.5 -99t65.5 -67t84 -36 t94 -12q63 0 114 16.5t84 52t33 86.5q0 140 -157 173l-206 46q-102 23 -161.5 83t-59.5 163q0 80 47 138t118 85.5t155 27.5q88 0 160 -31t120 -97t55 -160z" />
<glyph unicode="t" horiz-adv-x="585" d="M280 828v-644q0 -27 4 -43t14 -28.5t29 -17.5t49 -5h130v-90h-130q-57 0 -94.5 12t-58.5 36.5t-29.5 56.5t-8.5 79v644h-130v92h130v208h95v-208h226v-92h-226z" />
<glyph unicode="u" horiz-adv-x="965" d="M729 342v578h94v-920h-94v112q-39 -61 -109.5 -95t-141.5 -34q-50 0 -97.5 11t-93.5 38.5t-80 67.5t-55.5 102.5t-21.5 139.5v578h94v-578q0 -122 72 -195.5t182 -73.5q107 0 179 74t72 195z" />
<glyph unicode="v" horiz-adv-x="804" d="M403 123l281 797h102l-332 -920h-103l-331 920h101z" />
<glyph unicode="w" horiz-adv-x="1204" d="M544 920h117l212 -790l201 790h99l-243 -920h-112l-216 807l-216 -807h-112l-242 920h98l201 -790z" />
<glyph unicode="x" horiz-adv-x="819" d="M410 540l251 380h109l-298 -448l312 -472h-109l-265 405l-266 -405h-108l311 472l-297 448h108z" />
<glyph unicode="y" horiz-adv-x="804" d="M786 920l-383 -1064q-1 -4 -4 -10q-10 -28 -15 -41.5t-15.5 -36t-19 -33.5t-23 -25.5t-31 -21t-39 -11.5t-49.5 -5h-47v91h49q24 0 40.5 6.5t28 22.5t17.5 29t16 42l46 125l-337 932h101l282 -797l281 797h102z" />
<glyph unicode="z" horiz-adv-x="849" d="M760 828l-568 -738h581v-90h-695v90l570 738h-558v92h670v-92z" />
<glyph unicode="{" horiz-adv-x="523" d="M123 505h-18v74h18q35 0 57.5 6.5t35 21t17 33.5t4.5 48v376q0 46 8.5 78.5t29.5 57t59 36.5t94 12h17v-75h-17q-68 0 -91.5 -25.5t-23.5 -83.5v-376q0 -110 -60 -146q60 -39 60 -146v-376q0 -58 23.5 -83.5t91.5 -25.5h17v-75h-17q-56 0 -94 12t-59 36.5t-29.5 57 t-8.5 78.5v376q0 58 -23.5 83.5t-90.5 25.5z" />
<glyph unicode="|" horiz-adv-x="379" d="M151 -178v1426h77v-1426h-77z" />
<glyph unicode="}" horiz-adv-x="523" d="M418 505h-17q-68 0 -91 -25.5t-23 -83.5v-376q0 -47 -8.5 -79t-29 -56.5t-58.5 -36.5t-94 -12h-19v75h19q35 0 57.5 6.5t34.5 21t17 33.5t5 48v376q0 107 60 146q-60 36 -60 146v376q0 59 -23.5 84t-90.5 25h-19v75h19q56 0 94 -12t58.5 -36.5t29 -56.5t8.5 -79v-376 q0 -29 4.5 -48t17 -33.5t35 -21t57.5 -6.5h17v-74z" />
<glyph unicode="~" horiz-adv-x="936" d="M170 418l-54 60q41 45 100 74t110 29q26 0 53.5 -6t50.5 -15t48.5 -20t46.5 -20t44 -15t42 -6q18 0 40.5 7t54.5 26.5t62 48.5l53 -59q-41 -45 -100 -74.5t-110 -29.5q-46 0 -100 20.5t-102.5 41t-82.5 20.5q-13 0 -29 -4t-36.5 -13t-44 -25.5t-46.5 -39.5z" />
<glyph unicode="&#xa1;" horiz-adv-x="416" d="M162 545h95v-873h-95v873zM134 770v150h150v-150h-150z" />
<glyph unicode="&#xa2;" horiz-adv-x="936" d="M442 -178v1283h77v-1283h-77zM479 -17q-42 0 -83 8t-81.5 25t-74 46t-59.5 67.5t-40.5 93t-14.5 119.5v243q0 77 21 139.5t55.5 102.5t81 67t95.5 38.5t100 11.5q48 0 93 -10t89 -33t78 -57t58 -86t31 -117h-95q-17 99 -85.5 155.5t-168.5 56.5q-114 0 -186 -73t-72 -195 v-243q0 -122 72 -195.5t186 -73.5q100 0 168.5 57t85.5 155h95q-7 -64 -31 -116.5t-58 -86.5t-78 -57t-89 -32.5t-93 -9.5z" />
<glyph unicode="&#xa3;" horiz-adv-x="1050" d="M124 0v90h29q35 1 54 12t25 29.5t6 52.5v402h-114v77h114v242q0 77 21 139.5t55.5 103t81.5 67.5t95.5 38.5t100 11.5t100 -11.5t95 -38.5t81 -67.5t55.5 -103t21 -139.5h-94q0 122 -72.5 195.5t-186 73.5t-186 -73.5t-72.5 -195.5v-242h517v-77h-517v-402q0 -70 -22 -94 h633v-90h-820z" />
<glyph unicode="&#xa4;" horiz-adv-x="1282" d="M160 606q0 88 30 168t84 144l-150 151l56 53l150 -151q132 116 311 116q180 0 313 -116l149 151l55 -53l-151 -151q115 -132 115 -312t-115 -312l151 -151l-55 -54l-149 149q-64 -54 -144.5 -84t-168.5 -30q-178 0 -311 114l-150 -149l-56 54l150 151q-114 133 -114 312z M251 605.5q0 -106.5 52.5 -196t142 -141.5t195.5 -52t196 52t142.5 141.5t52.5 196.5q0 79 -31 151.5t-83.5 124.5t-124.5 83t-152 31q-106 0 -195.5 -52t-142 -142t-52.5 -196.5z" />
<glyph unicode="&#xa5;" horiz-adv-x="1044" d="M170 595h260l-379 653h104l367 -635l367 635h104l-380 -653h260v-76h-305v-182h305v-77h-305v-260h-94v260h-304v77h304v182h-304v76z" />
<glyph unicode="&#xa6;" horiz-adv-x="379" d="M151 -178v603h77v-603h-77zM151 643v605h77v-605h-77z" />
<glyph unicode="&#xa7;" horiz-adv-x="986" d="M364 218q-28 10 -43.5 16.5t-45 21.5t-47.5 28.5t-41 36.5t-36 47.5t-22.5 58.5t-9.5 73q0 90 48 153t132 92q-121 82 -121 236q0 125 89 204.5t223 79.5q129 0 217.5 -77t106.5 -212h-80q-10 63 -42 111.5t-84 75.5t-118 27q-60 0 -112 -24.5t-85.5 -73t-34.5 -111.5 q0 -76 42 -128t113 -76l207 -71q25 -9 44.5 -16.5t46 -21.5t47 -29t42 -37.5t35.5 -48t23 -60t9 -73.5q0 -91 -49.5 -153.5t-135.5 -91.5q57 -40 91 -103.5t34 -146.5q0 -56 -16.5 -103t-51 -85.5t-96 -60t-144.5 -21.5q-146 0 -232 84t-99 222h80q10 -103 79.5 -167.5 t171.5 -64.5q115 0 171.5 55t56.5 141q0 79 -42.5 138.5t-112.5 82.5zM604 629l-187 63q-42 -3 -77.5 -13.5t-68.5 -31.5t-52 -58.5t-20 -88.5q0 -81 49 -129t135 -77l183 -64q33 2 62.5 8.5t59.5 21t51 35t34.5 53t13.5 72.5q0 43 -14 77.5t-40 59t-57 41.5t-72 31z" />
<glyph unicode="&#xa8;" horiz-adv-x="729" d="M223 1210v-156h-95v156h95zM602 1210v-156h-94v156h94z" />
<glyph unicode="&#xa9;" horiz-adv-x="1460" d="M89 624q0 105 32 202.5t91.5 176.5t138.5 138t177 91.5t203 32.5q131 0 249.5 -50.5t204.5 -136.5t136.5 -204.5t50.5 -249.5t-50.5 -250t-136.5 -204.5t-204.5 -136t-249.5 -50.5t-250 50.5t-205 136t-136.5 204.5t-50.5 250zM165 624q0 -92 28.5 -178.5t81 -156 t122 -122t155.5 -81.5t179 -29q115 0 219.5 45t180 121t120 181t44.5 220t-44.5 219.5t-120 180.5t-180 121t-219.5 45t-220 -45t-180.5 -121t-120.5 -180.5t-45 -219.5zM731 223q-111 0 -180.5 71t-69.5 192v273q0 121 69.5 192.5t180.5 71.5q105 0 172 -64t75 -175h-77 q-4 53 -28 90.5t-60.5 55.5t-81.5 18q-76 0 -124.5 -49.5t-48.5 -139.5v-273q0 -91 48.5 -139.5t124.5 -48.5q69 0 116.5 42t53.5 121h77q-8 -111 -75 -174.5t-172 -63.5z" />
<glyph unicode="&#xaa;" horiz-adv-x="555" d="M235 704q-74 0 -125 40.5t-51 117.5q0 30 9 57.5t36.5 55.5t70.5 40q75 22 228 31v8q0 43 -19 74t-48.5 45.5t-64.5 14.5q-50 0 -85 -26.5t-43 -76.5h-79q5 47 24.5 82.5t49.5 55.5t63 29.5t70 9.5q39 0 74.5 -11.5t66.5 -34.5t49 -65t18 -98v-339h-76v56 q-51 -66 -168 -66zM253 779q65 0 107.5 33.5t42.5 94.5v69q-175 -10 -219 -36q-28 -15 -38 -32.5t-10 -43.5q0 -38 30 -61.5t87 -23.5z" />
<glyph unicode="&#xab;" horiz-adv-x="821" d="M399 184l-289 254v96l289 255v-105l-224 -198l224 -197v-105zM697 184l-289 254v96l289 255v-105l-225 -198l225 -197v-105z" />
<glyph unicode="&#xac;" d="M144 459v81h706v-394h-80v313h-626z" />
<glyph unicode="&#xad;" horiz-adv-x="729" d="M624 459h-517v81h517v-81z" />
<glyph unicode="&#xae;" horiz-adv-x="1460" d="M89 624q0 105 32 202.5t91.5 176.5t138.5 138t177 91.5t203 32.5q131 0 249.5 -50.5t204.5 -136.5t136.5 -204.5t50.5 -249.5t-50.5 -250t-136.5 -204.5t-204.5 -136t-249.5 -50.5t-250 50.5t-205 136t-136.5 204.5t-50.5 250zM165 624q0 -92 28.5 -178.5t81 -156 t122 -122t155.5 -81.5t179 -29q115 0 219.5 45t180 121t120 181t44.5 220t-44.5 219.5t-120 180.5t-180 121t-219.5 45t-220 -45t-180.5 -121t-120.5 -180.5t-45 -219.5zM1027 233h-90l-210 357h-135v-357h-77v779h265q55 0 98 -17.5t69 -47.5t39.5 -67.5t13.5 -79.5 q0 -80 -47.5 -139.5t-138.5 -68.5zM592 935v-270h188q64 0 103.5 37t39.5 98.5t-39 98t-104 36.5h-188z" />
<glyph unicode="&#xaf;" horiz-adv-x="760" d="M638 1092h-515v81h515v-81z" />
<glyph unicode="&#xb0;" horiz-adv-x="755" d="M100 978q0 115 81.5 196.5t196 81.5t196.5 -81.5t82 -196.5t-81.5 -196.5t-196.5 -81.5t-196.5 81.5t-81.5 196.5zM180 978q0 -83 57.5 -141t140 -58t140.5 58t58 141t-58 141.5t-140 58.5q-55 0 -100.5 -27t-71.5 -73t-26 -100z" />
<glyph unicode="&#xb1;" d="M458 565h-314v80h314v275h80v-275h312v-80h-312v-274h-80v274zM850 0h-706v80h706v-80z" />
<glyph unicode="&#xb2;" horiz-adv-x="532" d="M55 714v73l276 318q65 74 65 139q0 61 -38.5 95.5t-94 34.5t-93.5 -35.5t-38 -98.5v-19h-77v19q0 56 18 98t49 65.5t66.5 34.5t75 11t75 -11.5t66.5 -34.5t49 -65t18 -97q0 -53 -20 -94t-66 -94l-231 -266h317v-73h-417z" />
<glyph unicode="&#xb3;" horiz-adv-x="537" d="M267 704q-19 0 -38 2.5t-38 8t-36.5 14.5t-33 20.5t-28 28t-21.5 36.5t-14 45t-5 54v8h77v-8q0 -64 39.5 -99t97.5 -35q57 0 92 33.5t35 94.5q0 55 -34.5 95t-92.5 40h-51v73h51q56 0 91.5 35t35.5 96q0 39 -18 68.5t-47.5 44.5t-66.5 15q-56 0 -94 -35.5t-38 -98.5v-9 h-77v9q0 56 18.5 98t49.5 65t66.5 34.5t74.5 11.5q41 0 77.5 -12t67 -35.5t48 -63.5t17.5 -92q0 -58 -25.5 -103t-63.5 -65q38 -22 63.5 -67.5t25.5 -103.5q0 -42 -11.5 -76.5t-31.5 -57.5t-46.5 -39t-55.5 -23t-60 -7z" />
<glyph unicode="&#xb4;" horiz-adv-x="530" d="M278 1248h150l-210 -231h-92z" />
<glyph unicode="&#xb6;" horiz-adv-x="949" d="M789 1248v-1403h-76v1328h-196v-1328h-77v689h-18q-96 0 -178 48t-129 130.5t-47 178.5q0 95 47 177.5t129 131t178 48.5h367z" />
<glyph unicode="&#xb7;" horiz-adv-x="488" d="M170 442v150h149v-150h-149z" />
<glyph unicode="&#xb8;" horiz-adv-x="442" d="M107 -282l104 282h87l-68 -282h-123z" />
<glyph unicode="&#xb9;" horiz-adv-x="362" d="M192 714v622l-139 -119v102l139 119h77v-724h-77z" />
<glyph unicode="&#xba;" horiz-adv-x="553" d="M278 779q55 0 93.5 35t38.5 99v141q0 43 -19 74t-48.5 45.5t-64.5 14.5q-57 0 -94.5 -35t-37.5 -99v-141q0 -64 37.5 -99t94.5 -35zM278 704q-40 0 -75.5 11t-67 34t-49.5 65t-18 99v140q0 56 18 98t49.5 65t67 34.5t75.5 11.5q39 0 74 -11.5t66 -34.5t49.5 -65t18.5 -98 v-140q0 -57 -18.5 -99t-49.5 -65t-66 -34t-74 -11z" />
<glyph unicode="&#xbb;" horiz-adv-x="821" d="M413 438l-289 -254v105l225 197l-225 198v105l289 -255v-96zM711 438l-289 -254v105l224 197l-224 198v105l289 -255v-96z" />
<glyph unicode="&#xbc;" horiz-adv-x="1185" d="M264 524v622l-140 -119v101l140 120h76v-724h-76zM971 1248h85l-857 -1248h-85zM964 0v196h-332v73l332 454h77v-454h76v-73h-76v-196h-77zM723 269h241v330z" />
<glyph unicode="&#xbd;" horiz-adv-x="1278" d="M264 524v622l-140 -119v101l140 120h76v-724h-76zM971 1248h85l-857 -1248h-85zM755 0v73l277 318q64 73 64 138q0 61 -38.5 95.5t-93.5 34.5q-56 0 -94 -35t-38 -99v-19h-77v19q0 57 18.5 99t49 65t66 34t75.5 11t75.5 -11t66 -34.5t49 -65t18.5 -96.5q0 -53 -20.5 -94 t-65.5 -95l-232 -265h318v-73h-418z" />
<glyph unicode="&#xbe;" horiz-adv-x="1289" d="M303 513q-41 0 -77 11t-68 34t-50.5 65t-18.5 98v10h76v-10q0 -63 39.5 -98t98.5 -35q57 0 92 34t35 94q0 55 -35 95.5t-92 40.5h-52v73h52q56 0 91.5 34t35.5 95q0 39 -18 69t-48 45t-66 15q-56 0 -94.5 -35t-38.5 -99v-8h-76v8q0 56 18.5 98.5t49.5 65.5t66 34t75 11 t77 -12t67 -35.5t48 -63.5t18 -93q0 -38 -12.5 -72.5t-32.5 -58t-45 -36.5q25 -14 45 -37.5t32.5 -59t12.5 -74.5q0 -42 -12 -76.5t-31.5 -57.5t-46 -39t-55.5 -23t-60 -7zM1074 1248h86l-857 -1248h-85zM1067 0v196h-331v73l331 454h77v-454h77v-73h-77v-196h-77zM826 269 h241v330z" />
<glyph unicode="&#xbf;" horiz-adv-x="865" d="M800 14q0 -77 -21 -139.5t-55.5 -102.5t-81 -67.5t-95 -38.5t-100.5 -11t-100.5 11t-95 38.5t-80.5 67.5t-55 102.5t-21 139.5q0 81 37.5 151t97.5 124l107 97q39 37 51.5 61t12.5 59v39h94v-39q0 -51 -20.5 -93t-73.5 -90l-107 -99q-105 -97 -105 -210q0 -122 72 -195.5 t186 -73.5t186.5 73.5t72.5 195.5v15h94v-15zM372 770v150h150v-150h-150z" />
<glyph unicode="&#xc0;" horiz-adv-x="1004" d="M871 0l-131 386h-475l-131 -386h-100l424 1248h89l424 -1248h-100zM296 478h413l-206 607zM282 1522h153l178 -194h-103z" />
<glyph unicode="&#xc1;" horiz-adv-x="1004" d="M871 0l-131 386h-475l-131 -386h-100l424 1248h89l424 -1248h-100zM296 478h413l-206 607zM570 1522h153l-228 -194h-103z" />
<glyph unicode="&#xc2;" horiz-adv-x="1004" d="M871 0l-131 386h-475l-131 -386h-100l424 1248h89l424 -1248h-100zM296 478h413l-206 607zM549 1522l223 -194h-129l-140 112l-141 -112h-129l223 194h93z" />
<glyph unicode="&#xc3;" horiz-adv-x="1004" d="M871 0l-131 386h-475l-131 -386h-100l424 1248h89l424 -1248h-100zM296 478h413l-206 607zM410 1506q40 0 80 -22l59 -30q35 -18 51 -18q48 0 79 66h100q-16 -50 -38 -83t-48 -48t-48 -20.5t-48 -5.5q-40 0 -80 22l-59 30q-35 18 -52 18q-47 0 -78 -67h-100 q15 50 37 83.5t48.5 48.5t48.5 20.5t48 5.5z" />
<glyph unicode="&#xc4;" horiz-adv-x="1004" d="M871 0l-131 386h-475l-131 -386h-100l424 1248h89l424 -1248h-100zM296 478h413l-206 607zM364 1502v-155h-99v155h99zM740 1502v-155h-99v155h99z" />
<glyph unicode="&#xc5;" horiz-adv-x="1004" d="M871 0l-131 386h-475l-131 -386h-100l424 1248h89l424 -1248h-100zM296 478h413l-206 607zM371 1423q0 55 38.5 94.5t93.5 39.5q36 0 66.5 -18t48.5 -49t18 -67q0 -54 -39 -92.5t-94 -38.5q-27 0 -51.5 10.5t-42 28t-28 41.5t-10.5 51zM451 1423q0 -14 7 -25.5t19 -18.5 t26 -7t26 7t19.5 18.5t7.5 25.5t-7 26.5t-19.5 20t-26.5 7.5q-22 0 -37 -16t-15 -38z" />
<glyph unicode="&#xc6;" horiz-adv-x="1467" d="M753 585v-488h592v-97h-689v386h-353l-179 -386h-102l573 1248h750v-97h-592v-472h592v-94h-592zM344 478h312v676z" />
<glyph unicode="&#xc7;" horiz-adv-x="995" d="M376 -282l89 266q-102 9 -181.5 61.5t-124.5 145.5t-45 214v438q0 96 30 176t82.5 133.5t125 83t156.5 29.5q106 0 191 -44.5t138 -129.5t63 -200h-98q-12 136 -93.5 206.5t-200.5 70.5q-62 0 -114.5 -20t-93.5 -59t-64.5 -102t-23.5 -144v-438q0 -81 23.5 -144.5 t64 -102.5t93.5 -59.5t115 -20.5q118 0 200 71.5t94 207.5h98q-9 -104 -54 -184t-116.5 -126.5t-163.5 -58.5l-63 -270h-127z" />
<glyph unicode="&#xc8;" horiz-adv-x="963" d="M250 585v-488h591v-97h-690v1248h690v-97h-591v-472h591v-94h-591zM274 1522h154l178 -194h-103z" />
<glyph unicode="&#xc9;" horiz-adv-x="963" d="M250 585v-488h591v-97h-690v1248h690v-97h-591v-472h591v-94h-591zM563 1522h153l-228 -194h-103z" />
<glyph unicode="&#xca;" horiz-adv-x="963" d="M250 585v-488h591v-97h-690v1248h690v-97h-591v-472h591v-94h-591zM542 1522l223 -194h-129l-141 112l-140 -112h-129l223 194h93z" />
<glyph unicode="&#xcb;" horiz-adv-x="963" d="M250 585v-488h591v-97h-690v1248h690v-97h-591v-472h591v-94h-591zM357 1502v-155h-99v155h99zM733 1502v-155h-99v155h99z" />
<glyph unicode="&#xcc;" horiz-adv-x="400" d="M250 1248v-1248h-99v1248h99zM-22 1522h154l178 -194h-103z" />
<glyph unicode="&#xcd;" horiz-adv-x="400" d="M250 1248v-1248h-99v1248h99zM267 1522h153l-228 -194h-103z" />
<glyph unicode="&#xce;" horiz-adv-x="400" d="M250 1248v-1248h-99v1248h99zM246 1522l223 -194h-129l-141 112l-140 -112h-129l223 194h93z" />
<glyph unicode="&#xcf;" horiz-adv-x="400" d="M250 1248v-1248h-99v1248h99zM61 1502v-155h-98v155h98zM437 1502v-155h-99v155h99z" />
<glyph unicode="&#xd0;" horiz-adv-x="1071" d="M959 825v-403q0 -77 -19.5 -144t-54.5 -118t-83.5 -87t-109 -54.5t-127.5 -18.5h-394v585h-125v80h125v583h394q84 0 156.5 -30t125 -83.5t82.5 -133.5t30 -176zM269 1151v-486h296v-80h-296v-488h296q61 0 114 20t94 59t64 102t23 144v403q0 80 -23 143.5t-64 102.5 t-94 59.5t-114 20.5h-296z" />
<glyph unicode="&#xd1;" horiz-adv-x="1090" d="M939 1248v-1248h-98l-591 1053v-1053h-99v1248h99l591 -1054v1054h98zM452 1506q41 0 80 -22l60 -30q34 -18 51 -18q48 0 78 66h100q-15 -50 -37 -83t-48 -48t-48 -20.5t-49 -5.5q-40 0 -80 22l-59 30q-35 18 -51 18q-47 0 -78 -67h-100q15 50 37 83.5t48 48.5t48 20.5 t48 5.5z" />
<glyph unicode="&#xd2;" horiz-adv-x="1015" d="M901 843v-438q0 -97 -29.5 -176.5t-82 -133.5t-124.5 -83t-156.5 -29t-157 29t-125 83t-82.5 133.5t-30 176.5v438q0 96 30 176t82.5 133.5t125 83t157 29.5t156.5 -29.5t124.5 -83t82 -133.5t29.5 -176zM212 843v-438q0 -81 23.5 -144.5t64 -102.5t93.5 -59.5t115 -20.5 t115 20.5t93.5 59.5t64 102.5t23.5 144.5v438q0 65 -15.5 118.5t-42.5 91.5t-64 64.5t-81 38.5t-93 12q-62 0 -114.5 -20t-93.5 -59t-64.5 -102t-23.5 -144zM287 1522h153l179 -194h-104z" />
<glyph unicode="&#xd3;" horiz-adv-x="1015" d="M901 843v-438q0 -97 -29.5 -176.5t-82 -133.5t-124.5 -83t-156.5 -29t-157 29t-125 83t-82.5 133.5t-30 176.5v438q0 96 30 176t82.5 133.5t125 83t157 29.5t156.5 -29.5t124.5 -83t82 -133.5t29.5 -176zM212 843v-438q0 -81 23.5 -144.5t64 -102.5t93.5 -59.5t115 -20.5 t115 20.5t93.5 59.5t64 102.5t23.5 144.5v438q0 65 -15.5 118.5t-42.5 91.5t-64 64.5t-81 38.5t-93 12q-62 0 -114.5 -20t-93.5 -59t-64.5 -102t-23.5 -144zM576 1522h153l-229 -194h-102z" />
<glyph unicode="&#xd4;" horiz-adv-x="1015" d="M901 843v-438q0 -97 -29.5 -176.5t-82 -133.5t-124.5 -83t-156.5 -29t-157 29t-125 83t-82.5 133.5t-30 176.5v438q0 96 30 176t82.5 133.5t125 83t157 29.5t156.5 -29.5t124.5 -83t82 -133.5t29.5 -176zM212 843v-438q0 -81 23.5 -144.5t64 -102.5t93.5 -59.5t115 -20.5 t115 20.5t93.5 59.5t64 102.5t23.5 144.5v438q0 65 -15.5 118.5t-42.5 91.5t-64 64.5t-81 38.5t-93 12q-62 0 -114.5 -20t-93.5 -59t-64.5 -102t-23.5 -144zM554 1522l223 -194h-129l-140 112l-141 -112h-129l223 194h93z" />
<glyph unicode="&#xd5;" horiz-adv-x="1015" d="M901 843v-438q0 -97 -29.5 -176.5t-82 -133.5t-124.5 -83t-156.5 -29t-157 29t-125 83t-82.5 133.5t-30 176.5v438q0 96 30 176t82.5 133.5t125 83t157 29.5t156.5 -29.5t124.5 -83t82 -133.5t29.5 -176zM212 843v-438q0 -81 23.5 -144.5t64 -102.5t93.5 -59.5t115 -20.5 t115 20.5t93.5 59.5t64 102.5t23.5 144.5v438q0 65 -15.5 118.5t-42.5 91.5t-64 64.5t-81 38.5t-93 12q-62 0 -114.5 -20t-93.5 -59t-64.5 -102t-23.5 -144zM415 1506q40 0 80 -22l59 -30q35 -18 52 -18q47 0 78 66h100q-15 -50 -37.5 -83t-48.5 -48t-48 -20.5t-48 -5.5 q-40 0 -80 22l-59 30q-35 18 -51 18q-48 0 -79 -67h-100q15 50 37.5 83.5t48.5 48.5t48 20.5t48 5.5z" />
<glyph unicode="&#xd6;" horiz-adv-x="1015" d="M901 843v-438q0 -97 -29.5 -176.5t-82 -133.5t-124.5 -83t-156.5 -29t-157 29t-125 83t-82.5 133.5t-30 176.5v438q0 96 30 176t82.5 133.5t125 83t157 29.5t156.5 -29.5t124.5 -83t82 -133.5t29.5 -176zM212 843v-438q0 -81 23.5 -144.5t64 -102.5t93.5 -59.5t115 -20.5 t115 20.5t93.5 59.5t64 102.5t23.5 144.5v438q0 65 -15.5 118.5t-42.5 91.5t-64 64.5t-81 38.5t-93 12q-62 0 -114.5 -20t-93.5 -59t-64.5 -102t-23.5 -144zM369 1502v-155h-98v155h98zM745 1502v-155h-99v155h99z" />
<glyph unicode="&#xd7;" d="M859 802l-305 -303l305 -302l-57 -56l-305 301l-303 -301l-57 56l303 302l-303 303l57 57l303 -303l305 303z" />
<glyph unicode="&#xd8;" horiz-adv-x="1025" d="M907 843v-438q0 -97 -30 -176.5t-82.5 -133.5t-124.5 -83t-157 -29q-156 0 -262 92l-60 -109l-72 39l75 134q-75 109 -75 266v438q0 96 30 176t82.5 133.5t125 83t156.5 29.5q155 0 262 -94l63 112l69 -42l-77 -133q77 -111 77 -265zM218 843v-438q0 -100 32 -168 l476 846q-79 85 -213 85q-61 0 -114 -20t-94 -59t-64 -102t-23 -144zM809 843q0 96 -34 165l-474 -846q77 -84 212 -84q62 0 115 20.5t94 59.5t64 102.5t23 144.5v438z" />
<glyph unicode="&#xd9;" horiz-adv-x="1057" d="M136 405v843h97v-843q0 -81 23.5 -144.5t64 -102.5t93.5 -59.5t115 -20.5t115 20.5t93.5 59.5t64 102.5t23.5 144.5v843h98v-843q0 -97 -30 -176.5t-82.5 -133.5t-124.5 -83t-157 -29t-157 29t-124.5 83t-82 133.5t-29.5 176.5zM304 1522h154l178 -194h-104z" />
<glyph unicode="&#xda;" horiz-adv-x="1057" d="M136 405v843h97v-843q0 -81 23.5 -144.5t64 -102.5t93.5 -59.5t115 -20.5t115 20.5t93.5 59.5t64 102.5t23.5 144.5v843h98v-843q0 -97 -30 -176.5t-82.5 -133.5t-124.5 -83t-157 -29t-157 29t-124.5 83t-82 133.5t-29.5 176.5zM597 1522h153l-228 -194h-104z" />
<glyph unicode="&#xdb;" horiz-adv-x="1057" d="M136 405v843h97v-843q0 -81 23.5 -144.5t64 -102.5t93.5 -59.5t115 -20.5t115 20.5t93.5 59.5t64 102.5t23.5 144.5v843h98v-843q0 -97 -30 -176.5t-82.5 -133.5t-124.5 -83t-157 -29t-157 29t-124.5 83t-82 133.5t-29.5 176.5zM576 1522l223 -194h-129l-141 112 l-141 -112h-128l223 194h93z" />
<glyph unicode="&#xdc;" horiz-adv-x="1057" d="M136 405v843h97v-843q0 -81 23.5 -144.5t64 -102.5t93.5 -59.5t115 -20.5t115 20.5t93.5 59.5t64 102.5t23.5 144.5v843h98v-843q0 -97 -30 -176.5t-82.5 -133.5t-124.5 -83t-157 -29t-157 29t-124.5 83t-82 133.5t-29.5 176.5zM391 1502v-155h-99v155h99zM766 1502v-155 h-98v155h98z" />
<glyph unicode="&#xdd;" horiz-adv-x="967" d="M954 1248l-422 -729v-519h-97v519l-421 729h109l362 -628l360 628h109zM551 1522h153l-228 -194h-104z" />
<glyph unicode="&#xde;" horiz-adv-x="959" d="M554 262h-304v-262h-99v1248h99v-261h304q75 0 140.5 -23t115.5 -67.5t79 -114.5t29 -156.5t-29 -156.5t-79 -115t-115.5 -68.5t-140.5 -23.5zM250 358h304q73 0 132.5 30t96.5 91.5t37 146.5q0 63 -21.5 114.5t-58 84t-84.5 49.5t-102 17h-304v-533z" />
<glyph unicode="&#xdf;" horiz-adv-x="942" d="M403 719h48q108 0 161 60.5t53 166.5q0 69 -22 119.5t-70.5 79.5t-121.5 29q-108 0 -161 -60t-53 -159v-955h-94v955q0 64 18 118.5t54 98t96.5 68.5t139.5 25t139 -25t96.5 -69t54.5 -100.5t18 -124.5q0 -84 -28.5 -152t-84.5 -110q96 -40 149 -124.5t53 -208.5 q0 -180 -92.5 -274t-250.5 -94q-54 0 -102 10v96q45 -16 102 -16q121 0 184.5 72t63.5 206q0 131 -73.5 204.5t-214.5 73.5h-62v90z" />
<glyph unicode="&#xe0;" horiz-adv-x="965" d="M823 920v-920h-94v112q-40 -62 -110 -95.5t-148 -33.5q-52 0 -100.5 11t-95.5 38.5t-81 67.5t-55.5 102.5t-21.5 139.5v243q0 77 21.5 139.5t55.5 102.5t81 67t95.5 38.5t100.5 11.5q78 0 148 -33.5t110 -96.5v106h94zM729 342v243q0 122 -72 195t-186 73t-186.5 -73 t-72.5 -195v-243q0 -122 72.5 -195.5t186.5 -73.5t186 73.5t72 195.5zM269 1248h149l152 -231h-91z" />
<glyph unicode="&#xe1;" horiz-adv-x="965" d="M823 920v-920h-94v112q-40 -62 -110 -95.5t-148 -33.5q-52 0 -100.5 11t-95.5 38.5t-81 67.5t-55.5 102.5t-21.5 139.5v243q0 77 21.5 139.5t55.5 102.5t81 67t95.5 38.5t100.5 11.5q78 0 148 -33.5t110 -96.5v106h94zM729 342v243q0 122 -72 195t-186 73t-186.5 -73 t-72.5 -195v-243q0 -122 72.5 -195.5t186.5 -73.5t186 73.5t72 195.5zM522 1248h150l-211 -231h-90z" />
<glyph unicode="&#xe2;" horiz-adv-x="965" d="M823 920v-920h-94v112q-40 -62 -110 -95.5t-148 -33.5q-52 0 -100.5 11t-95.5 38.5t-81 67.5t-55.5 102.5t-21.5 139.5v243q0 77 21.5 139.5t55.5 102.5t81 67t95.5 38.5t100.5 11.5q78 0 148 -33.5t110 -96.5v106h94zM729 342v243q0 122 -72 195t-186 73t-186.5 -73 t-72.5 -195v-243q0 -122 72.5 -195.5t186.5 -73.5t186 73.5t72 195.5zM626 1017l-155 148l-156 -148h-114l223 231h93l223 -231h-114z" />
<glyph unicode="&#xe3;" horiz-adv-x="965" d="M823 920v-920h-94v112q-40 -62 -110 -95.5t-148 -33.5q-52 0 -100.5 11t-95.5 38.5t-81 67.5t-55.5 102.5t-21.5 139.5v243q0 77 21.5 139.5t55.5 102.5t81 67t95.5 38.5t100.5 11.5q78 0 148 -33.5t110 -96.5v106h94zM729 342v243q0 122 -72 195t-186 73t-186.5 -73 t-72.5 -195v-243q0 -122 72.5 -195.5t186.5 -73.5t186 73.5t72 195.5zM659 1210h87q-15 -49 -37 -82.5t-48 -48.5t-48 -20.5t-48 -5.5q-41 0 -80 21l-60 34q-30 18 -58 18q-51 0 -83 -70h-88q15 50 37 83t48 48.5t48.5 21t48.5 5.5q40 0 80 -22l59 -34q30 -17 59 -17 q51 0 83 69z" />
<glyph unicode="&#xe4;" horiz-adv-x="965" d="M823 920v-920h-94v112q-40 -62 -110 -95.5t-148 -33.5q-52 0 -100.5 11t-95.5 38.5t-81 67.5t-55.5 102.5t-21.5 139.5v243q0 77 21.5 139.5t55.5 102.5t81 67t95.5 38.5t100.5 11.5q78 0 148 -33.5t110 -96.5v106h94zM729 342v243q0 122 -72 195t-186 73t-186.5 -73 t-72.5 -195v-243q0 -122 72.5 -195.5t186.5 -73.5t186 73.5t72 195.5zM328 1210v-156h-95v156h95zM707 1210v-156h-94v156h94z" />
<glyph unicode="&#xe5;" horiz-adv-x="965" d="M823 920v-920h-94v112q-40 -62 -110 -95.5t-148 -33.5q-52 0 -100.5 11t-95.5 38.5t-81 67.5t-55.5 102.5t-21.5 139.5v243q0 77 21.5 139.5t55.5 102.5t81 67t95.5 38.5t100.5 11.5q78 0 148 -33.5t110 -96.5v106h94zM729 342v243q0 122 -72 195t-186 73t-186.5 -73 t-72.5 -195v-243q0 -122 72.5 -195.5t186.5 -73.5t186 73.5t72 195.5zM338 1131q0 55 39 94.5t94 39.5q36 0 66.5 -18t48.5 -49t18 -67q0 -55 -39 -93t-94 -38q-27 0 -51.5 10t-42.5 27.5t-28.5 42t-10.5 51.5zM415 1131q0 -23 16.5 -39t39.5 -16q15 0 28 7.5t20.5 20 t7.5 27.5q0 23 -17 40t-39.5 17t-39 -17t-16.5 -40z" />
<glyph unicode="&#xe6;" horiz-adv-x="1528" d="M809 585v-43h517v43q0 122 -72.5 195t-186 73t-186 -73t-72.5 -195zM714 342v143q-169 -11 -261.5 -22.5t-141.5 -34.5q-62 -28 -88.5 -69t-26.5 -99q0 -30 7.5 -57t25 -51t44 -41.5t66.5 -27.5t91 -10q124 0 204 74.5t80 194.5zM809 451v-109q0 -122 72.5 -195.5 t185.5 -73.5q100 0 168.5 57t85.5 155h95q-7 -64 -31 -116.5t-58 -86.5t-78 -57t-89 -32.5t-93 -9.5q-65 0 -123.5 17t-112 60t-83.5 108q-30 -64 -85.5 -106.5t-119 -60.5t-135.5 -18q-73 0 -131.5 21.5t-96.5 58.5t-58 86t-20 104q0 95 48.5 164t150.5 100q71 22 169 32.5 t244 18.5v17q0 122 -72 195t-186 73q-100 0 -168.5 -56.5t-84.5 -155.5h-96q7 65 31 117t58.5 86t78 57t88.5 33t93 10q66 0 125 -21t105.5 -61.5t73.5 -95.5q41 83 124 130.5t183 47.5q37 0 72 -6t70.5 -19t66 -32.5t57.5 -48.5t46 -65t30 -84.5t11 -103.5v-134h-611z" />
<glyph unicode="&#xe7;" horiz-adv-x="918" d="M340 -282l97 266q-49 4 -93.5 18t-86.5 42t-72.5 67.5t-49 98.5t-18.5 132v243q0 77 21.5 139.5t55.5 102.5t81 67t95.5 38.5t100.5 11.5q47 0 92.5 -10t89 -33t77.5 -57t58 -86t32 -117h-97q-16 99 -84.5 155.5t-167.5 56.5q-114 0 -186.5 -73t-72.5 -195v-243 q0 -122 72.5 -195.5t186.5 -73.5q99 0 167.5 57t84.5 155h97q-9 -70 -36.5 -126t-68.5 -91t-88 -55t-100 -27l-64 -268h-123z" />
<glyph unicode="&#xe8;" horiz-adv-x="931" d="M212 451v-109q0 -122 72.5 -195.5t186.5 -73.5q99 0 167.5 57t84.5 155h97q-8 -64 -32 -116.5t-58 -86.5t-77.5 -57t-89 -32.5t-92.5 -9.5q-52 0 -100.5 11t-95.5 38.5t-81 67.5t-55.5 102.5t-21.5 139.5v243q0 77 21.5 139.5t55.5 102.5t81 67t95.5 38.5t100 11.5 t100 -11.5t95 -38.5t81 -67t55.5 -102.5t21 -139.5v-134h-611zM212 585v-43h517v43q0 122 -72 195t-186 73t-186.5 -73t-72.5 -195zM269 1248h149l152 -231h-91z" />
<glyph unicode="&#xe9;" horiz-adv-x="931" d="M212 451v-109q0 -122 72.5 -195.5t186.5 -73.5q99 0 167.5 57t84.5 155h97q-8 -64 -32 -116.5t-58 -86.5t-77.5 -57t-89 -32.5t-92.5 -9.5q-52 0 -100.5 11t-95.5 38.5t-81 67.5t-55.5 102.5t-21.5 139.5v243q0 77 21.5 139.5t55.5 102.5t81 67t95.5 38.5t100 11.5 t100 -11.5t95 -38.5t81 -67t55.5 -102.5t21 -139.5v-134h-611zM212 585v-43h517v43q0 122 -72 195t-186 73t-186.5 -73t-72.5 -195zM522 1248h150l-211 -231h-90z" />
<glyph unicode="&#xea;" horiz-adv-x="931" d="M212 451v-109q0 -122 72.5 -195.5t186.5 -73.5q99 0 167.5 57t84.5 155h97q-8 -64 -32 -116.5t-58 -86.5t-77.5 -57t-89 -32.5t-92.5 -9.5q-52 0 -100.5 11t-95.5 38.5t-81 67.5t-55.5 102.5t-21.5 139.5v243q0 77 21.5 139.5t55.5 102.5t81 67t95.5 38.5t100 11.5 t100 -11.5t95 -38.5t81 -67t55.5 -102.5t21 -139.5v-134h-611zM212 585v-43h517v43q0 122 -72 195t-186 73t-186.5 -73t-72.5 -195zM626 1017l-155 148l-156 -148h-114l223 231h93l223 -231h-114z" />
<glyph unicode="&#xeb;" horiz-adv-x="931" d="M212 451v-109q0 -122 72.5 -195.5t186.5 -73.5q99 0 167.5 57t84.5 155h97q-8 -64 -32 -116.5t-58 -86.5t-77.5 -57t-89 -32.5t-92.5 -9.5q-52 0 -100.5 11t-95.5 38.5t-81 67.5t-55.5 102.5t-21.5 139.5v243q0 77 21.5 139.5t55.5 102.5t81 67t95.5 38.5t100 11.5 t100 -11.5t95 -38.5t81 -67t55.5 -102.5t21 -139.5v-134h-611zM212 585v-43h517v43q0 122 -72 195t-186 73t-186.5 -73t-72.5 -195zM328 1210v-156h-95v156h95zM707 1210v-156h-94v156h94z" />
<glyph unicode="&#xec;" horiz-adv-x="379" d="M143 920h94v-920h-94v920zM-12 1248h149l152 -231h-92z" />
<glyph unicode="&#xed;" horiz-adv-x="379" d="M143 920h94v-920h-94v920zM240 1248h151l-211 -231h-91z" />
<glyph unicode="&#xee;" horiz-adv-x="379" d="M143 920h94v-920h-94v920zM344 1017l-155 148l-155 -148h-114l223 231h92l223 -231h-114z" />
<glyph unicode="&#xef;" horiz-adv-x="379" d="M143 920h94v-920h-94v920zM46 1210v-156h-94v156h94zM425 1210v-156h-94v156h94z" />
<glyph unicode="&#xf0;" horiz-adv-x="940" d="M679 1042h-91l153 -210q82 -113 82 -247v-243q0 -77 -21 -139.5t-55.5 -102.5t-81 -67.5t-95 -38.5t-100 -11t-100 11t-95.5 38.5t-81 67.5t-55.5 102.5t-21.5 139.5v243q0 77 21.5 139.5t55.5 102.5t81 67t95.5 38.5t100.5 11.5q43 0 76 -7l-76 105h-223v77h165l-92 129 h117l93 -129h148v-77zM729 342v243q0 122 -72 195t-186 73t-186.5 -73t-72.5 -195v-243q0 -122 72.5 -195.5t186.5 -73.5t186 73.5t72 195.5z" />
<glyph unicode="&#xf1;" horiz-adv-x="977" d="M237 585v-585h-94v920h94v-106q40 63 109.5 96.5t148.5 33.5q52 0 100.5 -11.5t95 -38.5t81 -67t55.5 -102.5t21 -139.5v-585h-95v585q0 122 -72 195t-186 73q-75 0 -133.5 -32t-91.5 -93.5t-33 -142.5zM684 1210h88q-15 -49 -37.5 -82.5t-48.5 -48.5t-48 -20.5t-48 -5.5 q-40 0 -80 21l-59 34q-31 18 -59 18q-52 0 -84 -70h-87q12 40 29.5 69.5t35.5 46t40 26.5t39 13t38 3q40 0 80 -22l59 -34q30 -17 58 -17q52 0 84 69z" />
<glyph unicode="&#xf2;" horiz-adv-x="940" d="M823 585v-243q0 -77 -21 -139.5t-55.5 -102.5t-81 -67.5t-95 -38.5t-100 -11t-100 11t-95.5 38.5t-81 67.5t-55.5 102.5t-21.5 139.5v243q0 77 21.5 139.5t55.5 102.5t81 67t95.5 38.5t100 11.5t100 -11.5t95 -38.5t81 -67t55.5 -102.5t21 -139.5zM729 342v243 q0 122 -72 195t-186 73t-186.5 -73t-72.5 -195v-243q0 -122 72.5 -195.5t186.5 -73.5t186 73.5t72 195.5zM269 1248h149l152 -231h-91z" />
<glyph unicode="&#xf3;" horiz-adv-x="940" d="M823 585v-243q0 -77 -21 -139.5t-55.5 -102.5t-81 -67.5t-95 -38.5t-100 -11t-100 11t-95.5 38.5t-81 67.5t-55.5 102.5t-21.5 139.5v243q0 77 21.5 139.5t55.5 102.5t81 67t95.5 38.5t100 11.5t100 -11.5t95 -38.5t81 -67t55.5 -102.5t21 -139.5zM729 342v243 q0 122 -72 195t-186 73t-186.5 -73t-72.5 -195v-243q0 -122 72.5 -195.5t186.5 -73.5t186 73.5t72 195.5zM522 1248h150l-211 -231h-90z" />
<glyph unicode="&#xf4;" horiz-adv-x="940" d="M823 585v-243q0 -77 -21 -139.5t-55.5 -102.5t-81 -67.5t-95 -38.5t-100 -11t-100 11t-95.5 38.5t-81 67.5t-55.5 102.5t-21.5 139.5v243q0 77 21.5 139.5t55.5 102.5t81 67t95.5 38.5t100 11.5t100 -11.5t95 -38.5t81 -67t55.5 -102.5t21 -139.5zM729 342v243 q0 122 -72 195t-186 73t-186.5 -73t-72.5 -195v-243q0 -122 72.5 -195.5t186.5 -73.5t186 73.5t72 195.5zM626 1017l-155 148l-156 -148h-114l223 231h93l223 -231h-114z" />
<glyph unicode="&#xf5;" horiz-adv-x="940" d="M823 585v-243q0 -77 -21 -139.5t-55.5 -102.5t-81 -67.5t-95 -38.5t-100 -11t-100 11t-95.5 38.5t-81 67.5t-55.5 102.5t-21.5 139.5v243q0 77 21.5 139.5t55.5 102.5t81 67t95.5 38.5t100 11.5t100 -11.5t95 -38.5t81 -67t55.5 -102.5t21 -139.5zM729 342v243 q0 122 -72 195t-186 73t-186.5 -73t-72.5 -195v-243q0 -122 72.5 -195.5t186.5 -73.5t186 73.5t72 195.5zM659 1210h87q-15 -49 -37 -82.5t-48 -48.5t-48 -20.5t-48 -5.5q-41 0 -80 21l-60 34q-30 18 -58 18q-51 0 -83 -70h-88q15 50 37 83t48 48.5t48.5 21t48.5 5.5 q40 0 80 -22l59 -34q30 -17 59 -17q51 0 83 69z" />
<glyph unicode="&#xf6;" horiz-adv-x="940" d="M823 585v-243q0 -77 -21 -139.5t-55.5 -102.5t-81 -67.5t-95 -38.5t-100 -11t-100 11t-95.5 38.5t-81 67.5t-55.5 102.5t-21.5 139.5v243q0 77 21.5 139.5t55.5 102.5t81 67t95.5 38.5t100 11.5t100 -11.5t95 -38.5t81 -67t55.5 -102.5t21 -139.5zM729 342v243 q0 122 -72 195t-186 73t-186.5 -73t-72.5 -195v-243q0 -122 72.5 -195.5t186.5 -73.5t186 73.5t72 195.5zM328 1210v-156h-95v156h95zM707 1210v-156h-94v156h94z" />
<glyph unicode="&#xf7;" d="M424 853.5q0 30.5 22 52.5t52.5 22t52.5 -22t22 -52.5t-22 -52.5t-52.5 -22t-52.5 22t-22 52.5zM424 146q0 31 22 53t52.5 22t52.5 -22t22 -53t-22 -53t-52.5 -22t-52.5 22t-22 53zM850 459h-706v81h706v-81z" />
<glyph unicode="&#xf8;" horiz-adv-x="950" d="M828 585v-243q0 -77 -21 -139.5t-55 -102.5t-80.5 -67.5t-95 -38.5t-100.5 -11q-137 0 -228 70l-63 -92l-62 42l69 104q-69 89 -69 235v243q0 77 21 139.5t55.5 102.5t81 67t95 38.5t100.5 11.5q132 0 226 -71l63 93l63 -43l-69 -105q69 -90 69 -233zM734 342v243 q0 85 -35 144l-398 -595q69 -61 175 -61q114 0 186 73.5t72 195.5zM218 342q0 -82 33 -146l397 597q-69 60 -172 60q-114 0 -186 -73t-72 -195v-243z" />
<glyph unicode="&#xf9;" horiz-adv-x="965" d="M729 342v578h94v-920h-94v112q-39 -61 -109.5 -95t-141.5 -34q-50 0 -97.5 11t-93.5 38.5t-80 67.5t-55.5 102.5t-21.5 139.5v578h94v-578q0 -122 72 -195.5t182 -73.5q107 0 179 74t72 195zM274 1248h150l152 -231h-91z" />
<glyph unicode="&#xfa;" horiz-adv-x="965" d="M729 342v578h94v-920h-94v112q-39 -61 -109.5 -95t-141.5 -34q-50 0 -97.5 11t-93.5 38.5t-80 67.5t-55.5 102.5t-21.5 139.5v578h94v-578q0 -122 72 -195.5t182 -73.5q107 0 179 74t72 195zM527 1248h150l-210 -231h-91z" />
<glyph unicode="&#xfb;" horiz-adv-x="965" d="M729 342v578h94v-920h-94v112q-39 -61 -109.5 -95t-141.5 -34q-50 0 -97.5 11t-93.5 38.5t-80 67.5t-55.5 102.5t-21.5 139.5v578h94v-578q0 -122 72 -195.5t182 -73.5q107 0 179 74t72 195zM631 1017l-155 148l-155 -148h-114l223 231h92l223 -231h-114z" />
<glyph unicode="&#xfc;" horiz-adv-x="965" d="M729 342v578h94v-920h-94v112q-39 -61 -109.5 -95t-141.5 -34q-50 0 -97.5 11t-93.5 38.5t-80 67.5t-55.5 102.5t-21.5 139.5v578h94v-578q0 -122 72 -195.5t182 -73.5q107 0 179 74t72 195zM333 1210v-156h-95v156h95zM713 1210v-156h-94v156h94z" />
<glyph unicode="&#xfd;" horiz-adv-x="804" d="M786 920l-383 -1064q-1 -4 -4 -10q-10 -28 -15 -41.5t-15.5 -36t-19 -33.5t-23 -25.5t-31 -21t-39 -11.5t-49.5 -5h-47v91h49q24 0 40.5 6.5t28 22.5t17.5 29t16 42l46 125l-337 932h101l282 -797l281 797h102zM454 1248h150l-210 -231h-91z" />
<glyph unicode="&#xfe;" horiz-adv-x="965" d="M143 -328v1576h94v-434q40 63 109.5 96.5t148.5 33.5q52 0 100.5 -11.5t95 -38.5t81 -67t55.5 -102.5t21 -139.5v-243q0 -77 -21 -139.5t-55.5 -102.5t-81 -67.5t-95 -38.5t-100.5 -11q-79 0 -148.5 33.5t-109.5 95.5v-440h-94zM237 585v-243q0 -122 72 -195.5t186 -73.5 t186 73.5t72 195.5v243q0 122 -72 195t-186 73q-75 0 -133.5 -32t-91.5 -93.5t-33 -142.5z" />
<glyph unicode="&#xff;" horiz-adv-x="804" d="M786 920l-383 -1064q-1 -4 -4 -10q-10 -28 -15 -41.5t-15.5 -36t-19 -33.5t-23 -25.5t-31 -21t-39 -11.5t-49.5 -5h-47v91h49q24 0 40.5 6.5t28 22.5t17.5 29t16 42l46 125l-337 932h101l282 -797l281 797h102zM260 1210v-156h-95v156h95zM639 1210v-156h-94v156h94z" />
<glyph unicode="&#x100;" horiz-adv-x="1004" d="M871 0l-131 386h-475l-131 -386h-100l424 1248h89l424 -1248h-100zM296 478h413l-206 607zM760 1379h-514v83h514v-83z" />
<glyph unicode="&#x101;" horiz-adv-x="965" d="M823 920v-920h-94v112q-40 -62 -110 -95.5t-148 -33.5q-52 0 -100.5 11t-95.5 38.5t-81 67.5t-55.5 102.5t-21.5 139.5v243q0 77 21.5 139.5t55.5 102.5t81 67t95.5 38.5t100.5 11.5q78 0 148 -33.5t110 -96.5v106h94zM729 342v243q0 122 -72 195t-186 73t-186.5 -73 t-72.5 -195v-243q0 -122 72.5 -195.5t186.5 -73.5t186 73.5t72 195.5zM746 1092h-515v81h515v-81z" />
<glyph unicode="&#x102;" horiz-adv-x="1004" d="M871 0l-131 386h-475l-131 -386h-100l424 1248h89l424 -1248h-100zM296 478h413l-206 607zM559 1418q45 0 74.5 29.5t29.5 74.5h90q0 -81 -56.5 -137.5t-137.5 -56.5h-114q-80 0 -137 56.5t-57 137.5h91q0 -45 29.5 -74.5t73.5 -29.5h114z" />
<glyph unicode="&#x103;" horiz-adv-x="965" d="M823 920v-920h-94v112q-40 -62 -110 -95.5t-148 -33.5q-52 0 -100.5 11t-95.5 38.5t-81 67.5t-55.5 102.5t-21.5 139.5v243q0 77 21.5 139.5t55.5 102.5t81 67t95.5 38.5t100.5 11.5q78 0 148 -33.5t110 -96.5v106h94zM729 342v243q0 122 -72 195t-186 73t-186.5 -73 t-72.5 -195v-243q0 -122 72.5 -195.5t186.5 -73.5t186 73.5t72 195.5zM467 1105h43q59 0 100.5 42t41.5 101h88q0 -62 -31 -115.5t-84 -84.5t-115 -31h-43q-94 0 -162 68t-68 163h88q0 -59 41.5 -101t100.5 -42z" />
<glyph unicode="&#x104;" horiz-adv-x="1004" d="M871 0l-131 386h-475l-131 -386h-100l424 1248h89l424 -1248q-34 -25 -54.5 -41.5t-44.5 -40t-35.5 -46t-11.5 -45.5q0 -73 71 -73q30 0 75 22v-89q-38 -24 -84 -24q-73 0 -116.5 42t-43.5 111q0 114 144 184zM296 478h413l-206 607z" />
<glyph unicode="&#x105;" horiz-adv-x="965" d="M729 0v112q-40 -62 -110 -95.5t-148 -33.5q-52 0 -100.5 11t-95.5 38.5t-81 67.5t-55.5 102.5t-21.5 139.5v243q0 77 21.5 139.5t55.5 102.5t81 67t95.5 38.5t100.5 11.5q78 0 148 -33.5t110 -96.5v106h94v-920q-34 -25 -54.5 -41.5t-44.5 -40t-35.5 -46t-11.5 -45.5 q0 -39 20 -58t51 -19q30 0 75 22v-85q-38 -24 -83 -24q-49 0 -84.5 19t-54 53.5t-18.5 80.5q0 113 146 184zM729 342v243q0 122 -72 195t-186 73t-186.5 -73t-72.5 -195v-243q0 -122 72.5 -195.5t186.5 -73.5t186 73.5t72 195.5z" />
<glyph unicode="&#x106;" horiz-adv-x="995" d="M802 357h98q-15 -173 -123 -273.5t-269 -100.5q-84 0 -156.5 29t-125 83t-82.5 133.5t-30 176.5v438q0 96 30 176t82.5 133.5t125 83t156.5 29.5q106 0 191 -44.5t138 -129.5t63 -200h-98q-12 136 -93.5 206.5t-200.5 70.5q-62 0 -114.5 -20t-93.5 -59t-64.5 -102 t-23.5 -144v-438q0 -81 23.5 -144.5t64 -102.5t93.5 -59.5t115 -20.5q118 0 200 71.5t94 207.5zM573 1522h154l-228 -194h-103z" />
<glyph unicode="&#x107;" horiz-adv-x="918" d="M471 -17q-52 0 -100.5 11t-95.5 38.5t-81 67.5t-55.5 102.5t-21.5 139.5v243q0 77 21.5 139.5t55.5 102.5t81 67t95.5 38.5t100.5 11.5q47 0 92.5 -10t89 -33t77.5 -57t58 -86t32 -117h-97q-16 99 -84.5 155.5t-167.5 56.5q-114 0 -186.5 -73t-72.5 -195v-243 q0 -122 72.5 -195.5t186.5 -73.5q99 0 167.5 57t84.5 155h97q-8 -64 -32 -116.5t-58 -86.5t-77.5 -57t-89 -32.5t-92.5 -9.5zM520 1248h150l-211 -231h-90z" />
<glyph unicode="&#x108;" horiz-adv-x="995" d="M802 357h98q-15 -173 -123 -273.5t-269 -100.5q-84 0 -156.5 29t-125 83t-82.5 133.5t-30 176.5v438q0 96 30 176t82.5 133.5t125 83t156.5 29.5q106 0 191 -44.5t138 -129.5t63 -200h-98q-12 136 -93.5 206.5t-200.5 70.5q-62 0 -114.5 -20t-93.5 -59t-64.5 -102 t-23.5 -144v-438q0 -81 23.5 -144.5t64 -102.5t93.5 -59.5t115 -20.5q118 0 200 71.5t94 207.5zM552 1522l223 -194h-129l-140 112l-141 -112h-128l222 194h93z" />
<glyph unicode="&#x109;" horiz-adv-x="918" d="M471 -17q-52 0 -100.5 11t-95.5 38.5t-81 67.5t-55.5 102.5t-21.5 139.5v243q0 77 21.5 139.5t55.5 102.5t81 67t95.5 38.5t100.5 11.5q47 0 92.5 -10t89 -33t77.5 -57t58 -86t32 -117h-97q-16 99 -84.5 155.5t-167.5 56.5q-114 0 -186.5 -73t-72.5 -195v-243 q0 -122 72.5 -195.5t186.5 -73.5q99 0 167.5 57t84.5 155h97q-8 -64 -32 -116.5t-58 -86.5t-77.5 -57t-89 -32.5t-92.5 -9.5zM624 1017l-155 148l-156 -148h-114l223 231h93l223 -231h-114z" />
<glyph unicode="&#x10a;" horiz-adv-x="995" d="M802 357h98q-15 -173 -123 -273.5t-269 -100.5q-84 0 -156.5 29t-125 83t-82.5 133.5t-30 176.5v438q0 96 30 176t82.5 133.5t125 83t156.5 29.5q106 0 191 -44.5t138 -129.5t63 -200h-98q-12 136 -93.5 206.5t-200.5 70.5q-62 0 -114.5 -20t-93.5 -59t-64.5 -102 t-23.5 -144v-438q0 -81 23.5 -144.5t64 -102.5t93.5 -59.5t115 -20.5q118 0 200 71.5t94 207.5zM556 1502v-155h-98v155h98z" />
<glyph unicode="&#x10b;" horiz-adv-x="918" d="M471 -17q-52 0 -100.5 11t-95.5 38.5t-81 67.5t-55.5 102.5t-21.5 139.5v243q0 77 21.5 139.5t55.5 102.5t81 67t95.5 38.5t100.5 11.5q47 0 92.5 -10t89 -33t77.5 -57t58 -86t32 -117h-97q-16 99 -84.5 155.5t-167.5 56.5q-114 0 -186.5 -73t-72.5 -195v-243 q0 -122 72.5 -195.5t186.5 -73.5q99 0 167.5 57t84.5 155h97q-8 -64 -32 -116.5t-58 -86.5t-77.5 -57t-89 -32.5t-92.5 -9.5zM517 1210v-156h-95v156h95z" />
<glyph unicode="&#x10c;" horiz-adv-x="995" d="M802 357h98q-15 -173 -123 -273.5t-269 -100.5q-84 0 -156.5 29t-125 83t-82.5 133.5t-30 176.5v438q0 96 30 176t82.5 133.5t125 83t156.5 29.5q106 0 191 -44.5t138 -129.5t63 -200h-98q-12 136 -93.5 206.5t-200.5 70.5q-62 0 -114.5 -20t-93.5 -59t-64.5 -102 t-23.5 -144v-438q0 -81 23.5 -144.5t64 -102.5t93.5 -59.5t115 -20.5q118 0 200 71.5t94 207.5zM775 1522l-223 -194h-93l-222 194h128l141 -113l140 113h129z" />
<glyph unicode="&#x10d;" horiz-adv-x="918" d="M471 -17q-52 0 -100.5 11t-95.5 38.5t-81 67.5t-55.5 102.5t-21.5 139.5v243q0 77 21.5 139.5t55.5 102.5t81 67t95.5 38.5t100.5 11.5q47 0 92.5 -10t89 -33t77.5 -57t58 -86t32 -117h-97q-16 99 -84.5 155.5t-167.5 56.5q-114 0 -186.5 -73t-72.5 -195v-243 q0 -122 72.5 -195.5t186.5 -73.5q99 0 167.5 57t84.5 155h97q-8 -64 -32 -116.5t-58 -86.5t-77.5 -57t-89 -32.5t-92.5 -9.5zM469 1100l155 148h114l-223 -231h-93l-223 231h114z" />
<glyph unicode="&#x10e;" horiz-adv-x="1052" d="M939 825v-403q0 -96 -30 -176t-82 -133.5t-124.5 -83t-157.5 -29.5h-394v1248h394q68 0 128 -19t108.5 -55t84 -87t54.5 -118t19 -144zM250 1151v-1054h295q62 0 115 20t94 59t64 102t23 144v403q0 80 -23 143.5t-64 102.5t-94 59.5t-115 20.5h-295zM779 1522l-223 -194 h-93l-223 194h129l141 -113l141 113h128z" />
<glyph unicode="&#x10f;" horiz-adv-x="965" d="M1059 1248l-109 -282h-73l50 282h132zM823 1248v-1248h-94v112q-40 -62 -110 -95.5t-148 -33.5q-52 0 -100.5 11t-95.5 38.5t-81 67.5t-55.5 102.5t-21.5 139.5v243q0 77 21.5 139.5t55.5 102.5t81 67t95.5 38.5t100.5 11.5q78 0 148 -33.5t110 -96.5v434h94zM729 342 v243q0 122 -72 195t-186 73t-186.5 -73t-72.5 -195v-243q0 -122 72.5 -195.5t186.5 -73.5t186 73.5t72 195.5z" />
<glyph unicode="&#x110;" horiz-adv-x="1071" d="M959 825v-403q0 -77 -19.5 -144t-54.5 -118t-83.5 -87t-109 -54.5t-127.5 -18.5h-394v585h-125v80h125v583h394q84 0 156.5 -30t125 -83.5t82.5 -133.5t30 -176zM269 1151v-486h296v-80h-296v-488h296q61 0 114 20t94 59t64 102t23 144v403q0 80 -23 143.5t-64 102.5 t-94 59.5t-114 20.5h-296z" />
<glyph unicode="&#x111;" horiz-adv-x="965" d="M823 1248v-119h125v-76h-125v-1053h-94v112q-40 -62 -110 -95.5t-148 -33.5q-52 0 -100.5 11t-95.5 38.5t-81 67.5t-55.5 102.5t-21.5 139.5v243q0 77 21.5 139.5t55.5 102.5t81 67t95.5 38.5t100.5 11.5q78 0 148 -33.5t110 -96.5v239h-258v76h258v119h94zM729 342v243 q0 122 -72 195t-186 73t-186.5 -73t-72.5 -195v-243q0 -122 72.5 -195.5t186.5 -73.5t186 73.5t72 195.5z" />
<glyph unicode="&#x112;" horiz-adv-x="963" d="M250 585v-488h591v-97h-690v1248h690v-97h-591v-472h591v-94h-591zM753 1379h-515v83h515v-83z" />
<glyph unicode="&#x113;" horiz-adv-x="931" d="M212 451v-109q0 -122 72.5 -195.5t186.5 -73.5q99 0 167.5 57t84.5 155h97q-8 -64 -32 -116.5t-58 -86.5t-77.5 -57t-89 -32.5t-92.5 -9.5q-52 0 -100.5 11t-95.5 38.5t-81 67.5t-55.5 102.5t-21.5 139.5v243q0 77 21.5 139.5t55.5 102.5t81 67t95.5 38.5t100 11.5 t100 -11.5t95 -38.5t81 -67t55.5 -102.5t21 -139.5v-134h-611zM212 585v-43h517v43q0 122 -72 195t-186 73t-186.5 -73t-72.5 -195zM729 1092h-515v81h515v-81z" />
<glyph unicode="&#x114;" horiz-adv-x="963" d="M250 585v-488h591v-97h-690v1248h690v-97h-591v-472h591v-94h-591zM552 1418q45 0 74.5 29.5t29.5 74.5h90q0 -81 -56.5 -137.5t-137.5 -56.5h-114q-80 0 -137 56.5t-57 137.5h91q0 -45 29.5 -74.5t73.5 -29.5h114z" />
<glyph unicode="&#x115;" horiz-adv-x="931" d="M212 451v-109q0 -122 72.5 -195.5t186.5 -73.5q99 0 167.5 57t84.5 155h97q-8 -64 -32 -116.5t-58 -86.5t-77.5 -57t-89 -32.5t-92.5 -9.5q-52 0 -100.5 11t-95.5 38.5t-81 67.5t-55.5 102.5t-21.5 139.5v243q0 77 21.5 139.5t55.5 102.5t81 67t95.5 38.5t100 11.5 t100 -11.5t95 -38.5t81 -67t55.5 -102.5t21 -139.5v-134h-611zM212 585v-43h517v43q0 122 -72 195t-186 73t-186.5 -73t-72.5 -195zM449 1105h43q58 0 100 42t42 101h87q0 -95 -67.5 -163t-161.5 -68h-43q-95 0 -162.5 68t-67.5 163h87q0 -59 42 -101t101 -42z" />
<glyph unicode="&#x116;" horiz-adv-x="963" d="M250 585v-488h591v-97h-690v1248h690v-97h-591v-472h591v-94h-591zM545 1502v-155h-98v155h98z" />
<glyph unicode="&#x117;" horiz-adv-x="931" d="M212 451v-109q0 -122 72.5 -195.5t186.5 -73.5q99 0 167.5 57t84.5 155h97q-8 -64 -32 -116.5t-58 -86.5t-77.5 -57t-89 -32.5t-92.5 -9.5q-52 0 -100.5 11t-95.5 38.5t-81 67.5t-55.5 102.5t-21.5 139.5v243q0 77 21.5 139.5t55.5 102.5t81 67t95.5 38.5t100 11.5 t100 -11.5t95 -38.5t81 -67t55.5 -102.5t21 -139.5v-134h-611zM212 585v-43h517v43q0 122 -72 195t-186 73t-186.5 -73t-72.5 -195zM519 1210v-156h-95v156h95z" />
<glyph unicode="&#x118;" horiz-adv-x="963" d="M743 0h-592v1248h690v-97h-591v-472h591v-94h-591v-488h591v-97q-34 -25 -54.5 -41.5t-44.5 -40t-35.5 -46t-11.5 -45.5q0 -73 71 -73q30 0 75 22v-89q-38 -24 -84 -24q-73 0 -116.5 42t-43.5 111q0 113 146 184z" />
<glyph unicode="&#x119;" horiz-adv-x="931" d="M212 451v-109q0 -122 72.5 -195.5t186.5 -73.5q99 0 167.5 57t84.5 155h97q-18 -145 -114 -224q-12 -10 -48.5 -38t-58 -47t-49.5 -46.5t-41.5 -53t-13.5 -49.5q0 -39 20 -58t51 -19q30 0 75 22v-85q-38 -24 -83 -24q-73 0 -115 42t-42 111q0 102 118 170q-32 -3 -48 -3 q-52 0 -100.5 11t-95.5 38.5t-81 67.5t-55.5 102.5t-21.5 139.5v243q0 77 21.5 139.5t55.5 102.5t81 67t95.5 38.5t100 11.5t100 -11.5t95 -38.5t81 -67t55.5 -102.5t21 -139.5v-134h-611zM212 585v-43h517v43q0 122 -72 195t-186 73t-186.5 -73t-72.5 -195z" />
<glyph unicode="&#x11a;" horiz-adv-x="963" d="M250 585v-488h591v-97h-690v1248h690v-97h-591v-472h591v-94h-591zM765 1522l-223 -194h-93l-223 194h129l140 -113l141 113h129z" />
<glyph unicode="&#x11b;" horiz-adv-x="931" d="M212 451v-109q0 -122 72.5 -195.5t186.5 -73.5q99 0 167.5 57t84.5 155h97q-8 -64 -32 -116.5t-58 -86.5t-77.5 -57t-89 -32.5t-92.5 -9.5q-52 0 -100.5 11t-95.5 38.5t-81 67.5t-55.5 102.5t-21.5 139.5v243q0 77 21.5 139.5t55.5 102.5t81 67t95.5 38.5t100 11.5 t100 -11.5t95 -38.5t81 -67t55.5 -102.5t21 -139.5v-134h-611zM212 585v-43h517v43q0 122 -72 195t-186 73t-186.5 -73t-72.5 -195zM471 1100l155 148h114l-223 -231h-93l-223 231h114z" />
<glyph unicode="&#x11c;" horiz-adv-x="1008" d="M508 549v94h393v-238q0 -97 -29.5 -176.5t-82 -133.5t-124.5 -83t-156.5 -29t-157 29t-125 83t-82.5 133.5t-30 176.5v438q0 96 30 176t82.5 133.5t125 83t156.5 29.5q106 0 191 -44.5t138 -129.5t63 -200h-98q-8 90 -50.5 154t-104.5 93.5t-139 29.5q-62 0 -114.5 -20 t-93.5 -59t-64.5 -102t-23.5 -144v-438q0 -81 23.5 -144.5t64 -102.5t93.5 -59.5t115 -20.5t115 20.5t93.5 59.5t64 102.5t23.5 144.5v144h-296zM554 1522l223 -194h-129l-140 112l-141 -112h-129l223 194h93z" />
<glyph unicode="&#x11d;" horiz-adv-x="963" d="M727 14v123q-40 -62 -109.5 -96t-148.5 -34q-52 0 -100.5 11.5t-95 38.5t-81 67.5t-55.5 103t-21 139.5v218q0 77 21 139.5t55.5 102.5t81 67t95 38.5t100.5 11.5q79 0 148.5 -33.5t109.5 -96.5v106h94v-906q0 -77 -21 -139.5t-55 -102.5t-80.5 -67.5t-95 -38.5 t-100.5 -11q-48 0 -93 9.5t-89 32.5t-78 57t-58 86.5t-32 116.5h97q16 -98 84.5 -155t168.5 -57q114 0 186 73.5t72 195.5zM727 585q0 122 -72 195t-186 73t-186 -73t-72 -195v-218q0 -122 72 -195.5t186 -73.5t186 73.5t72 195.5v218zM624 1017l-155 148l-156 -148h-114 l223 231h93l223 -231h-114z" />
<glyph unicode="&#x11e;" horiz-adv-x="1008" d="M508 549v94h393v-238q0 -97 -29.5 -176.5t-82 -133.5t-124.5 -83t-156.5 -29t-157 29t-125 83t-82.5 133.5t-30 176.5v438q0 96 30 176t82.5 133.5t125 83t156.5 29.5q106 0 191 -44.5t138 -129.5t63 -200h-98q-8 90 -50.5 154t-104.5 93.5t-139 29.5q-62 0 -114.5 -20 t-93.5 -59t-64.5 -102t-23.5 -144v-438q0 -81 23.5 -144.5t64 -102.5t93.5 -59.5t115 -20.5t115 20.5t93.5 59.5t64 102.5t23.5 144.5v144h-296zM565 1418q44 0 73.5 29.5t29.5 74.5h91q0 -81 -57 -137.5t-137 -56.5h-114q-81 0 -137.5 56.5t-56.5 137.5h90 q0 -45 29.5 -74.5t74.5 -29.5h114z" />
<glyph unicode="&#x11f;" horiz-adv-x="963" d="M727 14v123q-40 -62 -109.5 -96t-148.5 -34q-52 0 -100.5 11.5t-95 38.5t-81 67.5t-55.5 103t-21 139.5v218q0 77 21 139.5t55.5 102.5t81 67t95 38.5t100.5 11.5q79 0 148.5 -33.5t109.5 -96.5v106h94v-906q0 -77 -21 -139.5t-55 -102.5t-80.5 -67.5t-95 -38.5 t-100.5 -11q-48 0 -93 9.5t-89 32.5t-78 57t-58 86.5t-32 116.5h97q16 -98 84.5 -155t168.5 -57q114 0 186 73.5t72 195.5zM727 585q0 122 -72 195t-186 73t-186 -73t-72 -195v-218q0 -122 72 -195.5t186 -73.5t186 73.5t72 195.5v218zM447 1105h43q38 0 71 19t52 52t19 72 h87q0 -95 -67.5 -163t-161.5 -68h-43q-94 0 -161.5 68t-67.5 163h86q0 -59 42 -101t101 -42z" />
<glyph unicode="&#x120;" horiz-adv-x="1008" d="M508 549v94h393v-238q0 -97 -29.5 -176.5t-82 -133.5t-124.5 -83t-156.5 -29t-157 29t-125 83t-82.5 133.5t-30 176.5v438q0 96 30 176t82.5 133.5t125 83t156.5 29.5q106 0 191 -44.5t138 -129.5t63 -200h-98q-8 90 -50.5 154t-104.5 93.5t-139 29.5q-62 0 -114.5 -20 t-93.5 -59t-64.5 -102t-23.5 -144v-438q0 -81 23.5 -144.5t64 -102.5t93.5 -59.5t115 -20.5t115 20.5t93.5 59.5t64 102.5t23.5 144.5v144h-296zM558 1502v-155h-99v155h99z" />
<glyph unicode="&#x121;" horiz-adv-x="963" d="M727 14v123q-40 -62 -109.5 -96t-148.5 -34q-52 0 -100.5 11.5t-95 38.5t-81 67.5t-55.5 103t-21 139.5v218q0 77 21 139.5t55.5 102.5t81 67t95 38.5t100.5 11.5q79 0 148.5 -33.5t109.5 -96.5v106h94v-906q0 -77 -21 -139.5t-55 -102.5t-80.5 -67.5t-95 -38.5 t-100.5 -11q-48 0 -93 9.5t-89 32.5t-78 57t-58 86.5t-32 116.5h97q16 -98 84.5 -155t168.5 -57q114 0 186 73.5t72 195.5zM727 585q0 122 -72 195t-186 73t-186 -73t-72 -195v-218q0 -122 72 -195.5t186 -73.5t186 73.5t72 195.5v218zM517 1210v-156h-95v156h95z" />
<glyph unicode="&#x122;" horiz-adv-x="1008" d="M508 549v94h393v-238q0 -97 -29.5 -176.5t-82 -133.5t-124.5 -83t-156.5 -29t-157 29t-125 83t-82.5 133.5t-30 176.5v438q0 96 30 176t82.5 133.5t125 83t156.5 29.5q106 0 191 -44.5t138 -129.5t63 -200h-98q-8 90 -50.5 154t-104.5 93.5t-139 29.5q-62 0 -114.5 -20 t-93.5 -59t-64.5 -102t-23.5 -144v-438q0 -81 23.5 -144.5t64 -102.5t93.5 -59.5t115 -20.5t115 20.5t93.5 59.5t64 102.5t23.5 144.5v144h-296zM442 -221v132h131v-132l-37 -132h-87l37 132h-44z" />
<glyph unicode="&#x123;" horiz-adv-x="963" d="M727 14v123q-40 -62 -109.5 -96t-148.5 -34q-52 0 -100.5 11.5t-95 38.5t-81 67.5t-55.5 103t-21 139.5v218q0 77 21 139.5t55.5 102.5t81 67t95 38.5t100.5 11.5q79 0 148.5 -33.5t109.5 -96.5v106h94v-906q0 -77 -21 -139.5t-55 -102.5t-80.5 -67.5t-95 -38.5 t-100.5 -11q-48 0 -93 9.5t-89 32.5t-78 57t-58 86.5t-32 116.5h97q16 -98 84.5 -155t168.5 -57q114 0 186 73.5t72 195.5zM727 585q0 122 -72 195t-186 73t-186 -73t-72 -195v-218q0 -122 72 -195.5t186 -73.5t186 73.5t72 195.5v218zM534 1149v-132h-131v132l37 133h87 l-37 -133h44z" />
<glyph unicode="&#x124;" horiz-adv-x="1090" d="M841 679v569h98v-1248h-98v585h-591v-585h-99v1248h99v-569h591zM592 1522l222 -194h-128l-141 112l-140 -112h-129l223 194h93z" />
<glyph unicode="&#x125;" horiz-adv-x="977" d="M237 585v-585h-94v1248h94v-434q40 63 109.5 96.5t148.5 33.5q52 0 100.5 -11.5t95 -38.5t81 -67t55.5 -102.5t21 -139.5v-585h-95v585q0 122 -72 195t-186 73q-75 0 -133.5 -32t-91.5 -93.5t-33 -142.5zM651 1328l-156 148l-155 -148h-114l223 229h93l223 -229h-114z " />
<glyph unicode="&#x126;" horiz-adv-x="1090" d="M250 1248v-245h591v245h98v-1248h-98v585h-591v-585h-99v1248h99zM841 679v244h-591v-244h591z" />
<glyph unicode="&#x127;" horiz-adv-x="977" d="M237 585v-585h-94v1053h-126v76h126v119h94v-119h258v-76h-258v-239q40 63 109.5 96.5t148.5 33.5q52 0 100.5 -11.5t95 -38.5t81 -67t55.5 -102.5t21 -139.5v-585h-95v585q0 122 -72 195t-186 73q-75 0 -133.5 -32t-91.5 -93.5t-33 -142.5z" />
<glyph unicode="&#x128;" horiz-adv-x="400" d="M250 1248v-1248h-99v1248h99zM107 1506q40 0 80 -22l59 -30q35 -18 52 -18q47 0 78 66h100q-15 -50 -37 -83t-48.5 -48t-48.5 -20.5t-48 -5.5q-40 0 -80 22l-59 30q-35 18 -51 18q-48 0 -79 -67h-100q15 50 37.5 83.5t48.5 48.5t48 20.5t48 5.5z" />
<glyph unicode="&#x129;" horiz-adv-x="379" d="M143 920h94v-920h-94v920zM378 1210h87q-15 -49 -37 -82.5t-48 -48.5t-48 -20.5t-48 -5.5q-41 0 -81 21l-59 34q-30 18 -59 18q-51 0 -83 -70h-87q15 50 37 83t48 48.5t48.5 21t48.5 5.5q40 0 80 -22l58 -34q30 -17 59 -17q52 0 84 69z" />
<glyph unicode="&#x12a;" horiz-adv-x="400" d="M250 1248v-1248h-99v1248h99zM458 1379h-515v83h515v-83z" />
<glyph unicode="&#x12b;" horiz-adv-x="379" d="M143 920h94v-920h-94v920zM447 1092h-515v81h515v-81z" />
<glyph unicode="&#x12c;" horiz-adv-x="400" d="M250 1248v-1248h-99v1248h99zM257 1418q44 0 73.5 29.5t29.5 74.5h91q0 -81 -57 -137.5t-137 -56.5h-114q-81 0 -137.5 56.5t-56.5 137.5h90q0 -45 29.5 -74.5t74.5 -29.5h114z" />
<glyph unicode="&#x12d;" horiz-adv-x="379" d="M143 920h94v-920h-94v920zM168 1105h43q58 0 100 42t42 101h87q0 -95 -67.5 -163t-161.5 -68h-43q-95 0 -163 68t-68 163h88q0 -59 42 -101t101 -42z" />
<glyph unicode="&#x12e;" horiz-adv-x="394" d="M151 0v1248h99v-1248q-35 -25 -55.5 -41.5t-44.5 -40t-35 -46t-11 -45.5q0 -73 71 -73q30 0 75 22v-89q-38 -24 -85 -24q-73 0 -116.5 42t-43.5 111q0 113 146 184z" />
<glyph unicode="&#x12f;" horiz-adv-x="379" d="M143 0v920h94v-920q-35 -25 -55.5 -41.5t-44.5 -40t-35.5 -46t-11.5 -45.5q0 -39 20 -58t52 -19q30 0 75 22v-85q-38 -24 -84 -24q-73 0 -114.5 42t-41.5 111q0 113 146 184zM237 1248v-156h-94v156h94z" />
<glyph unicode="&#x130;" horiz-adv-x="400" d="M250 1248v-1248h-99v1248h99zM250 1502v-155h-99v155h99z" />
<glyph unicode="&#x131;" horiz-adv-x="379" d="M143 920h94v-920h-94v920z" />
<glyph unicode="&#x134;" horiz-adv-x="831" d="M599 325v923h98v-923q0 -154 -94 -248t-239 -94t-237.5 94t-92.5 248v32h98v-32q0 -104 62.5 -175.5t170.5 -71.5t171 71.5t63 175.5zM693 1522l223 -194h-129l-141 112l-140 -112h-128l222 194h93z" />
<glyph unicode="&#x135;" horiz-adv-x="379" d="M143 -144v1064h94v-1064q0 -37 -5.5 -64.5t-18 -51t-34 -38t-55 -22.5t-78.5 -8h-17v91h17q58 0 77.5 20.5t19.5 72.5zM344 1017l-155 148l-155 -148h-114l223 231h92l223 -231h-114z" />
<glyph unicode="&#x136;" horiz-adv-x="1063" d="M250 367v-367h-99v1248h99v-733l621 733h127l-439 -515l485 -733h-117l-434 654zM505 -221v132h131v-132l-37 -132h-87l37 132h-44z" />
<glyph unicode="&#x137;" horiz-adv-x="870" d="M237 1248v-808l442 480h121l-333 -362l378 -558h-112l-332 488l-164 -178v-310h-94v1248h94zM403 -221v132h131v-132l-37 -132h-87l37 132h-44z" />
<glyph unicode="&#x139;" horiz-adv-x="876" d="M250 1248v-1151h591v-97h-690v1248h99zM267 1522h153l-228 -194h-103z" />
<glyph unicode="&#x13a;" horiz-adv-x="379" d="M237 1248v-1248h-94v1248h94zM240 1557h151l-211 -229h-91z" />
<glyph unicode="&#x13b;" horiz-adv-x="876" d="M250 1248v-1151h591v-97h-690v1248h99zM430 -221v132h131v-132l-37 -132h-87l37 132h-44z" />
<glyph unicode="&#x13c;" horiz-adv-x="379" d="M237 1248v-1248h-94v1248h94zM123 -221v132h132v-132l-37 -132h-88l38 132h-45z" />
<glyph unicode="&#x13d;" horiz-adv-x="876" d="M666 1248l-100 -282h-81l49 282h132zM250 1248v-1151h591v-97h-690v1248h99z" />
<glyph unicode="&#x13e;" horiz-adv-x="379" d="M472 1248l-108 -282h-73l49 282h132zM237 1248v-1248h-94v1248h94z" />
<glyph unicode="&#x13f;" horiz-adv-x="876" d="M250 1248v-1151h591v-97h-690v1248h99zM672 750v-155h-99v155h99z" />
<glyph unicode="&#x140;" horiz-adv-x="473" d="M237 1248v-1248h-94v1248h94zM474 700v-155h-95v155h95z" />
<glyph unicode="&#x141;" horiz-adv-x="896" d="M269 1248v-619l296 164v-91l-296 -164v-441h591v-97h-689v483l-125 -68v91l125 67v675h98z" />
<glyph unicode="&#x142;" horiz-adv-x="407" d="M251 1248v-521l114 64v-87l-114 -65v-639h-94v588l-114 -63v88l114 62v573h94z" />
<glyph unicode="&#x143;" horiz-adv-x="1090" d="M939 1248v-1248h-98l-591 1053v-1053h-99v1248h99l591 -1054v1054h98zM613 1522h153l-228 -194h-103z" />
<glyph unicode="&#x144;" horiz-adv-x="977" d="M237 585v-585h-94v920h94v-106q40 63 109.5 96.5t148.5 33.5q52 0 100.5 -11.5t95 -38.5t81 -67t55.5 -102.5t21 -139.5v-585h-95v585q0 122 -72 195t-186 73q-75 0 -133.5 -32t-91.5 -93.5t-33 -142.5zM547 1248h150l-211 -231h-90z" />
<glyph unicode="&#x145;" horiz-adv-x="1090" d="M939 1248v-1248h-98l-591 1053v-1053h-99v1248h99l591 -1054v1054h98zM479 -221v132h132v-132l-38 -132h-87l38 132h-45z" />
<glyph unicode="&#x146;" horiz-adv-x="977" d="M237 585v-585h-94v920h94v-106q40 63 109.5 96.5t148.5 33.5q52 0 100.5 -11.5t95 -38.5t81 -67t55.5 -102.5t21 -139.5v-585h-95v585q0 122 -72 195t-186 73q-75 0 -133.5 -32t-91.5 -93.5t-33 -142.5zM430 -221v132h131v-132l-37 -132h-87l37 132h-44z" />
<glyph unicode="&#x147;" horiz-adv-x="1090" d="M939 1248v-1248h-98l-591 1053v-1053h-99v1248h99l591 -1054v1054h98zM814 1522l-222 -194h-93l-223 194h129l140 -113l141 113h128z" />
<glyph unicode="&#x148;" horiz-adv-x="977" d="M237 585v-585h-94v920h94v-106q40 63 109.5 96.5t148.5 33.5q52 0 100.5 -11.5t95 -38.5t81 -67t55.5 -102.5t21 -139.5v-585h-95v585q0 122 -72 195t-186 73q-75 0 -133.5 -32t-91.5 -93.5t-33 -142.5zM495 1100l156 148h114l-223 -231h-93l-223 231h114z" />
<glyph unicode="&#x14a;" horiz-adv-x="1090" d="M939 1248v-1248q0 -96 -45 -171.5t-120.5 -116t-167.5 -40.5h-61v97h62q105 0 167.5 66.5t66.5 164.5l-591 1053v-1053h-99v1248h99l591 -1054v1054h98z" />
<glyph unicode="&#x14b;" horiz-adv-x="977" d="M753 -144v729q0 122 -72 195t-186 73q-75 0 -133.5 -32t-91.5 -93.5t-33 -142.5v-585h-94v920h94v-106q40 63 109.5 96.5t148.5 33.5q52 0 100.5 -11.5t95 -38.5t81 -67t55.5 -102.5t21 -139.5v-729q0 -31 -3.5 -55t-11.5 -45t-22.5 -36t-35.5 -26t-50 -16.5t-67 -5.5 h-19v91h19q58 0 76.5 20.5t18.5 72.5z" />
<glyph unicode="&#x14c;" horiz-adv-x="1015" d="M901 843v-438q0 -97 -29.5 -176.5t-82 -133.5t-124.5 -83t-156.5 -29t-157 29t-125 83t-82.5 133.5t-30 176.5v438q0 96 30 176t82.5 133.5t125 83t157 29.5t156.5 -29.5t124.5 -83t82 -133.5t29.5 -176zM212 843v-438q0 -81 23.5 -144.5t64 -102.5t93.5 -59.5t115 -20.5 t115 20.5t93.5 59.5t64 102.5t23.5 144.5v438q0 65 -15.5 118.5t-42.5 91.5t-64 64.5t-81 38.5t-93 12q-62 0 -114.5 -20t-93.5 -59t-64.5 -102t-23.5 -144zM766 1379h-515v83h515v-83z" />
<glyph unicode="&#x14d;" horiz-adv-x="940" d="M823 585v-243q0 -77 -21 -139.5t-55.5 -102.5t-81 -67.5t-95 -38.5t-100 -11t-100 11t-95.5 38.5t-81 67.5t-55.5 102.5t-21.5 139.5v243q0 77 21.5 139.5t55.5 102.5t81 67t95.5 38.5t100 11.5t100 -11.5t95 -38.5t81 -67t55.5 -102.5t21 -139.5zM729 342v243 q0 122 -72 195t-186 73t-186.5 -73t-72.5 -195v-243q0 -122 72.5 -195.5t186.5 -73.5t186 73.5t72 195.5zM729 1092h-515v81h515v-81z" />
<glyph unicode="&#x14e;" horiz-adv-x="1015" d="M901 843v-438q0 -97 -29.5 -176.5t-82 -133.5t-124.5 -83t-156.5 -29t-157 29t-125 83t-82.5 133.5t-30 176.5v438q0 96 30 176t82.5 133.5t125 83t157 29.5t156.5 -29.5t124.5 -83t82 -133.5t29.5 -176zM212 843v-438q0 -81 23.5 -144.5t64 -102.5t93.5 -59.5t115 -20.5 t115 20.5t93.5 59.5t64 102.5t23.5 144.5v438q0 65 -15.5 118.5t-42.5 91.5t-64 64.5t-81 38.5t-93 12q-62 0 -114.5 -20t-93.5 -59t-64.5 -102t-23.5 -144zM565 1418q44 0 73.5 29.5t29.5 74.5h91q0 -81 -57 -137.5t-137 -56.5h-114q-81 0 -137.5 56.5t-56.5 137.5h90 q0 -45 29.5 -74.5t74.5 -29.5h114z" />
<glyph unicode="&#x14f;" horiz-adv-x="940" d="M823 585v-243q0 -77 -21 -139.5t-55.5 -102.5t-81 -67.5t-95 -38.5t-100 -11t-100 11t-95.5 38.5t-81 67.5t-55.5 102.5t-21.5 139.5v243q0 77 21.5 139.5t55.5 102.5t81 67t95.5 38.5t100 11.5t100 -11.5t95 -38.5t81 -67t55.5 -102.5t21 -139.5zM729 342v243 q0 122 -72 195t-186 73t-186.5 -73t-72.5 -195v-243q0 -122 72.5 -195.5t186.5 -73.5t186 73.5t72 195.5zM449 1105h43q58 0 100 42t42 101h87q0 -95 -67.5 -163t-161.5 -68h-43q-95 0 -162.5 68t-67.5 163h87q0 -59 42 -101t101 -42z" />
<glyph unicode="&#x150;" horiz-adv-x="1015" d="M901 843v-438q0 -97 -29.5 -176.5t-82 -133.5t-124.5 -83t-156.5 -29t-157 29t-125 83t-82.5 133.5t-30 176.5v438q0 96 30 176t82.5 133.5t125 83t157 29.5t156.5 -29.5t124.5 -83t82 -133.5t29.5 -176zM212 843v-438q0 -81 23.5 -144.5t64 -102.5t93.5 -59.5t115 -20.5 t115 20.5t93.5 59.5t64 102.5t23.5 144.5v438q0 65 -15.5 118.5t-42.5 91.5t-64 64.5t-81 38.5t-93 12q-62 0 -114.5 -20t-93.5 -59t-64.5 -102t-23.5 -144zM465 1522h144l-210 -194h-95zM757 1522h144l-209 -194h-95z" />
<glyph unicode="&#x151;" horiz-adv-x="940" d="M823 585v-243q0 -77 -21 -139.5t-55.5 -102.5t-81 -67.5t-95 -38.5t-100 -11t-100 11t-95.5 38.5t-81 67.5t-55.5 102.5t-21.5 139.5v243q0 77 21.5 139.5t55.5 102.5t81 67t95.5 38.5t100 11.5t100 -11.5t95 -38.5t81 -67t55.5 -102.5t21 -139.5zM729 342v243 q0 122 -72 195t-186 73t-186.5 -73t-72.5 -195v-243q0 -122 72.5 -195.5t186.5 -73.5t186 73.5t72 195.5zM391 1248h140l-193 -231h-81zM682 1248h141l-192 -231h-82z" />
<glyph unicode="&#x152;" horiz-adv-x="1615" d="M212 843v-438q0 -81 23.5 -144.5t64 -102.5t93.5 -59.5t115 -20.5t115 20.5t93.5 59.5t64 102.5t23.5 144.5v438q0 65 -15.5 118.5t-42.5 91.5t-64 64.5t-81 38.5t-93 12q-62 0 -114.5 -20t-93.5 -59t-64.5 -102t-23.5 -144zM804 0v123q-43 -66 -121.5 -103t-174.5 -37 q-84 0 -156.5 29t-125 83t-82.5 133.5t-30 176.5v438q0 96 30 176t82.5 133.5t125 83t156.5 29.5q96 0 174.5 -37.5t121.5 -103.5v124h689v-97h-592v-472h592v-94h-592v-488h592v-97h-689z" />
<glyph unicode="&#x153;" horiz-adv-x="1542" d="M729 342v243q0 122 -72 195t-186 73t-186.5 -73t-72.5 -195v-243q0 -122 72.5 -195.5t186.5 -73.5t186 73.5t72 195.5zM823 585v-43h517v43q0 122 -72.5 195t-186 73t-186 -73t-72.5 -195zM471 -17q-52 0 -100.5 11t-95.5 38.5t-81 67.5t-55.5 102.5t-21.5 139.5v243 q0 77 21.5 139.5t55.5 102.5t81 67t95.5 38.5t100.5 11.5q65 0 124.5 -21t106 -61.5t73.5 -95.5q41 83 123.5 130.5t182.5 47.5q43 0 84 -8.5t81.5 -25.5t74 -46t59.5 -67.5t40.5 -93t14.5 -118.5v-134h-612v-109q0 -122 72.5 -195.5t185.5 -73.5q66 0 119.5 25.5t88.5 73.5 t46 113h96q-7 -64 -31 -116.5t-58.5 -86.5t-78.5 -57t-89 -32.5t-93 -9.5q-100 0 -182.5 47t-123.5 130q-41 -82 -123 -129.5t-181 -47.5z" />
<glyph unicode="&#x154;" horiz-adv-x="1018" d="M503 585h-253v-585h-99v1248h425q153 0 247.5 -94.5t94.5 -239.5q0 -134 -83.5 -225t-221.5 -103l346 -586h-112zM250 679h326q104 0 174 62.5t70 172.5q0 74 -34 129t-88.5 81.5t-121.5 26.5h-326v-472zM542 1522h153l-228 -194h-103z" />
<glyph unicode="&#x155;" horiz-adv-x="561" d="M522 845h-27q-114 0 -186 -73.5t-72 -195.5v-576h-94v920h94v-114q40 62 109.5 95.5t148.5 33.5h27v-90zM383 1248h149l-209 -231h-92z" />
<glyph unicode="&#x156;" horiz-adv-x="1018" d="M503 585h-253v-585h-99v1248h425q153 0 247.5 -94.5t94.5 -239.5q0 -134 -83.5 -225t-221.5 -103l346 -586h-112zM250 679h326q104 0 174 62.5t70 172.5q0 74 -34 129t-88.5 81.5t-121.5 26.5h-326v-472zM463 -221v132h132v-132l-37 -132h-87l37 132h-45z" />
<glyph unicode="&#x157;" horiz-adv-x="561" d="M522 845h-27q-114 0 -186 -73.5t-72 -195.5v-576h-94v920h94v-114q40 62 109.5 95.5t148.5 33.5h27v-90zM123 -221v132h132v-132l-37 -132h-88l38 132h-45z" />
<glyph unicode="&#x158;" horiz-adv-x="1018" d="M503 585h-253v-585h-99v1248h425q153 0 247.5 -94.5t94.5 -239.5q0 -134 -83.5 -225t-221.5 -103l346 -586h-112zM250 679h326q104 0 174 62.5t70 172.5q0 74 -34 129t-88.5 81.5t-121.5 26.5h-326v-472zM770 1522l-223 -194h-93l-223 194h129l140 -113l141 113h129z" />
<glyph unicode="&#x159;" horiz-adv-x="561" d="M522 845h-27q-114 0 -186 -73.5t-72 -195.5v-576h-94v920h94v-114q40 62 109.5 95.5t148.5 33.5h27v-90zM331 1100l155 148h114l-222 -231h-93l-222 231h114z" />
<glyph unicode="&#x15a;" horiz-adv-x="916" d="M445 1168q-121 0 -187.5 -66t-66.5 -168q0 -89 46 -150t130 -84l223 -61q107 -28 175 -111t68 -210q0 -56 -13 -105t-42 -91.5t-71 -73.5t-102.5 -48t-133.5 -17q-168 0 -276.5 100.5t-121.5 273.5h98q8 -90 51 -154t107 -94.5t142 -30.5q127 0 196 61.5t69 178.5 q0 79 -45.5 140.5t-139.5 86.5l-216 59q-116 31 -179.5 119.5t-63.5 210.5q0 69 23.5 129t67.5 105t111.5 71t150.5 26q150 0 246 -84.5t123 -236.5h-98q-17 75 -54 125.5t-91.5 74.5t-125.5 24zM520 1522h153l-228 -194h-103z" />
<glyph unicode="&#x15b;" horiz-adv-x="862" d="M753 656h-95q-9 91 -76 144t-165 53q-60 0 -109 -15.5t-82.5 -52.5t-33.5 -92q0 -63 37.5 -100t121.5 -55l176 -39q131 -29 190.5 -93t59.5 -180q0 -77 -42 -132.5t-115 -83t-171 -27.5q-72 0 -134.5 17t-114 52.5t-84 95.5t-38.5 139h97q6 -56 32.5 -99t65.5 -67t84 -36 t94 -12q63 0 114 16.5t84 52t33 86.5q0 140 -157 173l-206 46q-102 23 -161.5 83t-59.5 163q0 80 47 138t118 85.5t155 27.5q88 0 160 -31t120 -97t55 -160zM479 1248h150l-211 -231h-90z" />
<glyph unicode="&#x15c;" horiz-adv-x="916" d="M445 1168q-121 0 -187.5 -66t-66.5 -168q0 -89 46 -150t130 -84l223 -61q107 -28 175 -111t68 -210q0 -56 -13 -105t-42 -91.5t-71 -73.5t-102.5 -48t-133.5 -17q-168 0 -276.5 100.5t-121.5 273.5h98q8 -90 51 -154t107 -94.5t142 -30.5q127 0 196 61.5t69 178.5 q0 79 -45.5 140.5t-139.5 86.5l-216 59q-116 31 -179.5 119.5t-63.5 210.5q0 69 23.5 129t67.5 105t111.5 71t150.5 26q150 0 246 -84.5t123 -236.5h-98q-17 75 -54 125.5t-91.5 74.5t-125.5 24zM499 1522l222 -194h-128l-141 112l-141 -112h-127l222 194h93z" />
<glyph unicode="&#x15d;" horiz-adv-x="862" d="M753 656h-95q-9 91 -76 144t-165 53q-60 0 -109 -15.5t-82.5 -52.5t-33.5 -92q0 -63 37.5 -100t121.5 -55l176 -39q131 -29 190.5 -93t59.5 -180q0 -77 -42 -132.5t-115 -83t-171 -27.5q-72 0 -134.5 17t-114 52.5t-84 95.5t-38.5 139h97q6 -56 32.5 -99t65.5 -67t84 -36 t94 -12q63 0 114 16.5t84 52t33 86.5q0 140 -157 173l-206 46q-102 23 -161.5 83t-59.5 163q0 80 47 138t118 85.5t155 27.5q88 0 160 -31t120 -97t55 -160zM583 1017l-155 148l-156 -148h-114l223 231h93l223 -231h-114z" />
<glyph unicode="&#x15e;" horiz-adv-x="916" d="M358 -282l87 265q-158 8 -259 107.5t-113 266.5h98q8 -90 51 -154t107 -94.5t142 -30.5q127 0 196 61.5t69 178.5q0 79 -45.5 140.5t-139.5 86.5l-216 59q-116 31 -179.5 119.5t-63.5 210.5q0 69 23.5 129t67.5 105t111.5 71t150.5 26q150 0 246 -84.5t123 -236.5h-98 q-17 75 -54 125.5t-91.5 74.5t-125.5 24q-121 0 -187.5 -66t-66.5 -168q0 -89 46 -150t130 -84l223 -61q107 -28 175 -111t68 -210q0 -84 -29.5 -151.5t-94.5 -116t-160 -62.5l-64 -270h-127z" />
<glyph unicode="&#x15f;" horiz-adv-x="862" d="M335 -282l97 265q-70 2 -129.5 20t-109 53.5t-80 94.5t-35.5 136h97q6 -56 32.5 -99t65.5 -67t84 -36t94 -12q63 0 114 16.5t84 52t33 86.5q0 140 -157 173l-206 46q-102 23 -161.5 83t-59.5 163q0 80 47 138t118 85.5t155 27.5q88 0 160 -31t120 -97t55 -160h-95 q-9 91 -76 144t-165 53q-60 0 -109 -15.5t-82.5 -52.5t-33.5 -92q0 -63 37.5 -100t121.5 -55l176 -39q131 -29 190.5 -93t59.5 -180q0 -102 -68.5 -163.5t-186.5 -74.5l-64 -270h-123z" />
<glyph unicode="&#x160;" horiz-adv-x="916" d="M445 1168q-121 0 -187.5 -66t-66.5 -168q0 -89 46 -150t130 -84l223 -61q107 -28 175 -111t68 -210q0 -56 -13 -105t-42 -91.5t-71 -73.5t-102.5 -48t-133.5 -17q-168 0 -276.5 100.5t-121.5 273.5h98q8 -90 51 -154t107 -94.5t142 -30.5q127 0 196 61.5t69 178.5 q0 79 -45.5 140.5t-139.5 86.5l-216 59q-116 31 -179.5 119.5t-63.5 210.5q0 69 23.5 129t67.5 105t111.5 71t150.5 26q150 0 246 -84.5t123 -236.5h-98q-17 75 -54 125.5t-91.5 74.5t-125.5 24zM721 1522l-222 -194h-93l-222 194h127l141 -113l141 113h128z" />
<glyph unicode="&#x161;" horiz-adv-x="862" d="M753 656h-95q-9 91 -76 144t-165 53q-60 0 -109 -15.5t-82.5 -52.5t-33.5 -92q0 -63 37.5 -100t121.5 -55l176 -39q131 -29 190.5 -93t59.5 -180q0 -77 -42 -132.5t-115 -83t-171 -27.5q-72 0 -134.5 17t-114 52.5t-84 95.5t-38.5 139h97q6 -56 32.5 -99t65.5 -67t84 -36 t94 -12q63 0 114 16.5t84 52t33 86.5q0 140 -157 173l-206 46q-102 23 -161.5 83t-59.5 163q0 80 47 138t118 85.5t155 27.5q88 0 160 -31t120 -97t55 -160zM428 1100l155 148h114l-223 -231h-93l-223 231h114z" />
<glyph unicode="&#x162;" horiz-adv-x="856" d="M478 1151v-1151h-99v1151h-345v97h789v-97h-345zM362 -221v132h131v-132l-37 -132h-87l37 132h-44z" />
<glyph unicode="&#x163;" horiz-adv-x="585" d="M280 828v-644q0 -27 4 -43t14 -28.5t29 -17.5t49 -5h130v-90h-130q-57 0 -94.5 12t-58.5 36.5t-29.5 56.5t-8.5 79v644h-130v92h130v208h95v-208h226v-92h-226zM280 -221v132h132v-132l-38 -132h-87l38 132h-45z" />
<glyph unicode="&#x164;" horiz-adv-x="856" d="M478 1151v-1151h-99v1151h-345v97h789v-97h-345zM697 1522l-223 -194h-93l-223 194h129l141 -113l140 113h129z" />
<glyph unicode="&#x165;" horiz-adv-x="585" d="M551 1248l-93 -231h-73l33 231h133zM280 828v-644q0 -27 4 -43t14 -28.5t29 -17.5t49 -5h130v-90h-130q-57 0 -94.5 12t-58.5 36.5t-29.5 56.5t-8.5 79v644h-130v92h130v208h95v-208h226v-92h-226z" />
<glyph unicode="&#x166;" horiz-adv-x="856" d="M478 1151v-486h221v-80h-221v-585h-99v585h-221v80h221v486h-345v97h789v-97h-345z" />
<glyph unicode="&#x167;" horiz-adv-x="585" d="M280 828v-263h226v-77h-226v-304q0 -27 4 -43t14 -28.5t29 -17.5t49 -5h130v-90h-130q-57 0 -94.5 12t-58.5 36.5t-29.5 56.5t-8.5 79v304h-130v77h130v263h-130v92h130v208h95v-208h226v-92h-226z" />
<glyph unicode="&#x168;" horiz-adv-x="1057" d="M136 405v843h97v-843q0 -81 23.5 -144.5t64 -102.5t93.5 -59.5t115 -20.5t115 20.5t93.5 59.5t64 102.5t23.5 144.5v843h98v-843q0 -97 -30 -176.5t-82.5 -133.5t-124.5 -83t-157 -29t-157 29t-124.5 83t-82 133.5t-29.5 176.5zM437 1506q40 0 80 -22l59 -30 q35 -18 51 -18q48 0 79 66h100q-16 -50 -38 -83t-48 -48t-48 -20.5t-48 -5.5q-40 0 -80 22l-59 30q-35 18 -52 18q-47 0 -78 -67h-100q15 50 37 83.5t48 48.5t48.5 20.5t48.5 5.5z" />
<glyph unicode="&#x169;" horiz-adv-x="965" d="M729 342v578h94v-920h-94v112q-39 -61 -109.5 -95t-141.5 -34q-50 0 -97.5 11t-93.5 38.5t-80 67.5t-55.5 102.5t-21.5 139.5v578h94v-578q0 -122 72 -195.5t182 -73.5q107 0 179 74t72 195zM665 1210h87q-15 -49 -37.5 -82.5t-48.5 -48.5t-48 -20.5t-48 -5.5 q-40 0 -80 21l-58 34q-31 18 -60 18q-51 0 -83 -70h-88q15 50 37 83t48.5 48.5t48.5 21t48 5.5q40 0 80 -22l59 -34q30 -17 59 -17q52 0 84 69z" />
<glyph unicode="&#x16a;" horiz-adv-x="1057" d="M136 405v843h97v-843q0 -81 23.5 -144.5t64 -102.5t93.5 -59.5t115 -20.5t115 20.5t93.5 59.5t64 102.5t23.5 144.5v843h98v-843q0 -97 -30 -176.5t-82.5 -133.5t-124.5 -83t-157 -29t-157 29t-124.5 83t-82 133.5t-29.5 176.5zM787 1379h-515v83h515v-83z" />
<glyph unicode="&#x16b;" horiz-adv-x="965" d="M729 342v578h94v-920h-94v112q-39 -61 -109.5 -95t-141.5 -34q-50 0 -97.5 11t-93.5 38.5t-80 67.5t-55.5 102.5t-21.5 139.5v578h94v-578q0 -122 72 -195.5t182 -73.5q107 0 179 74t72 195zM734 1092h-515v81h515v-81z" />
<glyph unicode="&#x16c;" horiz-adv-x="1057" d="M136 405v843h97v-843q0 -81 23.5 -144.5t64 -102.5t93.5 -59.5t115 -20.5t115 20.5t93.5 59.5t64 102.5t23.5 144.5v843h98v-843q0 -97 -30 -176.5t-82.5 -133.5t-124.5 -83t-157 -29t-157 29t-124.5 83t-82 133.5t-29.5 176.5zM586 1418q45 0 74.5 29.5t29.5 74.5h90 q0 -81 -56.5 -137.5t-137.5 -56.5h-114q-80 0 -137 56.5t-57 137.5h91q0 -45 29.5 -74.5t73.5 -29.5h114z" />
<glyph unicode="&#x16d;" horiz-adv-x="965" d="M729 342v578h94v-920h-94v112q-39 -61 -109.5 -95t-141.5 -34q-50 0 -97.5 11t-93.5 38.5t-80 67.5t-55.5 102.5t-21.5 139.5v578h94v-578q0 -122 72 -195.5t182 -73.5q107 0 179 74t72 195zM454 1105h43q38 0 71 19t52 52t19 72h88q0 -95 -68 -163t-162 -68h-43 q-94 0 -162 68t-68 163h87q0 -59 42 -101t101 -42z" />
<glyph unicode="&#x16e;" horiz-adv-x="1057" d="M136 405v843h97v-843q0 -81 23.5 -144.5t64 -102.5t93.5 -59.5t115 -20.5t115 20.5t93.5 59.5t64 102.5t23.5 144.5v843h98v-843q0 -97 -30 -176.5t-82.5 -133.5t-124.5 -83t-157 -29t-157 29t-124.5 83t-82 133.5t-29.5 176.5zM398 1423q0 55 38 94.5t93 39.5 t94.5 -39.5t39.5 -94.5q0 -54 -39.5 -92.5t-94.5 -38.5t-93 38.5t-38 92.5zM478 1423q0 -21 14.5 -36t36.5 -15t38 15t16 36q0 14 -7.5 26.5t-20 20t-26.5 7.5q-21 0 -36 -16t-15 -38z" />
<glyph unicode="&#x16f;" horiz-adv-x="965" d="M729 342v578h94v-920h-94v112q-39 -61 -109.5 -95t-141.5 -34q-50 0 -97.5 11t-93.5 38.5t-80 67.5t-55.5 102.5t-21.5 139.5v578h94v-578q0 -122 72 -195.5t182 -73.5q107 0 179 74t72 195zM344 1131q0 36 17.5 67t48 49t66.5 18t66.5 -18t48.5 -49t18 -67 q0 -55 -39 -93t-94 -38t-93.5 38t-38.5 93zM420 1131q0 -15 7.5 -27.5t20.5 -20t28 -7.5t28 7.5t20.5 20t7.5 27.5q0 23 -16.5 40t-39.5 17t-39.5 -17t-16.5 -40z" />
<glyph unicode="&#x170;" horiz-adv-x="1057" d="M136 405v843h97v-843q0 -81 23.5 -144.5t64 -102.5t93.5 -59.5t115 -20.5t115 20.5t93.5 59.5t64 102.5t23.5 144.5v843h98v-843q0 -97 -30 -176.5t-82.5 -133.5t-124.5 -83t-157 -29t-157 29t-124.5 83t-82 133.5t-29.5 176.5zM463 1522h144l-209 -194h-95zM755 1522 h145l-210 -194h-95z" />
<glyph unicode="&#x171;" horiz-adv-x="965" d="M729 342v578h94v-920h-94v112q-39 -61 -109.5 -95t-141.5 -34q-50 0 -97.5 11t-93.5 38.5t-80 67.5t-55.5 102.5t-21.5 139.5v578h94v-578q0 -122 72 -195.5t182 -73.5q107 0 179 74t72 195zM391 1248h140l-193 -231h-81zM682 1248h141l-192 -231h-82z" />
<glyph unicode="&#x172;" horiz-adv-x="1057" d="M136 405v843h97v-843q0 -81 23.5 -144.5t64 -102.5t93.5 -59.5t115 -20.5t115 20.5t93.5 59.5t64 102.5t23.5 144.5v843h98v-843q0 -241 -170 -359q-27 -19 -42 -30t-43 -32.5t-44.5 -38t-34.5 -37.5t-26.5 -41.5t-8.5 -39.5q0 -73 72 -73q29 0 74 22v-89 q-37 -24 -83 -24q-74 0 -117.5 42t-43.5 111q0 103 116 168q-7 0 -21.5 -0.5t-21.5 -0.5q-85 0 -157 29t-124.5 83t-82 133.5t-29.5 176.5z" />
<glyph unicode="&#x173;" horiz-adv-x="965" d="M729 0v112q-39 -61 -109.5 -95t-141.5 -34q-50 0 -97.5 11t-93.5 38.5t-80 67.5t-55.5 102.5t-21.5 139.5v578h94v-578q0 -122 72 -195.5t182 -73.5q107 0 179 74t72 195v578h94v-920q-34 -25 -54.5 -41.5t-44.5 -40t-35.5 -46t-11.5 -45.5q0 -39 20 -58t51 -19 q30 0 75 22v-85q-38 -24 -83 -24q-49 0 -84.5 19t-54 53.5t-18.5 80.5q0 113 146 184z" />
<glyph unicode="&#x174;" horiz-adv-x="1275" d="M894 0l-256 907l-257 -907h-94l-230 1248h96l192 -1054l248 875h89l248 -875l192 1054h97l-230 -1248h-95zM684 1522l223 -194h-128l-141 112l-141 -112h-128l223 194h92z" />
<glyph unicode="&#x175;" horiz-adv-x="1204" d="M544 920h117l212 -790l201 790h99l-243 -920h-112l-216 807l-216 -807h-112l-242 920h98l201 -790zM757 1017l-155 148l-155 -148h-114l223 231h92l223 -231h-114z" />
<glyph unicode="&#x176;" horiz-adv-x="967" d="M954 1248l-422 -729v-519h-97v519l-421 729h109l362 -628l360 628h109zM529 1522l223 -194h-128l-141 112l-141 -112h-128l223 194h92z" />
<glyph unicode="&#x177;" horiz-adv-x="804" d="M786 920l-383 -1064q-1 -4 -4 -10q-10 -28 -15 -41.5t-15.5 -36t-19 -33.5t-23 -25.5t-31 -21t-39 -11.5t-49.5 -5h-47v91h49q24 0 40.5 6.5t28 22.5t17.5 29t16 42l46 125l-337 932h101l282 -797l281 797h102zM558 1017l-155 148l-155 -148h-114l223 231h92l223 -231 h-114z" />
<glyph unicode="&#x178;" horiz-adv-x="967" d="M954 1248l-422 -729v-519h-97v519l-421 729h109l362 -628l360 628h109zM344 1502v-155h-98v155h98zM719 1502v-155h-97v155h97z" />
<glyph unicode="&#x179;" horiz-adv-x="956" d="M875 0h-797v97l677 1054h-668v97h779v-97l-677 -1054h686v-97zM544 1522h153l-228 -194h-104z" />
<glyph unicode="&#x17a;" horiz-adv-x="849" d="M760 828l-568 -738h581v-90h-695v90l570 738h-558v92h670v-92zM478 1248h149l-210 -231h-91z" />
<glyph unicode="&#x17b;" horiz-adv-x="956" d="M875 0h-797v97l677 1054h-668v97h779v-97l-677 -1054h686v-97zM525 1502v-155h-97v155h97z" />
<glyph unicode="&#x17c;" horiz-adv-x="849" d="M760 828l-568 -738h581v-90h-695v90l570 738h-558v92h670v-92zM474 1210v-156h-95v156h95z" />
<glyph unicode="&#x17d;" horiz-adv-x="956" d="M875 0h-797v97l677 1054h-668v97h779v-97l-677 -1054h686v-97zM745 1522l-223 -194h-92l-223 194h128l141 -113l141 113h128z" />
<glyph unicode="&#x17e;" horiz-adv-x="849" d="M760 828l-568 -738h581v-90h-695v90l570 738h-558v92h670v-92zM425 1100l156 148h114l-223 -231h-93l-222 231h114z" />
<glyph unicode="&#x218;" horiz-adv-x="916" d="M445 1168q-121 0 -187.5 -66t-66.5 -168q0 -89 46 -150t130 -84l223 -61q107 -28 175 -111t68 -210q0 -56 -13 -105t-42 -91.5t-71 -73.5t-102.5 -48t-133.5 -17q-168 0 -276.5 100.5t-121.5 273.5h98q8 -90 51 -154t107 -94.5t142 -30.5q127 0 196 61.5t69 178.5 q0 79 -45.5 140.5t-139.5 86.5l-216 59q-116 31 -179.5 119.5t-63.5 210.5q0 69 23.5 129t67.5 105t111.5 71t150.5 26q150 0 246 -84.5t123 -236.5h-98q-17 75 -54 125.5t-91.5 74.5t-125.5 24zM386 -221v132h133v-132l-38 -132h-87l38 132h-46z" />
<glyph unicode="&#x219;" horiz-adv-x="862" d="M753 656h-95q-9 91 -76 144t-165 53q-60 0 -109 -15.5t-82.5 -52.5t-33.5 -92q0 -63 37.5 -100t121.5 -55l176 -39q131 -29 190.5 -93t59.5 -180q0 -77 -42 -132.5t-115 -83t-171 -27.5q-72 0 -134.5 17t-114 52.5t-84 95.5t-38.5 139h97q6 -56 32.5 -99t65.5 -67t84 -36 t94 -12q63 0 114 16.5t84 52t33 86.5q0 140 -157 173l-206 46q-102 23 -161.5 83t-59.5 163q0 80 47 138t118 85.5t155 27.5q88 0 160 -31t120 -97t55 -160zM362 -221v132h131v-132l-37 -132h-87l37 132h-44z" />
<glyph unicode="&#x21a;" horiz-adv-x="856" d="M478 1151v-1151h-99v1151h-345v97h789v-97h-345zM362 -221v132h131v-132l-37 -132h-87l37 132h-44z" />
<glyph unicode="&#x21b;" horiz-adv-x="585" d="M280 828v-644q0 -27 4 -43t14 -28.5t29 -17.5t49 -5h130v-90h-130q-57 0 -94.5 12t-58.5 36.5t-29.5 56.5t-8.5 79v644h-130v92h130v208h95v-208h226v-92h-226zM280 -221v132h132v-132l-38 -132h-87l38 132h-45z" />
<glyph unicode="&#x232;" horiz-adv-x="967" d="M954 1248l-422 -729v-519h-97v519l-421 729h109l362 -628l360 628h109zM741 1379h-515v83h515v-83z" />
<glyph unicode="&#x233;" horiz-adv-x="804" d="M786 920l-383 -1064q-1 -4 -4 -10q-10 -28 -15 -41.5t-15.5 -36t-19 -33.5t-23 -25.5t-31 -21t-39 -11.5t-49.5 -5h-47v91h49q24 0 40.5 6.5t28 22.5t17.5 29t16 42l46 125l-337 932h101l282 -797l281 797h102zM661 1092h-515v81h515v-81z" />
<glyph unicode="&#x237;" horiz-adv-x="379" d="M143 -144v1064h94v-1064q0 -37 -5.5 -64.5t-18 -51t-34 -38t-55 -22.5t-78.5 -8h-17v91h17q58 0 77.5 20.5t19.5 72.5z" />
<glyph unicode="&#x2c6;" horiz-adv-x="762" d="M536 1017l-155 148l-155 -148h-114l223 231h93l223 -231h-115z" />
<glyph unicode="&#x2c7;" horiz-adv-x="762" d="M381 1100l155 148h115l-223 -231h-93l-223 231h114z" />
<glyph unicode="&#x2d8;" horiz-adv-x="694" d="M326 1105h43q59 0 101 42t42 101h87q0 -95 -68 -163t-162 -68h-43q-94 0 -161.5 68t-67.5 163h87q0 -59 42 -101t100 -42z" />
<glyph unicode="&#x2d9;" horiz-adv-x="304" d="M199 1210v-156h-94v156h94z" />
<glyph unicode="&#x2da;" horiz-adv-x="454" d="M95 1131q0 36 17.5 67t47.5 49t66 18t67 -18t49 -49t18 -67q0 -55 -39.5 -93t-94.5 -38t-93 38t-38 93zM171 1131q0 -23 16 -39t39 -16t40.5 16t17.5 39t-17.5 40t-40.5 17q-22 0 -38.5 -17t-16.5 -40z" />
<glyph unicode="&#x2db;" horiz-adv-x="409" d="M235 0h95q-35 -25 -55.5 -41.5t-44.5 -40t-35 -46t-11 -45.5q0 -39 19.5 -58t51.5 -19q30 0 75 22v-85q-38 -24 -84 -24q-73 0 -115 42t-42 111q0 113 146 184z" />
<glyph unicode="&#x2dc;" horiz-adv-x="785" d="M581 1210h87q-15 -49 -37 -82.5t-48 -48.5t-48.5 -20.5t-48.5 -5.5q-40 0 -80 21l-59 34q-30 18 -58 18q-52 0 -84 -70h-88q16 50 38 83t48 48.5t48 21t48 5.5q40 0 80 -22l59 -34q31 -17 59 -17q52 0 84 69z" />
<glyph unicode="&#x2dd;" horiz-adv-x="796" d="M260 1248h141l-192 -231h-83zM552 1248h141l-193 -231h-82z" />
<glyph unicode="&#x32c;" horiz-adv-x="762" d="M381 -148l155 148h115l-223 -230h-93l-223 230h114z" />
<glyph unicode="&#x394;" horiz-adv-x="1004" d="M971 0h-937l424 1248h89zM838 97l-335 988l-338 -988h673z" />
<glyph unicode="&#x3a9;" horiz-adv-x="1000" d="M143 0v97h170v106q-97 49 -151.5 147t-54.5 233v260q0 96 29.5 176t82 133.5t125 83t157 29.5t157 -29.5t125 -83t82 -133.5t29.5 -176v-260q0 -89 -25.5 -164.5t-71.5 -129.5t-109 -86v-106h171v-97h-269v267q93 25 149.5 106t56.5 210v260q0 65 -15 118.5t-42 91.5 t-64.5 64.5t-81.5 38.5t-93 12q-62 0 -114.5 -20t-93 -59t-64 -102t-23.5 -144v-260q0 -129 56.5 -210t150.5 -106v-267h-269z" />
<glyph unicode="&#x3bc;" horiz-adv-x="976" d="M488 73q107 0 179.5 74t72.5 195v578h93v-920h-93v112q-27 -41 -69.5 -71t-89.5 -44t-93 -14q-72 0 -142 34t-109 95v-440h-94v1248h94v-578q0 -121 72 -195t179 -74z" />
<glyph unicode="&#x3c0;" horiz-adv-x="1083" d="M189 828h-130v92h966v-92h-131v-828h-94v828h-516v-828h-95v828z" />
<glyph unicode="&#x1e80;" horiz-adv-x="1275" d="M894 0l-256 907l-257 -907h-94l-230 1248h96l192 -1054l248 875h89l248 -875l192 1054h97l-230 -1248h-95zM417 1522h153l178 -194h-103z" />
<glyph unicode="&#x1e81;" horiz-adv-x="1204" d="M544 920h117l212 -790l201 790h99l-243 -920h-112l-216 807l-216 -807h-112l-242 920h98l201 -790zM401 1248h150l151 -231h-91z" />
<glyph unicode="&#x1e82;" horiz-adv-x="1275" d="M894 0l-256 907l-257 -907h-94l-230 1248h96l192 -1054l248 875h89l248 -875l192 1054h97l-230 -1248h-95zM706 1522h153l-228 -194h-104z" />
<glyph unicode="&#x1e83;" horiz-adv-x="1204" d="M544 920h117l212 -790l201 790h99l-243 -920h-112l-216 807l-216 -807h-112l-242 920h98l201 -790zM654 1248h150l-211 -231h-90z" />
<glyph unicode="&#x1e84;" horiz-adv-x="1275" d="M894 0l-256 907l-257 -907h-94l-230 1248h96l192 -1054l248 875h89l248 -875l192 1054h97l-230 -1248h-95zM499 1502v-155h-98v155h98zM875 1502v-155h-98v155h98z" />
<glyph unicode="&#x1e85;" horiz-adv-x="1204" d="M544 920h117l212 -790l201 790h99l-243 -920h-112l-216 807l-216 -807h-112l-242 920h98l201 -790zM459 1210v-156h-94v156h94zM840 1210v-156h-95v156h95z" />
<glyph unicode="&#x1eca;" horiz-adv-x="400" d="M250 1248v-1248h-99v1248h99zM250 -89v-155h-99v155h99z" />
<glyph unicode="&#x1ecb;" horiz-adv-x="379" d="M143 920h94v-920h-94v920zM237 1248v-156h-94v156h94zM237 -89v-155h-94v155h94z" />
<glyph unicode="&#x1ecc;" horiz-adv-x="1015" d="M901 843v-438q0 -97 -29.5 -176.5t-82 -133.5t-124.5 -83t-156.5 -29t-157 29t-125 83t-82.5 133.5t-30 176.5v438q0 96 30 176t82.5 133.5t125 83t157 29.5t156.5 -29.5t124.5 -83t82 -133.5t29.5 -176zM212 843v-438q0 -81 23.5 -144.5t64 -102.5t93.5 -59.5t115 -20.5 t115 20.5t93.5 59.5t64 102.5t23.5 144.5v438q0 65 -15.5 118.5t-42.5 91.5t-64 64.5t-81 38.5t-93 12q-62 0 -114.5 -20t-93.5 -59t-64.5 -102t-23.5 -144zM558 -89v-155h-99v155h99z" />
<glyph unicode="&#x1ecd;" horiz-adv-x="940" d="M823 585v-243q0 -77 -21 -139.5t-55.5 -102.5t-81 -67.5t-95 -38.5t-100 -11t-100 11t-95.5 38.5t-81 67.5t-55.5 102.5t-21.5 139.5v243q0 77 21.5 139.5t55.5 102.5t81 67t95.5 38.5t100 11.5t100 -11.5t95 -38.5t81 -67t55.5 -102.5t21 -139.5zM729 342v243 q0 122 -72 195t-186 73t-186.5 -73t-72.5 -195v-243q0 -122 72.5 -195.5t186.5 -73.5t186 73.5t72 195.5zM519 -89v-155h-95v155h95z" />
<glyph unicode="&#x1ee4;" horiz-adv-x="1057" d="M136 405v843h97v-843q0 -81 23.5 -144.5t64 -102.5t93.5 -59.5t115 -20.5t115 20.5t93.5 59.5t64 102.5t23.5 144.5v843h98v-843q0 -97 -30 -176.5t-82.5 -133.5t-124.5 -83t-157 -29t-157 29t-124.5 83t-82 133.5t-29.5 176.5zM579 -89v-155h-98v155h98z" />
<glyph unicode="&#x1ee5;" horiz-adv-x="965" d="M729 342v578h94v-920h-94v112q-39 -61 -109.5 -95t-141.5 -34q-50 0 -97.5 11t-93.5 38.5t-80 67.5t-55.5 102.5t-21.5 139.5v578h94v-578q0 -122 72 -195.5t182 -73.5q107 0 179 74t72 195zM524 -89v-155h-94v155h94z" />
<glyph unicode="&#x1ef2;" horiz-adv-x="967" d="M954 1248l-422 -729v-519h-97v519l-421 729h109l362 -628l360 628h109zM262 1522h153l178 -194h-103z" />
<glyph unicode="&#x1ef3;" horiz-adv-x="804" d="M786 920l-383 -1064q-1 -4 -4 -10q-10 -28 -15 -41.5t-15.5 -36t-19 -33.5t-23 -25.5t-31 -21t-39 -11.5t-49.5 -5h-47v91h49q24 0 40.5 6.5t28 22.5t17.5 29t16 42l46 125l-337 932h101l282 -797l281 797h102zM201 1248h150l152 -231h-91z" />
<glyph unicode="&#x2000;" horiz-adv-x="778" />
<glyph unicode="&#x2001;" horiz-adv-x="1557" />
<glyph unicode="&#x2002;" horiz-adv-x="778" />
<glyph unicode="&#x2003;" horiz-adv-x="1557" />
<glyph unicode="&#x2004;" horiz-adv-x="519" />
<glyph unicode="&#x2005;" horiz-adv-x="389" />
<glyph unicode="&#x2006;" horiz-adv-x="259" />
<glyph unicode="&#x2007;" horiz-adv-x="259" />
<glyph unicode="&#x2008;" horiz-adv-x="194" />
<glyph unicode="&#x2009;" horiz-adv-x="311" />
<glyph unicode="&#x200a;" horiz-adv-x="86" />
<glyph unicode="&#x2010;" horiz-adv-x="729" d="M624 459h-517v81h517v-81z" />
<glyph unicode="&#x2011;" horiz-adv-x="729" d="M624 459h-517v81h517v-81z" />
<glyph unicode="&#x2012;" horiz-adv-x="729" d="M624 459h-517v81h517v-81z" />
<glyph unicode="&#x2013;" horiz-adv-x="918" d="M813 459h-706v81h706v-81z" />
<glyph unicode="&#x2014;" horiz-adv-x="1458" d="M1352 459h-1245v81h1245v-81z" />
<glyph unicode="&#x2018;" horiz-adv-x="409" d="M280 1098v-150h-150v150l55 150h87l-54 -150h62z" />
<glyph unicode="&#x2019;" horiz-adv-x="409" d="M130 1098v150h150v-150l-56 -150h-87l55 150h-62z" />
<glyph unicode="&#x201a;" horiz-adv-x="409" d="M130 0v150h150v-150l-56 -150h-87l55 150h-62z" />
<glyph unicode="&#x201c;" horiz-adv-x="671" d="M542 1098v-150h-150v150l55 150h87l-55 -150h63zM280 1098v-150h-150v150l55 150h87l-54 -150h62z" />
<glyph unicode="&#x201d;" horiz-adv-x="671" d="M392 1098v150h150v-150l-56 -150h-87l55 150h-62zM130 1098v150h150v-150l-56 -150h-87l55 150h-62z" />
<glyph unicode="&#x201e;" horiz-adv-x="671" d="M392 0v150h150v-150l-56 -150h-87l55 150h-62zM130 0v150h150v-150l-56 -150h-87l55 150h-62z" />
<glyph unicode="&#x2020;" horiz-adv-x="1042" d="M873 840h-314v-995h-76v995h-313v80h313v328h76v-328h314v-80z" />
<glyph unicode="&#x2021;" horiz-adv-x="1042" d="M873 173h-314v-328h-76v328h-313v80h313v587h-313v80h313v328h76v-328h314v-80h-314v-587h314v-80z" />
<glyph unicode="&#x2022;" horiz-adv-x="1425" d="M413 531q0 124 88 211.5t212 87.5t211.5 -87.5t87.5 -211.5t-87.5 -212t-211.5 -88t-212 88t-88 212z" />
<glyph unicode="&#x2026;" horiz-adv-x="1336" d="M148 0v150h150v-150h-150zM593 0v150h150v-150h-150zM1039 0v150h149v-150h-149z" />
<glyph unicode="&#x202f;" horiz-adv-x="311" />
<glyph unicode="&#x2030;" horiz-adv-x="1959" d="M1623 64q57 0 94.5 35t37.5 98v328q0 64 -37.5 99t-94.5 35q-55 0 -93.5 -35t-38.5 -99v-328q0 -63 38.5 -98t93.5 -35zM1623 -10q-39 0 -74 10.5t-66.5 33.5t-49.5 65t-18 98v328q0 57 18 99t49.5 65t66.5 34t74 11q40 0 75.5 -11t66 -34t48.5 -65t18 -99v-328 q0 -56 -18 -98t-48.5 -65t-66 -33.5t-75.5 -10.5zM1105 1248h85l-857 -1248h-85zM337 588q56 0 94 35t38 98v328q0 64 -38 99t-94 35t-94 -35t-38 -99v-328q0 -63 38 -98t94 -35zM337 513q-40 0 -75 11t-66 34t-49.5 65t-18.5 98v328q0 56 18.5 98.5t49.5 65.5t66.5 34 t74.5 11t74.5 -11t66.5 -34t49 -65.5t18 -98.5v-328q0 -56 -18 -98t-49 -65t-66 -34t-75 -11zM1100 64q56 0 93.5 35t37.5 98v328q0 43 -18 74t-47.5 45.5t-65.5 14.5q-56 0 -94.5 -35t-38.5 -99v-328q0 -63 38.5 -98t94.5 -35zM1100 -10q-40 0 -75 10.5t-66 33.5t-49.5 65 t-18.5 98v328q0 57 18.5 99t49.5 65t66.5 34t74.5 11t74.5 -11t66.5 -34t49 -65t18 -99v-328q0 -56 -18 -98t-49 -65t-66 -33.5t-75 -10.5z" />
<glyph unicode="&#x2039;" horiz-adv-x="523" d="M399 184l-289 254v96l289 255v-105l-224 -198l224 -197v-105z" />
<glyph unicode="&#x203a;" horiz-adv-x="523" d="M413 438l-289 -254v105l225 197l-225 198v105l289 -255v-96z" />
<glyph unicode="&#x2044;" horiz-adv-x="158" d="M465 1248h86l-857 -1248h-86z" />
<glyph unicode="&#x205f;" horiz-adv-x="389" />
<glyph unicode="&#x2070;" horiz-adv-x="561" d="M280 704q-39 0 -74.5 11t-66.5 34t-49.5 65t-18.5 99v327q0 56 18.5 98t49.5 65t66.5 34.5t74.5 11.5q40 0 75.5 -11t66 -34.5t48.5 -65.5t18 -98v-327q0 -57 -18 -99t-48.5 -65t-66 -34t-75.5 -11zM148 1240v-257l264 263q-3 61 -40 94.5t-92 33.5q-36 0 -65 -14.5 t-48 -46t-19 -73.5zM280 779q57 0 94.5 35t37.5 99v258l-264 -266q2 -60 40 -93t92 -33z" />
<glyph unicode="&#x2074;" horiz-adv-x="539" d="M353 714v197h-331v72l331 455h77v-455h76v-72h-76v-197h-77zM112 983h241v330z" />
<glyph unicode="&#x2075;" horiz-adv-x="539" d="M280 704q-39 0 -74.5 11t-66.5 34t-49.5 65t-18.5 99v8h77v-8q0 -64 38.5 -99t93.5 -35q57 0 94.5 35t37.5 99v53q0 64 -37.5 99t-94.5 35q-19 0 -37.5 -5t-35 -14.5t-29 -24.5t-20.5 -35h-78v417h381v-73h-304v-234q23 20 56.5 31t66.5 11q40 0 75.5 -11t66 -34.5 t48.5 -65.5t18 -98v-51q0 -57 -18 -99t-48.5 -65t-66 -34t-75.5 -11z" />
<glyph unicode="&#x2076;" horiz-adv-x="553" d="M280 704q-39 0 -74.5 11t-66.5 34t-49.5 65t-18.5 99v327q0 56 18.5 98t49.5 65t66.5 34.5t74.5 11.5q40 0 75.5 -11t66 -34.5t48.5 -65.5t18 -98v-9h-76v9q0 64 -37.5 99t-94.5 35q-36 0 -65 -14.5t-48 -46t-19 -73.5v-126q13 15 35.5 27t47.5 18t49 6q40 0 75 -11 t66 -34t49 -65t18 -98v-44q0 -57 -18 -99t-48.5 -65t-66 -34t-75.5 -11zM280 779q57 0 94.5 35t37.5 99v46q0 43 -18.5 73.5t-47.5 45t-66 14.5q-56 0 -94 -35t-38 -98v-46q0 -64 38.5 -99t93.5 -35z" />
<glyph unicode="&#x2077;" horiz-adv-x="464" d="M128 714l229 651h-332v73h410v-73l-228 -651h-79z" />
<glyph unicode="&#x2078;" horiz-adv-x="551" d="M276 704q-55 0 -101 21t-76.5 69.5t-30.5 116.5q0 114 85 167q-78 61 -78 168q0 51 17 91t45.5 64t63.5 36t74.5 12t75 -12t64.5 -36t46 -64t17 -91q0 -107 -79 -168q86 -53 86 -167q0 -52 -18 -92.5t-47.5 -65t-66.5 -37t-77 -12.5zM275.5 779q54.5 0 93.5 36.5t39 95.5 q0 58 -39 94.5t-93 36.5t-93 -36.5t-39 -94.5q0 -59 38.5 -95.5t93 -36.5zM276 1115q35 0 63 14.5t45 44.5t17 72q0 57 -33.5 92.5t-91.5 35.5q-39 0 -67 -16.5t-43 -45.5t-15 -66q0 -62 35 -96.5t90 -34.5z" />
<glyph unicode="&#x2079;" horiz-adv-x="553" d="M274 704q-40 0 -75 11t-66 34t-49 65t-18 99v8h77v-8q0 -64 38 -99t93.5 -35t93.5 35t38 99v126q-6 -8 -15.5 -15t-20 -12.5t-22.5 -10t-24.5 -7.5t-25 -5t-24.5 -2q-40 0 -75 11t-66 34t-49 65t-18 98v45q0 56 18 98t49 65.5t66 34.5t75 11q39 0 74.5 -11.5t66.5 -34.5 t49.5 -65t18.5 -98v-327q0 -57 -18.5 -99t-49.5 -65t-66.5 -34t-74.5 -11zM274 1061q56 0 94 34.5t38 98.5v46q0 26 -7 48t-19.5 37.5t-29 26.5t-36 16.5t-40.5 5.5t-40.5 -5.5t-36 -16.5t-28.5 -26.5t-19 -37.5t-7 -48v-46q0 -64 37.5 -98.5t93.5 -34.5z" />
<glyph unicode="&#x207a;" horiz-adv-x="587" d="M85 971v66h179v175h66v-175h173v-66h-173v-177h-66v177h-179z" />
<glyph unicode="&#x207b;" horiz-adv-x="587" d="M85 971v66h418v-66h-418z" />
<glyph unicode="&#x207c;" horiz-adv-x="587" d="M85 860v67h418v-67h-418zM85 1071v66h418v-66h-418z" />
<glyph unicode="&#x207d;" horiz-adv-x="293" d="M248 597h-17q-72 0 -99 28.5t-27 97.5v588q0 70 26.5 98.5t99.5 28.5h17v-66h-24q-30 0 -41.5 -11.5t-11.5 -39.5v-605q0 -29 11 -41t42 -12h24v-66z" />
<glyph unicode="&#x207e;" horiz-adv-x="293" d="M46 597v66h22q31 0 43 12t12 41v605q0 27 -12 39t-43 12h-22v66h17q72 0 99 -28.5t27 -98.5v-588q0 -34 -6 -57t-20.5 -39t-38.5 -23t-61 -7h-17z" />
<glyph unicode="&#x207f;" horiz-adv-x="575" d="M84 714v534h76v-51q19 31 56 48t76 17t74.5 -11.5t66.5 -34.5t49 -65t18 -98v-339h-76v340q0 43 -18.5 74t-48 45.5t-65.5 14.5q-56 0 -94 -35t-38 -99v-340h-76z" />
<glyph unicode="&#x2080;" horiz-adv-x="561" d="M280 -184q-39 0 -74.5 11t-66.5 34.5t-49.5 65.5t-18.5 98v328q0 46 12.5 82t33 59t48 38.5t56 22t59.5 6.5q32 0 60.5 -6.5t56 -22t47.5 -38.5t32 -59t12 -82v-328q0 -56 -18 -98t-48.5 -65.5t-66 -34.5t-75.5 -11zM148 353v-256l264 261q-3 62 -40 95t-92 33 q-36 0 -65 -14t-48 -45t-19 -74zM280 -109q57 0 94.5 35t37.5 99v259l-264 -267q2 -59 40 -92.5t92 -33.5z" />
<glyph unicode="&#x2081;" horiz-adv-x="362" d="M192 -173v622l-139 -119v102l139 119h77v-724h-77z" />
<glyph unicode="&#x2082;" horiz-adv-x="532" d="M55 -173v73l276 318q65 73 65 139q0 61 -38.5 95t-94 34t-93.5 -34.5t-38 -98.5v-20h-77v20q0 56 18 98t49 65t66.5 34t75.5 11q39 0 74.5 -11t66.5 -34t49 -64.5t18 -96.5q0 -54 -20 -95t-66 -95l-231 -265h317v-73h-417z" />
<glyph unicode="&#x2083;" horiz-adv-x="537" d="M267 -184q-40 0 -76.5 11t-68 34.5t-50.5 65.5t-19 98v9h77v-9q0 -63 39.5 -98.5t97.5 -35.5q57 0 92 34.5t35 94.5q0 55 -34.5 95t-92.5 40h-51v73h51q56 0 91.5 34.5t35.5 95.5q0 59 -38 93.5t-94 34.5t-94 -34.5t-38 -98.5v-9h-77v9q0 56 18.5 98t49.5 65t66.5 34 t74.5 11q41 0 77.5 -11.5t67 -35t48 -63.5t17.5 -93q0 -57 -25.5 -102t-63.5 -65q38 -22 63.5 -67.5t25.5 -103.5q0 -52 -17.5 -92.5t-47.5 -64t-65.5 -35.5t-74.5 -12z" />
<glyph unicode="&#x2084;" horiz-adv-x="539" d="M353 -173v196h-331v74l331 454h77v-454h76v-74h-76v-196h-77zM112 97h241v328z" />
<glyph unicode="&#x2085;" horiz-adv-x="539" d="M280 -184q-39 0 -74.5 11t-66.5 34.5t-49.5 65.5t-18.5 98v9h77v-9q0 -63 38.5 -98.5t93.5 -35.5q57 0 94.5 35t37.5 99v53q0 64 -37.5 99t-94.5 35q-40 0 -73.5 -20t-48.5 -58h-78v417h381v-73h-304v-234q48 41 123 41q40 0 75.5 -11t66 -34t48.5 -65t18 -98v-52 q0 -56 -18 -98t-48.5 -65.5t-66 -34.5t-75.5 -11z" />
<glyph unicode="&#x2086;" horiz-adv-x="553" d="M280 -184q-39 0 -74.5 11t-66.5 34.5t-49.5 65.5t-18.5 98v328q0 46 12.5 82t33 59t48 38.5t56 22t59.5 6.5q32 0 60.5 -6.5t56 -22t47.5 -38.5t32 -59t12 -82v-9h-76v9q0 64 -37.5 98.5t-94.5 34.5q-36 0 -65 -14t-48 -45t-19 -74v-127q19 24 57 38t75 14q40 0 75 -11 t66 -34t49 -65t18 -98v-45q0 -56 -18 -98t-48.5 -65.5t-66 -34.5t-75.5 -11zM280 -109q57 0 94.5 35t37.5 99v46q0 64 -37.5 99t-94.5 35q-55 0 -93.5 -35t-38.5 -99v-46q0 -63 38.5 -98.5t93.5 -35.5z" />
<glyph unicode="&#x2087;" horiz-adv-x="464" d="M128 -173l229 651h-332v73h410v-73l-228 -651h-79z" />
<glyph unicode="&#x2088;" horiz-adv-x="551" d="M276 -184q-55 0 -101 21.5t-76.5 69.5t-30.5 116q0 115 85 168q-78 61 -78 167q0 52 17 92t45.5 63.5t63.5 35.5t74.5 12t75 -12t64.5 -35.5t46 -63.5t17 -92q0 -106 -79 -167q86 -53 86 -168q0 -51 -18 -91.5t-47.5 -65t-66.5 -37.5t-77 -13zM275.5 -109 q54.5 0 93.5 36.5t39 95.5t-39 95.5t-93 36.5t-93 -36.5t-39 -95.5t38.5 -95.5t93 -36.5zM276 228q35 0 63 14.5t45 44.5t17 71q0 57 -33.5 92.5t-91.5 35.5q-39 0 -67 -16t-43 -45t-15 -67q0 -61 35 -95.5t90 -34.5z" />
<glyph unicode="&#x2089;" horiz-adv-x="553" d="M274 -184q-40 0 -75 11t-66 34.5t-49 65.5t-18 98v9h77v-9q0 -63 38 -98.5t93.5 -35.5t93.5 35.5t38 98.5v126q-19 -23 -57 -37t-75 -14q-40 0 -75 11t-66 34t-49 65t-18 98v45q0 56 18 98t49 65t66 34t75 11q39 0 74.5 -11t66.5 -34t49.5 -65t18.5 -98v-328 q0 -56 -18.5 -98t-49.5 -65.5t-66.5 -34.5t-74.5 -11zM274 173q56 0 94 35t38 98v47q0 43 -18.5 74t-48 45t-65.5 14t-65 -14t-47.5 -45t-18.5 -74v-47q0 -63 37.5 -98t93.5 -35z" />
<glyph unicode="&#x208d;" horiz-adv-x="293" d="M248 -291h-17q-72 0 -99 29t-27 98v588q0 35 6 58t20 39t38.5 23t61.5 7h17v-66h-24q-30 0 -41.5 -12t-11.5 -40v-604q0 -20 4.5 -31t16 -16.5t32.5 -5.5h24v-67z" />
<glyph unicode="&#x208e;" horiz-adv-x="293" d="M46 -291v67h22q31 0 43 12t12 41v604q0 28 -12 40t-43 12h-22v66h17q72 0 99 -29t27 -98v-588q0 -68 -27.5 -97.5t-98.5 -29.5h-17z" />
<glyph unicode="&#x20ac;" horiz-adv-x="1027" d="M620 -17q-84 0 -156.5 29t-125 83t-82.5 133.5t-30 176.5v85h-139l25 76h114v116h-137l23 77h114v84q0 96 30 176t82.5 133.5t125 83t156.5 29.5q61 0 116 -15t101.5 -44.5t82.5 -71.5l-72 -60q-81 100 -228 100q-62 0 -115.5 -20.5t-95 -60.5t-65 -104.5t-23.5 -145.5 v-84h538l-23 -77h-515v-116h481l-25 -76h-456v-85q0 -55 11 -102t30.5 -83.5t47 -64.5t61 -46t71 -27t78.5 -9q147 0 228 100l72 -59q-54 -64 -131 -97.5t-169 -33.5z" />
<glyph unicode="&#x2113;" horiz-adv-x="564" d="M144 211v172l-85 -70l-39 51l124 99v547q0 255 171 255q58 0 98.5 -35t59.5 -94t19 -138q0 -132 -70.5 -285.5t-183.5 -253.5v-260q0 -140 111 -140q67 0 127 26l16 -55q-86 -47 -182 -47q-166 0 -166 228zM238 1030v-483q53 57 97 131.5t70.5 158t26.5 156.5q0 39 -5 72 t-16 61.5t-31 44.5t-49 16q-93 0 -93 -157z" />
<glyph unicode="&#x2116;" horiz-adv-x="1532" d="M939 1248v-1248h-98l-591 1053v-1053h-99v1248h99l591 -1054v1054h98zM1464 570h-418v81h418v-81zM1256 779q56 0 94 35t38 99v141q0 64 -38 99t-94 35t-94 -35t-38 -99v-141q0 -43 18.5 -74t48 -45.5t65.5 -14.5zM1256 704q-31 0 -60 6.5t-57 22t-48 39t-32.5 59.5 t-12.5 82v140q0 45 12.5 81.5t32.5 59.5t48 38.5t57 22.5t60 7q39 0 74.5 -11.5t66.5 -34.5t49 -65t18 -98v-140q0 -57 -18 -99t-49 -65t-66.5 -34t-74.5 -11z" />
<glyph unicode="&#x2117;" horiz-adv-x="1460" d="M89 624q0 105 32 202.5t91.5 176.5t138.5 138t177 91.5t203 32.5q131 0 249.5 -50.5t204.5 -136.5t136.5 -204.5t50.5 -249.5t-50.5 -250t-136.5 -204.5t-204.5 -136t-249.5 -50.5t-250 50.5t-205 136t-136.5 204.5t-50.5 250zM165 624q0 -92 28.5 -178.5t81 -156 t122 -122t155.5 -81.5t179 -29q115 0 219.5 45t180 121t120 181t44.5 220t-44.5 219.5t-120 180.5t-180 121t-219.5 45t-220 -45t-180.5 -121t-120.5 -180.5t-45 -219.5zM524 233v779h251q118 0 180 -62.5t62 -170.5q0 -110 -62 -172t-180 -62h-175v-312h-76zM600 620h175 q53 0 90.5 20t55.5 55.5t18 83.5q0 46 -18 81t-55.5 55t-90.5 20h-175v-315z" />
<glyph unicode="&#x2122;" horiz-adv-x="1257" d="M214 524v649h-194v75h465v-75h-194v-649h-77zM595 524v724h77l210 -442l210 442h76v-724h-76v561l-174 -367h-73l-175 367v-561h-75z" />
<glyph unicode="&#x212e;" horiz-adv-x="1467" d="M325 517v-308q0 -28 20 -45q60 -50 140 -82q102 -39 249 -39t249 39q103 42 175 114h90q-96 -114 -234 -169q-112 -44 -280 -44t-280 44q-162 65 -263.5 208t-101.5 329.5t101.5 330t263.5 208.5q112 45 280 45t280 -45q162 -65 263.5 -208.5t101.5 -329.5v-31h-1037 q-8 0 -12.5 -4.5t-4.5 -12.5zM1144 613v308q0 26 -22 45q-60 50 -139 81q-102 40 -249 40t-249 -40q-80 -31 -140 -81q-20 -18 -20 -45v-308q0 -4 1 -7t3.5 -5.5t5.5 -4t7 -1.5h784q8 0 13 5.5t5 12.5z" />
<glyph unicode="&#x2153;" horiz-adv-x="1273" d="M264 524v622l-140 -119v101l140 120h76v-724h-76zM971 1248h85l-857 -1248h-85zM967 -10q-40 0 -76.5 10.5t-68 33.5t-50.5 65t-19 98v10h77v-10q0 -63 39.5 -98t97.5 -35t92.5 34t34.5 94q0 55 -34.5 95.5t-92.5 40.5h-51v73h51q57 0 92 34.5t35 95.5q0 58 -37.5 93 t-94.5 35q-55 0 -93.5 -35t-38.5 -99v-8h-77v8q0 57 18.5 99t49.5 65t66.5 34t74.5 11q41 0 77.5 -11.5t67 -35.5t48.5 -64t18 -92q0 -58 -26 -102.5t-64 -64.5q38 -22 64 -67.5t26 -104.5q0 -52 -18 -92t-48 -63.5t-65.5 -35t-74.5 -11.5z" />
<glyph unicode="&#x2154;" horiz-adv-x="1382" d="M90 524v73l277 317q65 74 65 139q0 41 -19 71t-48.5 44.5t-65.5 14.5q-55 0 -93 -35t-38 -99v-19h-78v19q0 56 18.5 98.5t49.5 65.5t66 34t75 11t75.5 -11t66.5 -34.5t49 -65t18 -96.5q0 -54 -20 -94.5t-66 -94.5l-231 -265h317v-73h-418zM1080 1248h85l-857 -1248h-85z M1076 -10q-40 0 -76.5 10.5t-68 33.5t-50.5 65t-19 98v10h77v-10q0 -63 39.5 -98t97.5 -35q57 0 91.5 34t34.5 94q0 55 -34 95.5t-92 40.5h-51v73h51q57 0 91.5 34.5t34.5 95.5q0 58 -37.5 93t-93.5 35t-94 -35t-38 -99v-8h-77v8q0 57 18.5 99t49.5 65t66.5 34t74.5 11 q41 0 77.5 -11.5t67 -35.5t48.5 -64t18 -92q0 -58 -26 -102.5t-64 -64.5q38 -22 64 -67.5t26 -104.5q0 -52 -18 -92t-48 -63.5t-65.5 -35t-74.5 -11.5z" />
<glyph unicode="&#x2155;" horiz-adv-x="1270" d="M264 524v622l-140 -119v101l140 120h76v-724h-76zM971 1248h85l-857 -1248h-85zM980 -10q-40 0 -75 10.5t-66 33.5t-49 65t-18 98v10h76v-10q0 -63 38 -98t94 -35t94 35t38 98v54q0 64 -38 99t-94 35q-27 0 -50 -8.5t-42.5 -26.5t-28.5 -44h-79v417h381v-72h-304v-234 q49 41 123 41q31 0 60 -6.5t56.5 -22t47.5 -38.5t32 -59.5t12 -81.5v-53q0 -56 -18 -98t-49 -65t-66.5 -33.5t-74.5 -10.5z" />
<glyph unicode="&#x2156;" horiz-adv-x="1378" d="M90 524v73l277 317q65 74 65 139q0 41 -19 71t-48.5 44.5t-65.5 14.5q-55 0 -93 -35t-38 -99v-19h-78v19q0 56 18.5 98.5t49.5 65.5t66 34t75 11t75.5 -11t66.5 -34.5t49 -65t18 -96.5q0 -54 -20 -94.5t-66 -94.5l-231 -265h317v-73h-418zM1080 1248h85l-857 -1248h-85z M1088 -10q-39 0 -74 10.5t-66 33.5t-49.5 65t-18.5 98v10h77v-10q0 -63 38 -98t93 -35q57 0 95 35t38 98v54q0 64 -38 99t-95 35q-40 0 -73 -20.5t-48 -58.5h-78v417h381v-72h-304v-234q49 41 122 41q32 0 60.5 -6.5t56 -22t48 -38.5t32.5 -59.5t12 -81.5v-53q0 -56 -18 -98 t-49 -65t-66.5 -33.5t-75.5 -10.5z" />
<glyph unicode="&#x2157;" horiz-adv-x="1373" d="M303 513q-41 0 -77 11t-68 34t-50.5 65t-18.5 98v10h76v-10q0 -63 39.5 -98t98.5 -35q57 0 92 34t35 94q0 55 -35 95.5t-92 40.5h-52v73h52q56 0 91.5 34t35.5 95q0 39 -18 69t-48 45t-66 15q-56 0 -94.5 -35t-38.5 -99v-8h-76v8q0 56 18.5 98.5t49.5 65.5t66 34t75 11 t77 -12t67 -35.5t48 -63.5t18 -93q0 -38 -12.5 -72.5t-32.5 -58t-45 -36.5q25 -14 45 -37.5t32.5 -59t12.5 -74.5q0 -42 -12 -76.5t-31.5 -57.5t-46 -39t-55.5 -23t-60 -7zM1074 1248h86l-857 -1248h-85zM1083 -10q-39 0 -74 10.5t-66 33.5t-49.5 65t-18.5 98v10h77v-10 q0 -63 38 -98t93 -35q57 0 94.5 35t37.5 98v54q0 64 -37.5 99t-94.5 35q-40 0 -73 -20.5t-48 -58.5h-78v417h381v-72h-305v-234q49 41 123 41q32 0 60.5 -6.5t56 -22t47.5 -38.5t32.5 -59.5t12.5 -81.5v-53q0 -56 -18 -98t-49 -65t-66.5 -33.5t-75.5 -10.5z" />
<glyph unicode="&#x2158;" horiz-adv-x="1285" d="M299 524v195h-331v74l331 455h77v-455h76v-74h-76v-195h-77zM59 793h240v329zM987 1248h86l-857 -1248h-86zM996 -10q-39 0 -74.5 10.5t-66.5 33.5t-49.5 65t-18.5 98v10h77v-10q0 -63 38 -98t94 -35q57 0 94.5 35t37.5 98v54q0 64 -37.5 99t-94.5 35q-40 0 -73 -20.5 t-48 -58.5h-79v417h382v-72h-305v-234q49 41 123 41q40 0 75 -11t66 -34t49 -65t18 -98v-53q0 -56 -18 -98t-49 -65t-66 -33.5t-75 -10.5z" />
<glyph unicode="&#x2159;" horiz-adv-x="1271" d="M264 524v622l-140 -119v101l140 120h76v-724h-76zM971 1248h85l-857 -1248h-85zM971 -10q-39 0 -74.5 10.5t-66 33.5t-49 65t-18.5 98v328q0 57 18.5 99t49 65t66 34t74.5 11q31 0 60 -6.5t56.5 -22t47.5 -39t32.5 -59.5t12.5 -82v-8h-77v8q0 64 -38 99t-94 35t-93.5 -35 t-37.5 -99v-126q19 24 56.5 38t74.5 14q31 0 60 -6.5t56.5 -22t47.5 -38.5t32.5 -59.5t12.5 -81.5v-46q0 -56 -18.5 -98t-49 -65t-66 -33.5t-75.5 -10.5zM971 64q57 0 94.5 35t37.5 98v47q0 64 -37.5 99t-94.5 35q-56 0 -93.5 -35t-37.5 -99v-47q0 -63 37.5 -98t93.5 -35z " />
<glyph unicode="&#x215a;" horiz-adv-x="1371" d="M315 513q-39 0 -74.5 11t-66 34t-49 65t-18.5 98v10h77v-10q0 -63 37.5 -98t93.5 -35q57 0 94.5 35t37.5 98v54q0 64 -37.5 98.5t-94.5 34.5q-41 0 -74 -20t-47 -58h-78v418h381v-74h-305v-234q49 41 123 41q31 0 60 -6t56.5 -21.5t47.5 -39t32.5 -59.5t12.5 -82v-52 q0 -56 -18.5 -98t-49 -65t-66 -34t-75.5 -11zM1071 1248h85l-857 -1248h-85zM1071 -10q-39 0 -74.5 10.5t-66.5 33.5t-49.5 65t-18.5 98v328q0 57 18.5 99t49.5 65t66.5 34t74.5 11q40 0 75 -11t66 -34t49 -65t18 -99v-8h-77v8q0 43 -18 74t-47.5 45.5t-65.5 14.5 q-56 0 -94 -35t-38 -99v-126q10 12 25 22t33 16.5t37 10t37 3.5q40 0 75 -11t66 -34t49 -65t18 -98v-46q0 -56 -18 -98t-49 -65t-66 -33.5t-75 -10.5zM1071 64q57 0 94 35t37 98v47q0 64 -37 99t-94 35q-27 0 -50.5 -8.5t-42 -25t-29 -42t-10.5 -58.5v-47q0 -63 38 -98 t94 -35z" />
<glyph unicode="&#x215b;" horiz-adv-x="1234" d="M264 524v622l-140 -119v101l140 120h76v-724h-76zM971 1248h85l-857 -1248h-85zM950 -10q-41 0 -77.5 12.5t-66.5 36.5t-47.5 64.5t-17.5 92.5q0 115 85 168q-78 61 -78 167q0 51 17 91.5t46 64t64.5 35.5t74.5 12q19 0 37.5 -3t36.5 -8.5t34 -15t30.5 -21.5t26 -28 t19.5 -35t12.5 -42.5t4.5 -49.5q0 -106 -78 -167q85 -53 85 -168q0 -52 -17.5 -92.5t-47 -64.5t-66 -36.5t-77.5 -12.5zM950 64q54 0 92.5 36t38.5 96q0 39 -18 69.5t-48 46.5t-65 16t-65 -16t-48.5 -46.5t-18.5 -69.5q0 -40 18.5 -70.5t48.5 -46t65 -15.5zM950 401 q55 0 89.5 34t34.5 96q0 57 -33 92.5t-91 35.5t-91.5 -35.5t-33.5 -92.5q0 -62 35 -96t90 -34z" />
<glyph unicode="&#x215c;" horiz-adv-x="1338" d="M303 513q-41 0 -77 11t-68 34t-50.5 65t-18.5 98v10h76v-10q0 -63 39.5 -98t98.5 -35q57 0 92 34t35 94q0 55 -35 95.5t-92 40.5h-52v73h52q56 0 91.5 34t35.5 95q0 39 -18 69t-48 45t-66 15q-56 0 -94.5 -35t-38.5 -99v-8h-76v8q0 56 18.5 98.5t49.5 65.5t66 34t75 11 t77 -12t67 -35.5t48 -63.5t18 -93q0 -38 -12.5 -72.5t-32.5 -58t-45 -36.5q25 -14 45 -37.5t32.5 -59t12.5 -74.5q0 -42 -12 -76.5t-31.5 -57.5t-46 -39t-55.5 -23t-60 -7zM1074 1248h86l-857 -1248h-85zM1052.5 -10q-40.5 0 -77 12.5t-66 36.5t-47 64.5t-17.5 92.5 q0 115 85 168q-78 61 -78 167q0 51 16.5 91t45.5 64t64 36t74.5 12t75 -12t64.5 -35.5t46 -64t17 -91.5q0 -106 -79 -167q86 -53 86 -168q0 -52 -18 -92.5t-47.5 -64.5t-66.5 -36.5t-77.5 -12.5zM1052.5 64q54.5 0 93.5 36.5t39 95.5q0 58 -39 95t-93 37t-93 -37t-39 -95 q0 -60 38.5 -96t93 -36zM1052.5 401q54.5 0 90 34t35.5 96q0 57 -34 92.5t-91 35.5q-29 0 -52.5 -9.5t-39.5 -26.5t-24.5 -40.5t-8.5 -51.5q0 -62 35 -96t89.5 -34z" />
<glyph unicode="&#x215d;" horiz-adv-x="1333" d="M315 513q-39 0 -74.5 11t-66 34t-49 65t-18.5 98v10h77v-10q0 -63 37.5 -98t93.5 -35q57 0 94.5 35t37.5 98v54q0 64 -37.5 98.5t-94.5 34.5q-41 0 -74 -20t-47 -58h-78v418h381v-74h-305v-234q49 41 123 41q31 0 60 -6t56.5 -21.5t47.5 -39t32.5 -59.5t12.5 -82v-52 q0 -56 -18.5 -98t-49 -65t-66 -34t-75.5 -11zM1071 1248h85l-857 -1248h-85zM1049.5 -10q-40.5 0 -77 12.5t-66.5 36.5t-47.5 64.5t-17.5 92.5q0 115 86 168q-79 61 -79 167q0 51 17 91t46 64t64 36t74.5 12t74.5 -12t64 -35.5t46 -64t17 -91.5q0 -106 -78 -167 q85 -53 85 -168q0 -52 -17.5 -92.5t-47.5 -64.5t-66.5 -36.5t-77 -12.5zM1049 64q55 0 93.5 36.5t38.5 95.5q0 58 -39 95t-93 37t-92.5 -37t-38.5 -95q0 -40 18.5 -70.5t48 -46t64.5 -15.5zM1049.5 401q54.5 0 89.5 34t35 96q0 57 -33.5 92.5t-91.5 35.5q-29 0 -52.5 -9.5 t-39 -26.5t-24 -40.5t-8.5 -51.5q0 -62 35 -96t89.5 -34z" />
<glyph unicode="&#x215e;" horiz-adv-x="1184" d="M164 524l228 650h-331v74h410v-74l-228 -650h-79zM921 1248h86l-857 -1248h-86zM899.5 -10q-40.5 0 -77 12.5t-66 36.5t-47 64.5t-17.5 92.5q0 115 85 168q-78 61 -78 167q0 51 16.5 91t45.5 64t64 36t74.5 12t75 -12t64 -35.5t45.5 -64t17 -91.5q0 -106 -78 -167 q85 -53 85 -168q0 -52 -17.5 -92.5t-47.5 -64.5t-66.5 -36.5t-77 -12.5zM900 64q54 0 93 36.5t39 95.5q0 58 -39 95t-93 37t-93 -37t-39 -95q0 -40 18.5 -70.5t48 -46t65.5 -15.5zM899.5 401q54.5 0 90 34t35.5 96q0 57 -34 92.5t-91 35.5q-29 0 -52.5 -9.5t-39.5 -26.5 t-24.5 -40.5t-8.5 -51.5q0 -62 35 -96t89.5 -34z" />
<glyph unicode="&#x215f;" horiz-adv-x="663" d="M264 524v622l-140 -119v101l140 120h76v-724h-76zM971 1248h85l-857 -1248h-85z" />
<glyph unicode="&#x2190;" horiz-adv-x="1425" d="M226 451l417 -415l-53 -53l-510 507l510 508l53 -54l-417 -415h1119v-78h-1119z" />
<glyph unicode="&#x2191;" horiz-adv-x="1425" d="M1167 702l-415 417v-1119h-79v1119l-415 -417l-53 53l508 510l508 -510z" />
<glyph unicode="&#x2192;" horiz-adv-x="1425" d="M782 36l417 415h-1119v78h1119l-417 415l54 54l509 -508l-509 -507z" />
<glyph unicode="&#x2193;" horiz-adv-x="1425" d="M752 128l415 417l54 -53l-508 -509l-508 509l53 53l415 -417v1120h79v-1120z" />
<glyph unicode="&#x2196;" horiz-adv-x="1425" d="M955 942h-588l896 -896l-55 -55l-898 896v-588h-77v720h722v-77z" />
<glyph unicode="&#x2197;" horiz-adv-x="1425" d="M1059 942h-588v77h721v-720h-77v588l-897 -896l-56 55z" />
<glyph unicode="&#x2198;" horiz-adv-x="1425" d="M471 77h588l-897 896l56 55l897 -896v587h77v-719h-721v77z" />
<glyph unicode="&#x2199;" horiz-adv-x="1425" d="M367 77h588v-77h-722v719h77v-587l898 896l55 -55z" />
<glyph unicode="&#x21b0;" horiz-adv-x="1425" d="M226 451l417 -415l-53 -53l-510 507l510 508l53 -54l-417 -415h1119v-857h-78v779h-1041z" />
<glyph unicode="&#x21b1;" horiz-adv-x="1425" d="M158 451v-779h-78v857h1119l-417 415l54 54l509 -508l-509 -507l-54 53l417 415h-1041z" />
<glyph unicode="&#x21b2;" horiz-adv-x="1425" d="M226 451l417 -415l-53 -53l-510 507l510 508l53 -54l-417 -415h1041v719h78v-797h-1119z" />
<glyph unicode="&#x21b3;" horiz-adv-x="1425" d="M782 36l417 415h-1119v797h78v-719h1041l-417 415l54 54l509 -508l-509 -507z" />
<glyph unicode="&#x2202;" horiz-adv-x="1029" d="M841 983q0 30 -5.5 56.5t-17 49t-30.5 40t-43.5 30.5t-58 19.5t-73.5 6.5q-58 0 -112 -19.5t-97.5 -55.5t-74.5 -89t-42 -116l-2 -14h-80l2 14q14 77 45.5 139.5t73 103t93.5 67.5t104.5 38.5t107.5 11.5q44 0 84.5 -9t78.5 -29t66 -50t44.5 -75.5t16.5 -101.5 q0 -53 -8 -95l-109 -563q-14 -78 -46 -140t-73.5 -102.5t-93.5 -67.5t-104.5 -38t-107.5 -11q-31 0 -60.5 4t-58.5 14t-54.5 25t-47 36.5t-37 48t-24 61.5t-8.5 76q0 22 3 46.5t10 62t8 49.5q14 78 45.5 140t73 102.5t93 67.5t103.5 38.5t107 11.5q58 0 109 -17.5t86.5 -48 t52.5 -68.5l52 273q9 56 9 78zM398 63q119 0 211 76t114 203q2 13 6.5 36t7.5 37.5t5.5 33.5t2.5 36q0 36 -8.5 66.5t-26 55.5t-44.5 42.5t-65 27t-86 9.5q-119 0 -210.5 -76.5t-113.5 -203.5q-3 -12 -7.5 -35.5t-7 -37.5t-4.5 -33.5t-2 -35.5q0 -94 55.5 -147.5 t172.5 -53.5z" />
<glyph unicode="&#x220f;" horiz-adv-x="1090" d="M151 0v1248h788v-1248h-98v1153h-593v-1153h-97z" />
<glyph unicode="&#x2211;" horiz-adv-x="1250" d="M160 -253l573 712l-573 714v75h913v-75h-809l572 -714l-572 -712h809v-75h-913v75z" />
<glyph unicode="&#x2212;" d="M850 459h-706v81h706v-81z" />
<glyph unicode="&#x221a;" horiz-adv-x="918" d="M405 84l343 1164h82l-369 -1248h-114l-136 459h-122v75h182z" />
<glyph unicode="&#x221e;" d="M87 598.5q0 93.5 65 159t158 65.5q37 0 72.5 -12t64 -34t48.5 -51q31 45 79.5 71t105.5 26q94 0 159.5 -65.5t65.5 -159t-65.5 -158t-159.5 -64.5q-57 0 -105.5 25.5t-79.5 70.5q-30 -44 -79 -70t-106 -26q-94 0 -158.5 64.5t-64.5 158zM534 599q0 -62 42 -105t104.5 -43 t105 43t42.5 104.5t-42.5 105.5t-105.5 44q-61 0 -103 -42t-43 -102v-5zM164 599q0 -41 18.5 -75t52.5 -53.5t75 -19.5q62 0 105 43t43 105v5q-3 60 -45.5 102t-102.5 42q-62 0 -104 -43.5t-42 -105.5z" />
<glyph unicode="&#x222b;" horiz-adv-x="535" d="M306 1064v-1208q0 -47 -8.5 -79t-29 -56.5t-58.5 -36.5t-94 -12v75q23 0 41 3t30.5 9t20.5 14.5t13 21.5t7 27t2 34v1208q0 47 8 79t29 56.5t59 36.5t94 12v-75q-35 0 -57.5 -6.5t-35 -21t-17 -33.5t-4.5 -48z" />
<glyph unicode="&#x2248;" d="M197 583l-53 58q41 46 100.5 75t110.5 29q46 0 100 -20.5t102.5 -41t81.5 -20.5q29 0 71 19.5t86 62.5l54 -59q-41 -46 -100 -74.5t-111 -28.5q-36 0 -78 12.5t-74 28t-68.5 28.5t-63.5 13q-29 0 -71.5 -19.5t-86.5 -62.5zM197 235l-53 59q41 46 100.5 75t110.5 29 q46 0 100 -21t102.5 -41.5t81.5 -20.5q29 0 71 20t86 63l54 -60q-41 -45 -100 -74t-111 -29q-36 0 -78 13t-74 28.5t-68.5 28.5t-63.5 13q-29 0 -71.5 -20t-86.5 -63z" />
<glyph unicode="&#x2260;" d="M228 276h-84v81h164l268 267h-432v80h512l140 141l54 -56l-85 -85h85v-80h-166l-267 -267h433v-81h-513l-140 -139l-53 55z" />
<glyph unicode="&#x2264;" d="M850 212l-706 320v79l706 321v-85l-602 -275l602 -274v-86zM850 0h-706v80h706v-80z" />
<glyph unicode="&#x2265;" d="M850 532l-706 -320v86l602 274l-602 275v85l706 -321v-79zM850 0h-706v80h706v-80z" />
<glyph unicode="&#x25a0;" horiz-adv-x="1425" d="M253 0v920h920v-920h-920z" />
<glyph unicode="&#x25a1;" horiz-adv-x="1425" d="M253 0v920h920v-920h-920zM331 841v-763h763v763h-763z" />
<glyph unicode="&#x25ca;" horiz-adv-x="976" d="M178 624l310 -535l311 535l-311 534zM451 0l-362 624l362 624h74l362 -624l-362 -624h-74z" />
<glyph unicode="&#x25cb;" horiz-adv-x="1425" d="M231 463q0 98 38.5 187t103 153.5t153.5 102.5t187 38q78 0 151.5 -24.5t132.5 -69t103.5 -103.5t69 -132.5t24.5 -151.5q0 -65 -17.5 -127.5t-48.5 -115t-75.5 -97t-97 -75.5t-115 -48t-127.5 -17q-98 0 -187 38t-153.5 102t-103 153t-38.5 187zM308 462.5 q0 -109.5 54.5 -202.5t147.5 -147t202.5 -54t203 54t147.5 147t54 202.5t-54 203t-147.5 147.5t-203 54t-202.5 -54t-147.5 -147.5t-54.5 -203z" />
<glyph unicode="&#x25cf;" horiz-adv-x="1425" d="M231 463q0 98 38.5 187t103 153.5t153.5 102.5t187 38q78 0 151.5 -24.5t132.5 -69t103.5 -103.5t69 -132.5t24.5 -151.5q0 -65 -17.5 -127.5t-48.5 -115t-75.5 -97t-97 -75.5t-115 -48t-127.5 -17q-98 0 -187 38t-153.5 102t-103 153t-38.5 187z" />
<glyph unicode="&#x25fc;" horiz-adv-x="916" d="M0 918h918v-918h-918v918z" />
<glyph unicode="&#xfb00;" horiz-adv-x="1086" d="M59 828v92h130v144q0 47 8.5 79t29 56.5t58.5 36.5t94 12h131v-92h-131q-57 0 -76 -20t-19 -72v-144h226v-92h-226v-828h-95v828h-130zM602 828v92h131v144q0 47 8 79t29 56.5t59 36.5t94 12h130v-92h-130q-58 0 -77.5 -20t-19.5 -72v-144h227v-92h-227v-828h-93v828 h-131z" />
<glyph unicode="&#xfb01;" horiz-adv-x="922" d="M59 828v92h130v144q0 47 8.5 79t29 56.5t58.5 36.5t94 12h131v-92h-131q-57 0 -76 -20t-19 -72v-144h226v-92h-226v-828h-95v828h-130zM686 920h94v-920h-94v920zM780 1248v-156h-94v156h94z" />
<glyph unicode="&#xfb02;" horiz-adv-x="922" d="M59 828v92h130v144q0 47 8.5 79t29 56.5t58.5 36.5t94 12h131v-92h-131q-57 0 -76 -20t-19 -72v-144h226v-92h-226v-828h-95v828h-130zM780 1248v-1248h-94v1248h94z" />
<glyph unicode="&#xfb03;" horiz-adv-x="1465" d="M59 828v92h130v144q0 47 8.5 79t29 56.5t58.5 36.5t94 12h131v-92h-131q-57 0 -76 -20t-19 -72v-144h226v-92h-226v-828h-95v828h-130zM602 828v92h131v144q0 47 8 79t29 56.5t59 36.5t94 12h130v-92h-130q-58 0 -77.5 -20t-19.5 -72v-144h227v-92h-227v-828h-93v828 h-131zM1229 920h95v-920h-95v920zM1324 1248v-156h-95v156h95z" />
<glyph unicode="&#xfb04;" horiz-adv-x="1465" d="M59 828v92h130v144q0 47 8.5 79t29 56.5t58.5 36.5t94 12h131v-92h-131q-57 0 -76 -20t-19 -72v-144h226v-92h-226v-828h-95v828h-130zM602 828v92h131v144q0 47 8 79t29 56.5t59 36.5t94 12h130v-92h-130q-58 0 -77.5 -20t-19.5 -72v-144h227v-92h-227v-828h-93v828 h-131zM1324 1248v-1248h-95v1248h95z" />
<glyph horiz-adv-x="0" />
<glyph horiz-adv-x="1137" d="M303 46q-25 5 -42 16t-27 28.5t-14 40.5t-4 54v456q-50 0 -66 43q-43 16 -43 66q0 31 19 50q-29 16 -46 43.5t-17 61.5q0 33 17 61.5t46 43.5q-19 19 -19 51q0 27 15.5 46.5t41.5 23.5q10 37 41.5 61.5t70.5 24.5q41 0 79 -30q12 34 41.5 56t66.5 22q30 0 55.5 -15 t42.5 -40q25 12 52 12q33 0 61.5 -18t43.5 -48q22 22 50 22q23 0 40 -11.5t25 -31.5q26 -6 47 -22.5t33 -41t12 -50.5q0 -21 -8 -41t-21.5 -35t-31.5 -25v-68h7q81 0 112 -32.5t31 -110.5v-383q0 -52 -13 -82.5t-44 -45t-86 -14.5h-7q0 -43 -8 -70t-27 -44t-52 -24v-46h-474 v46zM777 185v723q-28 8 -51 31h-148q-34 -34 -83 -34q-59 0 -94 49q-13 -6 -29 -6q-32 0 -51 19q-10 -16 -18 -27v-755q0 -33 12.5 -47t44.5 -14h359q32 0 45 14t13 47zM178 823v-34q-17 0 -27 -11.5t-10 -27.5t10.5 -26.5t26.5 -10.5q0 -17 10.5 -27.5t27.5 -10.5v262 q33 0 57 21.5t26 53.5v7h34q0 -12 5.5 -20.5t14 -13t19.5 -4.5q17 0 27.5 10.5t10.5 27.5h34q0 -24 -16 -46q22 -34 67 -34q35 0 59.5 24t24.5 58h147q0 -34 23.5 -58t57.5 -24q23 0 42.5 11t30.5 30t11 41q0 35 -24.5 59.5t-59.5 24.5q0 16 -11 27.5t-28 11.5 q-16 0 -26.5 -10.5t-10.5 -28.5h-34q0 34 -24.5 58.5t-59.5 24.5q-17 0 -33 -6.5t-27.5 -18.5t-16.5 -28q14 -4 25.5 -14t18 -24t6.5 -30h-34q0 17 -11 27.5t-27.5 10.5t-27 -10.5t-10.5 -27.5h-34q0 18 7.5 33t20.5 25t30 12q10 32 34 53q-10 19 -29.5 30t-41.5 11 q-33 0 -57 -23.5t-25 -56.5q13 -29 13 -51h-34q0 22 -11.5 41.5t-31 30.5t-41.5 11q-27 0 -48 -15t-29 -39q24 -6 38 -24.5t14 -43.5h-33q0 16 -11.5 27.5t-28.5 11.5q-10 0 -19 -5.5t-13.5 -14.5t-4.5 -19q0 -15 8.5 -26t21.5 -12h7v-34h-7q-21 -2 -38 -13.5t-26.5 -30 t-9.5 -40.5q0 -34 21 -57.5t53 -24.5h7zM927 326v383q0 23 -5.5 36t-17.5 19t-33 6h-7v-505h7q30 0 43 14t13 47zM376 184v668h27v-668h-27zM675 184v668h27v-668h-27zM576 184v668h26v-668h-26zM476 184v668h27v-668h-27z" />
<glyph horiz-adv-x="452" d="M160 -221v132h132v-132l-37 -132h-87l37 132h-45z" />
<glyph d="M850 905v-563q0 -77 -21 -139.5t-55.5 -102.5t-81 -67.5t-95 -38.5t-100.5 -11t-100.5 11t-95 38.5t-81 67.5t-55.5 102.5t-21 139.5v563q0 77 21 139.5t55.5 103t81 67.5t95 38.5t100.5 11.5q36 0 71.5 -6t70.5 -19t66 -32.5t58 -49t46 -65.5t30 -84t11 -104zM755 342 v486l-517 -517q9 -109 80.5 -173.5t178.5 -64.5q114 0 186 73.5t72 195.5zM238 905v-485l515 515q-9 110 -79.5 174.5t-176.5 64.5q-114 0 -186.5 -73.5t-72.5 -195.5z" />
<glyph d="M490 90v1036l-239 -205v121l239 206h95v-1158h304v-90h-705v90h306z" />
<glyph d="M235 905v-23h-94v23q0 77 21 139.5t55.5 103t80.5 67.5t95 38.5t100 11.5q52 0 101.5 -12t95.5 -39t80.5 -66.5t55.5 -99t21 -132.5q0 -83 -36.5 -162t-117.5 -171l-433 -493h587v-90h-706v90l485 553q126 144 126 273q0 114 -71.5 185.5t-187.5 72.5q-114 0 -186 -73.5 t-72 -195.5z" />
<glyph d="M495 -17q-55 0 -105 11t-97.5 38t-82 67t-55.5 102.5t-21 140.5v15h94v-15q0 -125 73.5 -197t193.5 -72q118 0 184 68t66 194q0 67 -27.5 122.5t-84.5 91.5t-133 36h-87v90h92q113 0 176.5 68.5t63.5 176.5q0 71 -33.5 129.5t-92.5 91.5t-133 33q-113 0 -185.5 -73.5 t-72.5 -195.5v-14h-94v14q0 77 21 139.5t55.5 103t81 67.5t95 38.5t99.5 11.5q53 0 102.5 -12.5t95.5 -39.5t80.5 -66.5t55 -98t20.5 -128.5q0 -105 -45.5 -178t-128.5 -113q79 -38 126.5 -115t47.5 -179q0 -70 -17 -128t-47.5 -99.5t-73.5 -69.5t-95 -41.5t-112 -13.5z" />
<glyph d="M658 1248h94v-804h130v-87h-130v-357h-94v357h-587v87zM182 444h476v650z" />
<glyph d="M280 1156v-479q42 48 107 75t135 27q43 0 84 -8.5t81 -25.5t73.5 -46.5t59.5 -68t40.5 -93t14.5 -119.5v-76q0 -77 -21 -139.5t-55.5 -102.5t-81 -67.5t-95 -38.5t-100.5 -11t-100.5 11t-95 38.5t-80.5 67.5t-55 102.5t-21 139.5v15h94v-15q0 -122 72 -195.5t186 -73.5 t186 73.5t72 195.5v76q0 123 -72 196.5t-186 73.5q-75 0 -134.5 -33.5t-91.5 -93.5h-111v687h641v-92h-546z" />
<glyph d="M244 905v-260q34 51 104.5 86t154.5 35q52 0 100.5 -11.5t95 -38.5t80.5 -67.5t55 -102.5t21 -140v-64q0 -77 -21 -139.5t-55 -102.5t-80.5 -67.5t-95 -38.5t-100.5 -11t-100.5 11t-95 38.5t-81 67.5t-55.5 102.5t-21 139.5v563q0 77 21 139.5t55.5 103t81 67.5t95 38.5 t100.5 11.5t100.5 -11.5t95 -38.5t80.5 -67.5t55 -103t21 -139.5v-14h-95v14q0 122 -71.5 195.5t-185.5 73.5q-75 0 -133.5 -32.5t-92 -94t-33.5 -142.5zM244 406v-64q0 -122 72.5 -195.5t186.5 -73.5t185.5 73.5t71.5 195.5v64q0 123 -71.5 196t-185.5 73t-186.5 -73 t-72.5 -196z" />
<glyph d="M136 1248h694v-92l-422 -1156h-95l423 1156h-600v92z" />
<glyph d="M838 925q0 -96 -41 -173.5t-120 -122.5q78 -38 125.5 -118.5t47.5 -182.5q0 -73 -22 -132.5t-57.5 -98t-82 -65t-94.5 -38t-97 -11.5t-97 11.5t-94.5 38t-82 65t-57.5 98t-22 132.5q0 102 47.5 182.5t126.5 118.5q-79 45 -120 122.5t-41 173.5q0 69 19.5 127t52.5 96.5 t77 65.5t92 39t99 12t99 -12t92 -39t77 -65.5t53 -96.5t20 -127zM755 328q0 73 -35 132.5t-94 92t-129 32.5q-108 0 -183.5 -73t-75.5 -183.5t75.5 -183t183 -72.5t183 72.5t75.5 182.5zM251 925q0 -110 64 -180t181.5 -70t182 70t64.5 180q0 109 -65.5 179t-181 70 t-180.5 -70t-65 -179z" />
<glyph d="M750 342v260q-34 -51 -104 -86t-154 -35q-52 0 -100.5 11.5t-95 38.5t-81 67.5t-55.5 103t-21 139.5v64q0 77 21 139.5t55.5 103t81 67.5t95 38.5t100.5 11.5q42 0 83 -8.5t81.5 -25.5t74 -46t59.5 -68t40.5 -93t14.5 -119v-563q0 -77 -21 -139.5t-55.5 -102.5t-81 -67.5 t-95.5 -38.5t-100.5 -11t-100 11t-95 38.5t-81 67.5t-55.5 102.5t-21 139.5v15h94v-15q0 -122 72.5 -195.5t186 -73.5t186 73.5t72.5 195.5zM750 841v64q0 122 -72.5 195.5t-186 73.5t-186 -73.5t-72.5 -195.5v-64q0 -122 72.5 -195.5t186 -73.5t186 73.5t72.5 195.5z" />
<glyph d="M850 905v-563q0 -77 -21 -139.5t-55.5 -102.5t-81 -67.5t-95 -38.5t-100.5 -11t-100.5 11t-95 38.5t-81 67.5t-55.5 102.5t-21 139.5v563q0 77 21 139.5t55.5 103t81 67.5t95 38.5t100.5 11.5q36 0 71.5 -6t70.5 -19t66 -32.5t58 -49t46 -65.5t30 -84t11 -104zM755 342 v563q0 122 -72 195.5t-186 73.5t-186.5 -73.5t-72.5 -195.5v-563q0 -122 72.5 -195.5t186.5 -73.5t186 73.5t72 195.5z" />
<glyph d="M850 905v-563q0 -77 -21 -139.5t-55.5 -102.5t-81 -67.5t-95 -38.5t-100.5 -11t-100.5 11t-95 38.5t-81 67.5t-55.5 102.5t-21 139.5v563q0 77 21 139.5t55.5 103t81 67.5t95 38.5t100.5 11.5q36 0 71.5 -6t70.5 -19t66 -32.5t58 -49t46 -65.5t30 -84t11 -104zM755 342 v486l-517 -517q9 -109 80.5 -173.5t178.5 -64.5q114 0 186 73.5t72 195.5zM238 905v-485l515 515q-9 110 -79.5 174.5t-176.5 64.5q-114 0 -186.5 -73.5t-72.5 -195.5z" />
<glyph horiz-adv-x="607" d="M340 0v1114l-238 -206v134l238 206h98v-1248h-98z" />
<glyph horiz-adv-x="920" d="M104 0v97l482 548q125 142 125 271q0 112 -70.5 181.5t-184.5 70.5q-113 0 -184 -71t-71 -192v-25h-97v25q0 77 20.5 139.5t55 103t81 67.5t95 38.5t100.5 11.5t101 -11.5t95.5 -38.5t81 -66.5t55 -99.5t20.5 -133q0 -85 -36 -165t-115 -170l-432 -484h583v-97h-705z" />
<glyph horiz-adv-x="931" d="M463 -17q-55 0 -105 11t-97.5 38t-82 67t-55.5 102.5t-21 140.5v15h97v-15q0 -122 73 -193t191 -71q116 0 181 67t65 190q0 65 -27 120.5t-83 90.5t-130 35h-88v96h90q75 0 129.5 31.5t81.5 86t27 125.5q0 70 -32.5 127t-91 89t-131.5 32q-113 0 -184 -71t-71 -192v-14 h-97v14q0 77 21 139.5t55 103t80.5 67.5t95 38.5t100.5 11.5t102 -12.5t96 -39.5t80 -66.5t54.5 -98t20.5 -128.5q0 -105 -45 -179t-126 -112q78 -38 124.5 -115.5t46.5 -178.5q0 -88 -26 -156t-73 -110.5t-109 -64t-136 -21.5z" />
<glyph horiz-adv-x="923" d="M629 0v353h-585v96l585 799h98v-799h130v-96h-130v-353h-98zM164 449h465v631z" />
<glyph horiz-adv-x="933" d="M484.5 -17q-51.5 0 -100 11t-95 38.5t-81 67.5t-55.5 102.5t-21 139.5v15h98v-15q0 -121 71 -192.5t184 -71.5q111 0 183 71.5t72 192.5v78q0 80 -33.5 140.5t-91 92t-130.5 31.5q-76 0 -135 -33.5t-90 -94.5h-112v692h641v-97h-543v-469q40 47 105 72.5t134 25.5 q51 0 100 -11.5t95.5 -38.5t81 -67.5t55.5 -103t21 -139.5v-78q0 -77 -21 -139.5t-55.5 -102.5t-81 -67.5t-95.5 -38.5t-100.5 -11z" />
<glyph horiz-adv-x="957" d="M484.5 -17q-51.5 0 -100 11t-95 38.5t-81 67.5t-55.5 102.5t-21 139.5v563q0 77 21 139.5t55.5 103t81 67.5t95 38.5t100.5 11.5q42 0 83 -8.5t81.5 -25.5t74 -46t59.5 -68t40.5 -93t14.5 -119v-14h-98v14q0 120 -72 191.5t-183 71.5q-113 0 -184 -71t-71 -192v-253 q33 50 102.5 83t152.5 33q51 0 100 -11.5t95.5 -38.5t81 -67.5t55.5 -103t21 -139.5v-66q0 -77 -21 -139.5t-55.5 -102.5t-81 -67.5t-95.5 -38.5t-100.5 -11zM485 78q111 0 183 71.5t72 192.5v66q0 121 -72 192.5t-183 71.5q-113 0 -184 -71.5t-71 -192.5v-66 q0 -121 71 -192.5t184 -71.5z" />
<glyph horiz-adv-x="804" d="M228 0l418 1151h-596v97h695v-97l-419 -1151h-98z" />
<glyph horiz-adv-x="954" d="M477.5 -17q-49.5 0 -97.5 11.5t-95 38.5t-82 66t-57 98.5t-22 132.5q0 101 46 180.5t124 118.5q-77 45 -117 121.5t-40 172.5q0 71 19.5 129t52 97t77 65.5t92.5 38.5t100 12q51 0 98.5 -12t92 -39t77.5 -65.5t52.5 -96.5t19.5 -129q0 -96 -40 -172.5t-117 -121.5 q77 -39 123 -118.5t46 -180.5q0 -73 -21.5 -132.5t-57 -98.5t-82 -66t-94.5 -38.5t-97.5 -11.5zM477.5 78q106.5 0 181 71.5t74.5 180.5t-74.5 180t-181 71t-180.5 -71t-74 -180t74 -180.5t180.5 -71.5zM477.5 677q115.5 0 178.5 68.5t63 177.5q0 71 -27 125.5t-82.5 87 t-131.5 32.5q-115 0 -179 -68.5t-64 -176.5q0 -109 63.5 -177.5t179 -68.5z" />
<glyph horiz-adv-x="957" d="M474 -17q-52 0 -100.5 11t-95 38.5t-81 67.5t-55.5 102.5t-21 139.5v15h98v-15q0 -121 71 -192.5t184 -71.5q112 0 183.5 71.5t71.5 192.5v253q-33 -49 -103 -82.5t-152 -33.5q-52 0 -100.5 11.5t-95 39t-81 67.5t-55.5 102.5t-21 140.5v65q0 77 21 139.5t55.5 103 t81 67.5t95 38.5t100.5 11.5t100.5 -11.5t95 -38.5t81 -67.5t55 -103t20.5 -139.5v-563q0 -77 -20.5 -139.5t-55 -102.5t-81 -67.5t-95 -38.5t-100.5 -11zM474 576q112 0 183.5 71.5t71.5 192.5v65q0 120 -71.5 191.5t-183.5 71.5q-113 0 -184 -71t-71 -192v-65 q0 -121 71 -192.5t184 -71.5z" />
<glyph horiz-adv-x="969" d="M484.5 -17q-51.5 0 -100 11t-95 38.5t-81 67.5t-55.5 102.5t-21 139.5v563q0 77 21 139.5t55.5 103t81 67.5t95 38.5t100.5 11.5q42 0 83 -8.5t81.5 -25.5t74 -46t59.5 -68t40.5 -93t14.5 -119v-563q0 -77 -21 -139.5t-55.5 -102.5t-81 -67.5t-95.5 -38.5t-100.5 -11z M485 78q111 0 183 71.5t72 192.5v483l-510 -510q7 -110 77 -173.5t178 -63.5zM230 905v-481l508 508q-8 109 -78 172.5t-175 63.5q-113 0 -184 -71t-71 -192z" />
<glyph horiz-adv-x="969" d="M484.5 -17q-51.5 0 -100 11t-95 38.5t-81 67.5t-55.5 102.5t-21 139.5v563q0 77 21 139.5t55.5 103t81 67.5t95 38.5t100.5 11.5q42 0 83 -8.5t81.5 -25.5t74 -46t59.5 -68t40.5 -93t14.5 -119v-563q0 -77 -21 -139.5t-55.5 -102.5t-81 -67.5t-95.5 -38.5t-100.5 -11z M485 78q111 0 183 71.5t72 192.5v483l-510 -510q7 -110 77 -173.5t178 -63.5zM230 905v-481l508 508q-8 109 -78 172.5t-175 63.5q-113 0 -184 -71t-71 -192z" />
<glyph horiz-adv-x="555" d="M235 704q-74 0 -125 40.5t-51 117.5q0 30 9 57.5t36.5 55.5t70.5 40q75 22 228 31v8q0 43 -19 74t-48.5 45.5t-64.5 14.5q-50 0 -85 -26.5t-43 -76.5h-79q5 47 24.5 82.5t49.5 55.5t63 29.5t70 9.5q39 0 74.5 -11.5t66.5 -34.5t49 -65t18 -98v-339h-76v56 q-51 -66 -168 -66zM253 779q65 0 107.5 33.5t42.5 94.5v69q-175 -10 -219 -36q-28 -15 -38 -32.5t-10 -43.5q0 -38 30 -61.5t87 -23.5z" />
<glyph horiz-adv-x="568" d="M292 704q-39 0 -76 17t-56 49v-56h-76v724h76v-241q19 31 56 48t76 17t74.5 -11.5t66.5 -34.5t49 -65t18 -98v-140q0 -57 -18 -99t-49 -65t-66.5 -34t-74.5 -11zM292 779q27 0 50.5 8.5t41.5 24.5t29 42t11 59v141q0 43 -18.5 74t-48 45.5t-65.5 14.5q-56 0 -94 -35 t-38 -99v-141q0 -33 10.5 -58.5t29 -42t42 -25t50.5 -8.5z" />
<glyph horiz-adv-x="542" d="M278 704q-40 0 -75.5 11t-67 34t-49.5 65t-18 99v140q0 56 18 98t49.5 65t67 34.5t75.5 11.5q36 0 69.5 -9.5t64 -30t50 -57t23.5 -85.5h-79q-6 52 -42.5 80t-85.5 28q-57 0 -94.5 -35t-37.5 -99v-141q0 -64 37.5 -99t94.5 -35q49 0 85.5 28t42.5 80h79q-4 -49 -23.5 -86 t-50 -57.5t-64 -30t-69.5 -9.5z" />
<glyph horiz-adv-x="568" d="M278 704q-40 0 -75.5 11t-67 34t-49.5 65t-18 99v140q0 56 18 98t49.5 65t67 34.5t75.5 11.5q37 0 74 -17t58 -48v241h76v-724h-76v56q-21 -32 -57.5 -49t-74.5 -17zM278 779q55 0 93.5 35t38.5 99v141q0 43 -19 74t-48.5 45.5t-64.5 14.5q-57 0 -94.5 -35t-37.5 -99 v-141q0 -64 37.5 -99t94.5 -35z" />
<glyph horiz-adv-x="548" d="M278 704q-40 0 -75.5 11t-67 34t-49.5 65t-18 99v140q0 56 18 98t49.5 65t67 34.5t75.5 11.5q39 0 74 -11.5t66 -34.5t49.5 -65t18.5 -98v-89h-340v-51q0 -64 37.5 -99t94.5 -35q48 0 84 26.5t44 76.5h79q-5 -48 -25 -84t-50 -55.5t-63 -29t-69 -9.5zM146 1035h264v19 q0 43 -19 74t-48.5 45.5t-64.5 14.5q-57 0 -94.5 -35t-37.5 -99v-19z" />
<glyph horiz-adv-x="338" d="M110 714v460h-76v74h76v63q0 70 27 98.5t100 28.5h81v-73h-81q-28 0 -39 -11t-11 -38v-68h131v-74h-131v-460h-77z" />
<glyph horiz-adv-x="568" d="M276 513q-38 0 -71.5 10t-63 30.5t-49 57t-22.5 86.5h76q8 -53 44 -81t86 -28q55 0 93.5 35t38.5 98v68q-13 -20 -35.5 -35t-47 -21.5t-49.5 -6.5q-40 0 -75.5 10.5t-66 33.5t-48.5 65t-18 99v119q0 56 18 98t48.5 65t66 34.5t75.5 11.5q38 0 75.5 -17t56.5 -48v51h77 v-525q0 -57 -18.5 -99t-49.5 -65.5t-66 -34.5t-75 -11zM275.5 799q55.5 0 94 34.5t38.5 98.5v122q0 64 -38.5 99t-94 35t-93.5 -35t-38 -99v-122q0 -64 38 -98.5t93.5 -34.5z" />
<glyph horiz-adv-x="575" d="M84 714v724h76v-241q19 31 56 48t76 17t74.5 -11.5t66.5 -34.5t49 -65t18 -98v-339h-76v340q0 43 -18.5 74t-48 45.5t-65.5 14.5q-56 0 -94 -35t-38 -99v-340h-76z" />
<glyph horiz-adv-x="241" d="M84 714v534h76v-534h-76zM84 1338v100h76v-100h-76z" />
<glyph horiz-adv-x="241" d="M16 524v75h18q28 0 39 10t11 36v603h76v-597q0 -69 -27 -98t-99 -29h-18zM84 1338v100h76v-100h-76z" />
<glyph horiz-adv-x="532" d="M160 1438v-444l234 254h94l-192 -209l221 -325h-92l-181 269l-84 -92v-177h-76v724h76z" />
<glyph horiz-adv-x="272" d="M224 714h-17q-49 0 -76.5 13.5t-39 40.5t-11.5 73v597h77v-602q0 -27 11 -38t39 -11h17v-73z" />
<glyph horiz-adv-x="884" d="M84 714v534h76v-51q18 30 55 47.5t70 17.5q48 0 91.5 -21t68.5 -63q26 42 70 63t92 21q38 0 72.5 -12t64.5 -36t47.5 -65.5t17.5 -95.5v-339h-76v347q0 57 -37.5 92t-86.5 35q-33 0 -61 -15t-45.5 -46.5t-17.5 -72.5v-340h-77v347q0 57 -37 92t-86 35q-51 0 -88 -36 t-37 -98v-340h-76z" />
<glyph horiz-adv-x="553" d="M278 779q55 0 93.5 35t38.5 99v141q0 43 -19 74t-48.5 45.5t-64.5 14.5q-57 0 -94.5 -35t-37.5 -99v-141q0 -64 37.5 -99t94.5 -35zM278 704q-40 0 -75.5 11t-67 34t-49.5 65t-18 99v140q0 56 18 98t49.5 65t67 34.5t75.5 11.5q39 0 74 -11.5t66 -34.5t49.5 -65t18.5 -98 v-140q0 -57 -18.5 -99t-49.5 -65t-66 -34t-74 -11z" />
<glyph horiz-adv-x="568" d="M84 524v724h76v-51q19 31 56 48t76 17t74.5 -11.5t66.5 -34.5t49 -65t18 -98v-140q0 -57 -18 -99t-49 -65t-66.5 -34t-74.5 -11t-76 17t-56 49v-246h-76zM292 779q27 0 50.5 8.5t41.5 24.5t29 42t11 59v141q0 43 -18.5 74t-48 45.5t-65.5 14.5q-56 0 -94 -35t-38 -99 v-141q0 -33 10.5 -58.5t29 -42t42 -25t50.5 -8.5z" />
<glyph horiz-adv-x="568" d="M410 524v246q-21 -32 -57.5 -49t-74.5 -17q-40 0 -75.5 11t-67 34t-49.5 65t-18 99v140q0 56 18 98t49.5 65t67 34.5t75.5 11.5q37 0 74 -17t58 -48v51h76v-724h-76zM278 779q55 0 93.5 35t38.5 99v141q0 43 -19 74t-48.5 45.5t-64.5 14.5q-57 0 -94.5 -35t-37.5 -99 v-141q0 -64 37.5 -99t94.5 -35z" />
<glyph horiz-adv-x="347" d="M84 714v534h76v-56q20 31 57 48.5t75 17.5h33v-75h-33q-56 0 -94 -35t-38 -99v-335h-76z" />
<glyph horiz-adv-x="496" d="M260 704q-91 0 -150 44.5t-64 137.5h78q5 -55 42 -81t94 -26q108 0 111 76q0 61 -75 79l-105 26q-25 6 -46.5 16t-41.5 27t-32 44t-12 61q0 72 51.5 113t127.5 41q85 0 138 -42.5t59 -127.5h-78q-5 31 -20.5 52.5t-40.5 32.5t-58 11q-45 0 -73 -20.5t-28 -57.5 q0 -57 74 -75l100 -25q66 -16 101 -52t35 -105q0 -75 -50.5 -112t-136.5 -37z" />
<glyph horiz-adv-x="362" d="M315 714h-80q-73 0 -99.5 28.5t-26.5 98.5v333h-77v74h77v121h76v-121h130v-74h-130v-338q0 -27 10.5 -38t39.5 -11h80v-73z" />
<glyph horiz-adv-x="569" d="M282 704q-36 0 -70 10.5t-65.5 33t-50.5 64.5t-19 99v337h76v-334q0 -66 38 -100.5t91 -34.5t90.5 35t37.5 99v335h76v-534h-76v56q-20 -31 -56 -48.5t-72 -17.5z" />
<glyph horiz-adv-x="493" d="M203 714l-191 534h78l158 -437l155 437h80l-192 -534h-88z" />
<glyph horiz-adv-x="717" d="M160 714l-140 534h77l106 -420l118 420h75l119 -420l107 420h77l-141 -534h-80l-120 421l-120 -421h-78z" />
<glyph horiz-adv-x="500" d="M22 714l179 275l-172 259h88l133 -201l131 201h90l-173 -259l181 -275h-87l-142 220l-141 -220h-87z" />
<glyph horiz-adv-x="493" d="M92 524v75h40q24 0 33 7t15 25l27 75l-195 542h78l158 -437l155 437h80l-243 -667q-10 -30 -37.5 -43t-79.5 -14h-31z" />
<glyph horiz-adv-x="493" d="M440 1174l-303 -387h310v-73h-401v73l303 387h-296v74h387v-74z" />
<glyph horiz-adv-x="561" d="M280 704q-39 0 -74.5 11t-66.5 34t-49.5 65t-18.5 99v327q0 56 18.5 98t49.5 65t66.5 34.5t74.5 11.5q40 0 75.5 -11t66 -34.5t48.5 -65.5t18 -98v-327q0 -57 -18 -99t-48.5 -65t-66 -34t-75.5 -11zM148 1240v-257l264 263q-3 61 -40 94.5t-92 33.5q-36 0 -65 -14.5 t-48 -46t-19 -73.5zM280 779q57 0 94.5 35t37.5 99v258l-264 -266q2 -60 40 -93t92 -33z" />
<glyph horiz-adv-x="293" d="M92 714v107h109v-107h-109z" />
<glyph horiz-adv-x="423" d="M63 971v66h299v-66h-299z" />
<glyph horiz-adv-x="293" d="M92 714v107h109v-107l-36 -95h-65l36 95h-44z" />
<glyph horiz-adv-x="555" d="M235 -184q-74 0 -125 41t-51 118q0 30 9 57.5t36.5 55t70.5 40.5q75 21 228 30v10q0 63 -38.5 98t-93.5 35q-50 0 -85 -26.5t-43 -77.5h-79q5 48 24.5 83.5t49.5 55t63 29t70 9.5q39 0 74.5 -11t66.5 -34t49 -65t18 -99v-338h-76v56q-51 -67 -168 -67zM253 -109 q65 0 107.5 34t42.5 95v69q-175 -11 -219 -36q-28 -15 -38 -33t-10 -43q0 -38 30 -62t87 -24z" />
<glyph horiz-adv-x="568" d="M292 -184q-39 0 -76 17.5t-56 49.5v-56h-76v724h76v-241q19 30 56 47t76 17t74.5 -11t66.5 -34t49 -65.5t18 -98.5v-140q0 -56 -18 -98t-49 -65.5t-66.5 -34.5t-74.5 -11zM292 -109q56 0 94 35.5t38 98.5v143q0 63 -38 98t-94 35t-94 -34.5t-38 -98.5v-143q0 -64 38 -99 t94 -35z" />
<glyph horiz-adv-x="542" d="M278 -184q-40 0 -75.5 11t-67 34.5t-49.5 65.5t-18 98v140q0 57 18 99t49.5 65t67 34t75.5 11q36 0 69.5 -9.5t64 -29.5t50 -56.5t23.5 -86.5h-79q-6 53 -42.5 81t-85.5 28q-57 0 -94.5 -34.5t-37.5 -98.5v-143q0 -64 37.5 -99t94.5 -35q49 0 85.5 28.5t42.5 80.5h79 q-4 -49 -23.5 -86t-50 -57.5t-64 -30.5t-69.5 -10z" />
<glyph horiz-adv-x="568" d="M278 -184q-40 0 -75.5 11t-67 34.5t-49.5 65.5t-18 98v140q0 57 18 99t49.5 65t67 34t75.5 11q18 0 36.5 -4t36 -12t33 -20.5t26.5 -27.5v241h76v-724h-76v56q-14 -22 -36.5 -37t-47 -22.5t-48.5 -7.5zM278 -109q55 0 93.5 35.5t38.5 98.5v143q0 63 -38.5 98t-93.5 35 q-57 0 -94.5 -34.5t-37.5 -98.5v-143q0 -64 37.5 -99t94.5 -35z" />
<glyph horiz-adv-x="548" d="M278 -184q-40 0 -75.5 11t-67 34.5t-49.5 65.5t-18 98v140q0 57 18 99t49.5 65t67 34t75.5 11q39 0 74 -11t66 -34t49.5 -65.5t18.5 -98.5v-88h-340v-52q0 -64 37.5 -99t94.5 -35q31 0 57.5 11t45.5 35t25 58h79q-5 -48 -25 -84t-50 -56t-63 -29.5t-69 -9.5zM146 148h264 v20q0 63 -38.5 98t-93.5 35q-57 0 -94.5 -34.5t-37.5 -98.5v-20z" />
<glyph horiz-adv-x="338" d="M110 -173v460h-76v73h76v64q0 70 27 98.5t100 28.5h81v-73h-81q-28 0 -39 -10.5t-11 -37.5v-70h131v-73h-131v-460h-77z" />
<glyph horiz-adv-x="568" d="M276 -374q-38 0 -71.5 9.5t-63 30t-49 57.5t-22.5 86h76q4 -26 16 -47t29.5 -34.5t39 -20t45.5 -6.5q55 0 93.5 35t38.5 99v67q-19 -31 -56.5 -47.5t-75.5 -16.5q-40 0 -75.5 11t-66 34t-48.5 65t-18 98v119q0 57 18 99t48.5 65t66 34t75.5 11q38 0 75.5 -17t56.5 -47v50 h77v-524q0 -45 -12.5 -82t-32.5 -60.5t-47.5 -39t-56.5 -22t-60 -6.5zM275.5 -89q55.5 0 94 35t38.5 98v124q0 63 -38.5 98t-93.5 35q-36 0 -65 -14.5t-48 -45t-19 -73.5v-124q0 -63 38 -98t93.5 -35z" />
<glyph horiz-adv-x="575" d="M84 -173v724h76v-241q19 30 56 47t76 17t74.5 -11t66.5 -34t49 -65.5t18 -98.5v-338h-76v341q0 63 -38 98t-94 35t-94 -34.5t-38 -98.5v-341h-76z" />
<glyph horiz-adv-x="241" d="M84 -173v533h76v-533h-76zM84 451v100h76v-100h-76z" />
<glyph horiz-adv-x="241" d="M16 -364v75h18q28 0 39 10.5t11 35.5v603h76v-597q0 -68 -27 -97.5t-99 -29.5h-18zM84 451v100h76v-100h-76z" />
<glyph horiz-adv-x="532" d="M160 551v-444l234 253h94l-192 -209l221 -324h-92l-181 270l-84 -94v-176h-76v724h76z" />
<glyph horiz-adv-x="272" d="M224 -173h-17q-49 0 -76.5 13t-39 40t-11.5 74v597h77v-602q0 -27 11 -38t39 -11h17v-73z" />
<glyph horiz-adv-x="884" d="M84 -173v533h76v-50q18 30 55 47t70 17q48 0 91.5 -20.5t68.5 -62.5q26 41 70 62t92 21q38 0 72.5 -11.5t64.5 -35.5t47.5 -65.5t17.5 -96.5v-338h-76v346q0 38 -18.5 68t-46.5 45t-59 15q-51 0 -87.5 -36t-36.5 -97v-341h-77v346q0 39 -18 68.5t-46 44.5t-59 15 q-51 0 -88 -36t-37 -97v-341h-76z" />
<glyph horiz-adv-x="575" d="M84 -173v533h76v-50q19 30 56 47t76 17t74.5 -11t66.5 -34t49 -65.5t18 -98.5v-338h-76v341q0 63 -38 98t-94 35t-94 -34.5t-38 -98.5v-341h-76z" />
<glyph horiz-adv-x="553" d="M278 -109q55 0 93.5 35.5t38.5 98.5v143q0 63 -38.5 98t-93.5 35q-57 0 -94.5 -34.5t-37.5 -98.5v-143q0 -64 37.5 -99t94.5 -35zM278 -184q-40 0 -75.5 11t-67 34.5t-49.5 65.5t-18 98v140q0 57 18 99t49.5 65t67 34t75.5 11q39 0 74 -11t66 -34t49.5 -65.5t18.5 -98.5 v-140q0 -56 -18.5 -98t-49.5 -65.5t-66 -34.5t-74 -11z" />
<glyph horiz-adv-x="568" d="M84 -364v724h76v-50q19 30 56 47t76 17t74.5 -11t66.5 -34t49 -65.5t18 -98.5v-140q0 -56 -18 -98t-49 -65.5t-66.5 -34.5t-74.5 -11t-76 17.5t-56 49.5v-247h-76zM292 -109q56 0 94 35.5t38 98.5v143q0 63 -38 98t-94 35t-94 -34.5t-38 -98.5v-143q0 -64 38 -99t94 -35z " />
<glyph horiz-adv-x="568" d="M410 -364v247q-14 -22 -36.5 -37t-47 -22.5t-48.5 -7.5q-40 0 -75.5 11t-67 34.5t-49.5 65.5t-18 98v140q0 57 18 99t49.5 65t67 34t75.5 11q18 0 36.5 -4t36 -12t33 -20.5t26.5 -27.5v50h76v-724h-76zM278 -109q55 0 93.5 35.5t38.5 98.5v143q0 63 -38.5 98t-93.5 35 q-57 0 -94.5 -34.5t-37.5 -98.5v-143q0 -64 37.5 -99t94.5 -35z" />
<glyph horiz-adv-x="347" d="M84 -173v533h76v-56q20 31 57 49t75 18h33v-75h-33q-56 0 -94 -35t-38 -99v-335h-76z" />
<glyph horiz-adv-x="496" d="M260 -184q-91 0 -150 45t-64 137h78q5 -54 42 -80.5t94 -26.5q108 0 111 77q0 61 -75 78l-105 27q-25 6 -46.5 16t-41.5 26.5t-32 44t-12 61.5q0 71 51.5 112t127.5 41q85 0 138 -42t59 -127h-78q-7 47 -38 71.5t-81 24.5q-45 0 -73 -21t-28 -57q0 -57 74 -75l100 -25 q66 -17 101 -53t35 -104q0 -76 -50.5 -113t-136.5 -37z" />
<glyph horiz-adv-x="362" d="M315 -173h-80q-73 0 -99.5 28.5t-26.5 98.5v333h-77v73h77v121h76v-121h130v-73h-130v-338q0 -28 10.5 -38.5t39.5 -10.5h80v-73z" />
<glyph horiz-adv-x="569" d="M282 -184q-36 0 -70 11t-65.5 33.5t-50.5 64.5t-19 98v337h76v-333q0 -45 19.5 -77t47.5 -45.5t62 -13.5q53 0 90.5 35.5t37.5 98.5v335h76v-533h-76v56q-20 -31 -56 -49t-72 -18z" />
<glyph horiz-adv-x="493" d="M203 -173l-191 533h78l158 -437l155 437h80l-192 -533h-88z" />
<glyph horiz-adv-x="717" d="M160 -173l-140 533h77l106 -419l118 419h75l119 -419l107 419h77l-141 -533h-80l-120 421l-120 -421h-78z" />
<glyph horiz-adv-x="500" d="M22 -173l179 275l-172 258h88l133 -200l131 200h90l-173 -258l181 -275h-87l-142 219l-141 -219h-87z" />
<glyph horiz-adv-x="493" d="M92 -364v75h40q17 0 26.5 4.5t13.5 10.5t8 17l27 75l-195 542h78l158 -437l155 437h80l-243 -666q-10 -30 -37.5 -43t-79.5 -15h-31z" />
<glyph horiz-adv-x="493" d="M440 287l-303 -387h310v-73h-401v73l303 387h-296v73h387v-73z" />
<glyph horiz-adv-x="561" d="M280 -184q-39 0 -74.5 11t-66.5 34.5t-49.5 65.5t-18.5 98v328q0 46 12.5 82t33 59t48 38.5t56 22t59.5 6.5q32 0 60.5 -6.5t56 -22t47.5 -38.5t32 -59t12 -82v-328q0 -56 -18 -98t-48.5 -65.5t-66 -34.5t-75.5 -11zM148 353v-256l264 261q-3 62 -40 95t-92 33 q-36 0 -65 -14t-48 -45t-19 -74zM280 -109q57 0 94.5 35t37.5 99v259l-264 -267q2 -59 40 -92.5t92 -33.5z" />
<glyph horiz-adv-x="293" d="M92 -173v107h109v-107h-109z" />
<glyph horiz-adv-x="423" d="M63 84v66h299v-66h-299z" />
<glyph horiz-adv-x="293" d="M92 -173v107h109v-107l-36 -96h-65l36 96h-44z" />
<glyph horiz-adv-x="587" d="M85 -27v66h418v-66h-418zM85 184v66h418v-66h-418z" />
<glyph horiz-adv-x="587" d="M85 84v66h179v175h66v-175h173v-66h-173v-176h-66v176h-179z" />
<glyph horiz-adv-x="587" d="M85 84v66h418v-66h-418z" />
<glyph horiz-adv-x="505" d="M264 524v622l-140 -119v101l140 120h76v-724h-76z" />
<glyph horiz-adv-x="614" d="M90 524v73l277 317q65 74 65 139q0 41 -19 71t-48.5 44.5t-65.5 14.5q-55 0 -93 -35t-38 -99v-19h-78v19q0 56 18.5 98.5t49.5 65.5t66 34t75 11t75.5 -11t66.5 -34.5t49 -65t18 -96.5q0 -54 -20 -94.5t-66 -94.5l-231 -265h317v-73h-418z" />
<glyph horiz-adv-x="609" d="M303 513q-41 0 -77 11t-68 34t-50.5 65t-18.5 98v10h76v-10q0 -63 39.5 -98t98.5 -35q57 0 92 34t35 94q0 55 -35 95.5t-92 40.5h-52v73h52q56 0 91.5 34t35.5 95q0 39 -18 69t-48 45t-66 15q-56 0 -94.5 -35t-38.5 -99v-8h-76v8q0 56 18.5 98.5t49.5 65.5t66 34t75 11 t77 -12t67 -35.5t48 -63.5t18 -93q0 -38 -12.5 -72.5t-32.5 -58t-45 -36.5q25 -14 45 -37.5t32.5 -59t12.5 -74.5q0 -42 -12 -76.5t-31.5 -57.5t-46 -39t-55.5 -23t-60 -7z" />
<glyph horiz-adv-x="522" d="M299 524v195h-331v74l331 455h77v-455h76v-74h-76v-195h-77zM59 793h240v329z" />
<glyph horiz-adv-x="605" d="M315 513q-39 0 -74.5 11t-66 34t-49 65t-18.5 98v10h77v-10q0 -63 37.5 -98t93.5 -35q57 0 94.5 35t37.5 98v54q0 64 -37.5 98.5t-94.5 34.5q-41 0 -74 -20t-47 -58h-78v418h381v-74h-305v-234q49 41 123 41q31 0 60 -6t56.5 -21.5t47.5 -39t32.5 -59.5t12.5 -82v-52 q0 -56 -18.5 -98t-49 -65t-66 -34t-75.5 -11z" />
<glyph horiz-adv-x="607" d="M306 513q-39 0 -74 11t-66 34t-49.5 65t-18.5 98v328q0 46 12.5 82t32.5 59.5t47.5 39t56 22t59.5 6.5q40 0 75.5 -11t66.5 -34t49 -65.5t18 -98.5v-8h-77v8q0 64 -37.5 99t-94.5 35q-55 0 -93 -35t-38 -99v-126q19 23 56.5 37t74.5 14q40 0 75.5 -10.5t66.5 -33.5 t49 -65t18 -99v-45q0 -56 -18 -98t-49 -65t-66.5 -34t-75.5 -11zM306 588q57 0 94.5 35t37.5 98v47q0 64 -37.5 98.5t-94.5 34.5q-55 0 -93 -34.5t-38 -98.5v-47q0 -63 38 -98t93 -35z" />
<glyph horiz-adv-x="455" d="M164 524l228 650h-331v74h410v-74l-228 -650h-79z" />
<glyph horiz-adv-x="569" d="M285 513q-26 0 -51.5 5.5t-49 16.5t-43 28t-34 39.5t-22.5 52.5t-8 64q0 115 85 168q-78 62 -78 167q0 52 17 92t45.5 64t64 36t75 12t74.5 -12t64 -36t45.5 -64t16.5 -92q0 -105 -78 -167q85 -53 85 -168q0 -51 -17.5 -91.5t-47 -65t-66 -37t-77.5 -12.5zM285 588 q36 0 65.5 15.5t48 46t18.5 69.5q0 59 -39 96t-93 37q-35 0 -65 -16t-48.5 -47t-18.5 -70q0 -59 39 -95t93 -36zM285 925q55 0 90 34t35 95q0 58 -33.5 93.5t-91 35.5t-91.5 -35.5t-34 -93.5q0 -41 17 -71t45 -44t63 -14z" />
<glyph horiz-adv-x="607" d="M301 513q-31 0 -60 6.5t-56.5 22t-47.5 38.5t-32.5 59.5t-12.5 81.5v10h78v-10q0 -63 37.5 -98t93.5 -35t94 35t38 98v127q-19 -23 -57 -37.5t-75 -14.5q-31 0 -60 6.5t-56.5 22t-47.5 39t-32.5 59.5t-12.5 82v44q0 56 18.5 98.5t49 65.5t66 34t75.5 11q39 0 74.5 -11 t66.5 -34t49.5 -65.5t18.5 -98.5v-328q0 -56 -18.5 -98t-49.5 -65t-66.5 -34t-74.5 -11zM301 869q56 0 94 35.5t38 98.5v46q0 64 -38 99t-93.5 35t-93.5 -35t-38 -99v-46q0 -26 7 -48t19 -37.5t28.5 -26.5t36 -16.5t40.5 -5.5z" />
<glyph horiz-adv-x="612" d="M306 513q-39 0 -74 11t-66 34t-49.5 65t-18.5 98v328q0 46 12.5 82t32.5 59.5t47.5 39t56 22t59.5 6.5q40 0 75.5 -11t66.5 -34t49 -65.5t18 -98.5v-328q0 -56 -18 -98t-49 -65t-66.5 -34t-75.5 -11zM175 1049v-256l263 261q-2 62 -39.5 95.5t-92.5 33.5t-93 -35t-38 -99 zM306 588q57 0 94.5 35t37.5 98v259l-263 -266q2 -40 20.5 -69t47 -43t63.5 -14z" />
<glyph horiz-adv-x="612" d="M306 513q-39 0 -74 11t-66 34t-49.5 65t-18.5 98v328q0 46 12.5 82t32.5 59.5t47.5 39t56 22t59.5 6.5q40 0 75.5 -11t66.5 -34t49 -65.5t18 -98.5v-328q0 -56 -18 -98t-49 -65t-66.5 -34t-75.5 -11zM175 1049v-256l263 261q-2 62 -39.5 95.5t-92.5 33.5t-93 -35t-38 -99 zM306 588q57 0 94.5 35t37.5 98v259l-263 -266q2 -40 20.5 -69t47 -43t63.5 -14z" />
<glyph horiz-adv-x="505" d="M264 0v622l-140 -119v101l140 119h76v-723h-76z" />
<glyph horiz-adv-x="614" d="M90 0v73l277 318q65 73 65 138q0 41 -19 71.5t-48.5 44.5t-65 14t-65 -14.5t-48 -45.5t-18.5 -74v-19h-78v19q0 57 18.5 99t49.5 65t66 34t75 11t75.5 -11t66.5 -34.5t49 -65t18 -96.5q0 -53 -20 -94t-66 -95l-231 -265h317v-73h-418z" />
<glyph horiz-adv-x="609" d="M303 -10q-41 0 -77 10.5t-68 33.5t-50.5 65t-18.5 98v10h76v-10q0 -63 39.5 -98t98.5 -35q57 0 92 34t35 94q0 55 -35 95.5t-92 40.5h-52v73h52q56 0 91.5 34.5t35.5 95.5q0 58 -38 93t-94 35q-27 0 -50.5 -8.5t-42 -24.5t-29.5 -42t-11 -59v-8h-76v8q0 57 18.5 99 t49.5 65t66 34t75 11t77 -11.5t67 -35.5t48 -64t18 -92q0 -39 -12.5 -73.5t-32.5 -57.5t-45 -36q39 -22 64.5 -67.5t25.5 -104.5q0 -42 -12 -76.5t-31.5 -57.5t-46 -38.5t-55.5 -22.5t-60 -7z" />
<glyph horiz-adv-x="522" d="M299 0v196h-331v73l331 454h77v-454h76v-73h-76v-196h-77zM59 269h240v330z" />
<glyph horiz-adv-x="605" d="M315 -10q-39 0 -74.5 10.5t-66 33.5t-49 65t-18.5 98v10h77v-10q0 -63 37.5 -98t93.5 -35q57 0 94.5 35t37.5 98v54q0 64 -37.5 99t-94.5 35q-41 0 -74 -20.5t-47 -58.5h-78v417h381v-72h-305v-234q49 41 123 41q26 0 50.5 -5t48 -14.5t43.5 -26t35 -39t23.5 -54 t8.5 -69.5v-53q0 -56 -18.5 -98t-49 -65t-66 -33.5t-75.5 -10.5z" />
<glyph horiz-adv-x="607" d="M306 -10q-39 0 -74 10.5t-66 33.5t-49.5 65t-18.5 98v328q0 57 18.5 99t49.5 65t66 34t74 11q32 0 60.5 -6.5t56 -22t48 -39t32.5 -59.5t12 -82v-8h-77v8q0 64 -37.5 99t-94.5 35q-35 0 -64.5 -14.5t-48 -45.5t-18.5 -74v-126q6 7 13.5 13t16 11.5t18.5 9.5t20 7.5 t21 5.5t21.5 3.5t20.5 1.5q32 0 60.5 -6.5t56 -22t48 -38.5t32.5 -59.5t12 -81.5v-46q0 -56 -18 -98t-49 -65t-66.5 -33.5t-75.5 -10.5zM306 64q57 0 94.5 35t37.5 98v47q0 64 -37.5 99t-94.5 35q-55 0 -93 -35t-38 -99v-47q0 -63 38 -98t93 -35z" />
<glyph horiz-adv-x="455" d="M164 0l228 651h-331v72h410v-72l-228 -651h-79z" />
<glyph horiz-adv-x="569" d="M285.5 -10q-40.5 0 -77 12.5t-66.5 36.5t-47.5 64.5t-17.5 92.5q0 115 85 168q-78 61 -78 167q0 51 17 91.5t45.5 64t64 35.5t75 12t74.5 -12t64 -36t45.5 -64t16.5 -91q0 -106 -78 -167q85 -53 85 -168q0 -52 -17.5 -92.5t-47 -64.5t-66 -36.5t-77 -12.5zM285.5 64 q35.5 0 65 15.5t48 46t18.5 70.5q0 39 -18.5 69.5t-48.5 46.5t-65 16t-65 -16t-48.5 -46.5t-18.5 -69.5q0 -40 18.5 -70.5t48.5 -46t65.5 -15.5zM285.5 401q54.5 0 89.5 34t35 96q0 57 -33.5 92.5t-91 35.5t-91.5 -35.5t-34 -92.5q0 -62 35.5 -96t90 -34z" />
<glyph horiz-adv-x="607" d="M301 -10q-31 0 -60 6t-56.5 21.5t-47.5 39t-32.5 59.5t-12.5 81v10h78v-10q0 -42 18.5 -73t47.5 -45.5t65 -14.5q56 0 94 35t38 98v128q-19 -24 -57 -38.5t-75 -14.5q-22 0 -43 3.5t-42 11t-39 18.5t-34 28t-27 38t-17.5 49t-6.5 61v44q0 57 18.5 99t49 65t66 34t75.5 11 q39 0 74.5 -11t66.5 -34t49.5 -65t18.5 -99v-328q0 -56 -18.5 -98t-49.5 -65t-66.5 -33.5t-74.5 -10.5zM301.5 345q55.5 0 93.5 35.5t38 98.5v46q0 64 -38 99t-93.5 35t-93.5 -35t-38 -99v-46q0 -63 38 -98.5t93.5 -35.5z" />
<glyph horiz-adv-x="612" d="M306 -10q-39 0 -74 10.5t-66 33.5t-49.5 65t-18.5 98v328q0 57 18.5 99t49.5 65t66 34t74 11q32 0 60.5 -6.5t56 -22t48 -39t32.5 -59.5t12 -82v-328q0 -56 -18 -98t-49 -65t-66.5 -33.5t-75.5 -10.5zM175 525v-256l263 262q-1 31 -12 55.5t-29 40.5t-41 24t-50 8 q-35 0 -64.5 -14.5t-48 -45.5t-18.5 -74zM306 64q57 0 94.5 35t37.5 98v259l-263 -265q2 -60 39.5 -93.5t91.5 -33.5z" />
<glyph horiz-adv-x="612" d="M306 -10q-39 0 -74 10.5t-66 33.5t-49.5 65t-18.5 98v328q0 57 18.5 99t49.5 65t66 34t74 11q32 0 60.5 -6.5t56 -22t48 -39t32.5 -59.5t12 -82v-328q0 -56 -18 -98t-49 -65t-66.5 -33.5t-75.5 -10.5zM175 525v-256l263 262q-1 31 -12 55.5t-29 40.5t-41 24t-50 8 q-35 0 -64.5 -14.5t-48 -45.5t-18.5 -74zM306 64q57 0 94.5 35t37.5 98v259l-263 -265q2 -60 39.5 -93.5t91.5 -33.5z" />
<glyph horiz-adv-x="1077" d="M458 0q-79 0 -143.5 23.5t-108.5 67t-68 107t-24 140.5q0 102 45 177.5t123 113.5q-83 35 -125.5 108.5t-42.5 175.5q0 71 19 128.5t51.5 95t76 63t90.5 37t98 11.5h272v-97h-272q-112 0 -174.5 -65.5t-62.5 -172.5t62.5 -171.5t174.5 -64.5h272v143h99v-143h226v-96 h-226v-581h-362zM458 97h263v484h-263q-123 0 -184.5 -67.5t-61.5 -173.5q0 -107 61.5 -175t184.5 -68z" />
<glyph horiz-adv-x="748" d="M632 561h-516v80h516v-80z" />
<glyph horiz-adv-x="936" d="M821 561h-705v80h705v-80z" />
<glyph horiz-adv-x="1476" d="M1362 561h-1246v80h1246v-80z" />
<glyph horiz-adv-x="915" d="M396 374v39q0 55 20 97t74 90l107 99q103 95 103 206q0 120 -71.5 191.5t-183.5 71.5t-183 -71t-71 -192v-14h-99v14q0 77 21 139.5t55.5 103t81 67.5t95.5 38.5t100 11.5q43 0 84 -8.5t81.5 -25.5t74 -46t59.5 -68t40.5 -93t14.5 -119q0 -54 -20 -107t-48.5 -92.5 t-65.5 -73.5l-107 -98q-39 -36 -52 -60.5t-13 -60.5v-39h-97zM365 0v150h150v-150h-150z" />
<glyph horiz-adv-x="915" d="M520 873v-40q0 -54 -20.5 -96t-74.5 -91l-106 -97q-103 -96 -103 -207q0 -121 71.5 -192.5t183.5 -71.5t183.5 71.5t71.5 192.5v15h97v-15q0 -77 -21 -139.5t-55.5 -102.5t-81 -67.5t-95 -38.5t-100 -11t-100 11t-95.5 38.5t-81 67.5t-55.5 102.5t-21.5 139.5 q0 54 20 107t48.5 93t65.5 73l107 98q39 36 51.5 60.5t12.5 59.5v40h98zM551 1248v-150h-150v150h150z" />
<glyph horiz-adv-x="488" d="M194 1248h98v-874h-98v874zM170 0v150h149v-150h-149z" />
<glyph horiz-adv-x="488" d="M292 0h-98v873h98v-873zM170 1098v150h149v-150h-149z" />
<glyph horiz-adv-x="541" d="M408 285l-289 255v96l289 255v-105l-224 -198l224 -197v-106z" />
<glyph horiz-adv-x="541" d="M422 540l-288 -255v106l224 197l-224 198v105l288 -255v-96z" />
<glyph horiz-adv-x="838" d="M408 285l-289 255v96l289 255v-105l-224 -198l224 -197v-106zM706 285l-289 255v96l289 255v-105l-225 -198l225 -197v-106z" />
<glyph horiz-adv-x="838" d="M422 540l-288 -255v106l224 197l-224 198v105l288 -255v-96zM719 540l-287 -255v106l224 197l-224 198v105l287 -255v-96z" />
<glyph horiz-adv-x="484" d="M189 184v880q0 47 8.5 79t29 56.5t58.5 36.5t94 12h19v-75h-19q-67 0 -90.5 -25t-23.5 -84v-880q0 -59 23.5 -84t90.5 -25h19v-75h-19q-56 0 -94 12t-58.5 36.5t-29 56.5t-8.5 79z" />
<glyph horiz-adv-x="484" d="M296 1064v-880q0 -47 -8.5 -79t-29.5 -56.5t-58.5 -36.5t-94.5 -12h-18v75h18q24 0 41.5 3t30.5 9t21 14.5t13 21.5t6.5 27t1.5 34v880q0 59 -23 84t-91 25h-18v75h18q57 0 94.5 -12t58.5 -36.5t29.5 -56.5t8.5 -79z" />
<glyph horiz-adv-x="484" d="M189 0v1248h209v-75h-133v-1098h133v-75h-209z" />
<glyph horiz-adv-x="484" d="M296 1248v-1248h-209v75h132v1098h-132v75h209z" />
<glyph horiz-adv-x="541" d="M132 586h-18v75h18q35 0 58 6.5t35 21t16.5 33.5t4.5 48v294q0 47 8.5 79t29.5 56.5t58.5 36.5t94.5 12h17v-75h-17q-68 0 -91 -25t-23 -84v-294q0 -109 -61 -146q61 -40 61 -146v-294q0 -59 23 -84t91 -25h17v-75h-17q-57 0 -94.5 12t-58.5 36.5t-29.5 56.5t-8.5 79v294 q0 58 -23 83t-91 25z" />
<glyph horiz-adv-x="541" d="M428 586h-18q-68 0 -91 -25t-23 -83v-294q0 -47 -8.5 -79t-29.5 -56.5t-58.5 -36.5t-94.5 -12h-18v75h18q24 0 41.5 3t30.5 9t21 14.5t13 21.5t6.5 27t1.5 34v294q0 106 61 146q-61 37 -61 146v294q0 59 -23 84t-91 25h-18v75h18q57 0 94.5 -12t58.5 -36.5t29.5 -56.5 t8.5 -79v-294q0 -29 4.5 -48t16.5 -33.5t35 -21t58 -6.5h18v-75z" />
<glyph horiz-adv-x="396" d="M160 0v1248h77v-1248h-77z" />
<glyph horiz-adv-x="396" d="M160 0v515h77v-515h-77zM160 733v515h77v-515h-77z" />
<glyph horiz-adv-x="505" d="M178 544v149h150v-149h-150z" />
<glyph horiz-adv-x="1552" d="M1119 1083v-748q0 -44 28 -78t80.5 -34t80 33.5t27.5 78.5v525q0 67 -19.5 134t-63.5 132.5t-106.5 115.5t-158 81t-210.5 31t-210.5 -31t-158.5 -81t-106.5 -115.5t-63 -132.5t-19.5 -134v-474q0 -66 19.5 -133t63 -132.5t106.5 -115.5t158.5 -81t210.5 -31 q212 0 358 105l45 -64q-164 -116 -403 -116q-95 0 -178.5 19t-147 51t-115.5 76.5t-87.5 95.5t-59.5 107t-35 111t-11 108v474q0 54 11 109t35 111t59.5 106.5t87.5 95t115.5 77t147 51.5t178.5 19t178.5 -19t147 -51.5t115.5 -77t87.5 -95t59.5 -106.5t35 -111t11 -109 v-511q0 -101 -50 -152t-137 -51q-80 0 -131 38t-68 92q-40 -62 -110 -96t-149 -34q-51 0 -100 11.5t-95.5 39t-81 67.5t-55.5 102.5t-21 139.5v242q0 77 21 139.5t55.5 103t81 67.5t95.5 38.5t100 11.5q79 0 149 -34t110 -96v105h94zM1025 506v242q0 122 -72.5 195.5 t-186 73.5t-186 -73.5t-72.5 -195.5v-242q0 -122 72.5 -195.5t186 -73.5t186 73.5t72.5 195.5z" />
<glyph d="M458 248v313h-314v80h314v313h80v-313h312v-80h-312v-313h-80z" />
<glyph d="M850 561h-706v80h706v-80z" />
<glyph d="M424 955.5q0 30.5 22 52.5t52.5 22t52.5 -22t22 -52.5t-22 -53t-52.5 -22.5t-52.5 22.5t-22 53zM424 248q0 31 22 53t52.5 22t52.5 -22t22 -53t-22 -53t-52.5 -22t-52.5 22t-22 53zM850 561h-706v80h706v-80z" />
<glyph d="M859 903l-305 -303l305 -301l-57 -56l-305 301l-303 -301l-57 56l303 301l-303 303l57 57l303 -302l305 302z" />
<glyph d="M144 806h706v-80h-706v80zM850 378h-706v80h706v-80z" />
<glyph d="M458 666h-314v80h314v275h80v-275h312v-80h-312v-274h-80v274zM850 102h-706v80h706v-80z" />
<glyph d="M221 563l629 -379v-92l-706 427v88l706 427v-92z" />
<glyph d="M144 184l629 379l-629 379v92l706 -427v-88l-706 -427v92z" />
<glyph d="M850 313l-706 321v79l706 321v-86l-602 -275l602 -274v-86zM850 102h-706v80h706v-80z" />
<glyph d="M850 634l-706 -321v86l602 274l-602 275v86l706 -321v-79zM850 102h-706v80h706v-80z" />
<glyph d="M228 378h-84v80h164l268 268h-432v80h512l140 140l54 -55l-85 -85h85v-80h-166l-267 -268h433v-80h-513l-140 -140l-53 56z" />
<glyph horiz-adv-x="561" d="M304 1522h154l-228 -194h-104z" />
<glyph horiz-adv-x="694" d="M405 1418q44 0 73.5 29.5t29.5 74.5h91q0 -81 -57 -137.5t-137 -56.5h-114q-81 0 -137.5 56.5t-56.5 137.5h90q0 -45 29.5 -74.5t74.5 -29.5h114z" />
<glyph horiz-adv-x="762" d="M651 1522l-223 -194h-93l-223 194h128l141 -113l141 113h129z" />
<glyph horiz-adv-x="447" d="M107 -282l94 282h100l-68 -282h-126z" />
<glyph horiz-adv-x="762" d="M428 1522l223 -194h-129l-141 112l-141 -112h-128l223 194h93z" />
<glyph horiz-adv-x="729" d="M226 1502v-155h-98v155h98zM602 1502v-155h-97v155h97z" />
<glyph horiz-adv-x="307" d="M203 1502v-155h-98v155h98z" />
<glyph horiz-adv-x="561" d="M104 1522h153l178 -194h-104z" />
<glyph horiz-adv-x="826" d="M287 1522h145l-211 -194h-95zM579 1522h144l-210 -194h-95z" />
<glyph horiz-adv-x="760" d="M638 1379h-515v83h515v-83z" />
<glyph horiz-adv-x="413" d="M235 0h98q-34 -25 -54.5 -41.5t-44.5 -40t-35.5 -46t-11.5 -45.5q0 -73 71 -73q30 0 75 22v-89q-38 -24 -83 -24q-74 0 -117.5 42t-43.5 111q0 113 146 184z" />
<glyph horiz-adv-x="454" d="M95 1423q0 55 38.5 94.5t92.5 39.5q55 0 94.5 -39.5t39.5 -94.5q0 -36 -18 -66t-49 -47.5t-67 -17.5q-55 0 -93 38.5t-38 92.5zM175 1423q0 -21 15 -36t36 -15q22 0 38 15t16 36q0 22 -16 38t-38 16q-21 0 -36 -16t-15 -38z" />
<glyph horiz-adv-x="785" d="M299 1506q40 0 80 -22l59 -30q35 -18 52 -18q47 0 78 66h100q-15 -50 -37 -83t-48 -48t-48 -20.5t-49 -5.5q-40 0 -80 22l-59 30q-35 18 -51 18q-47 0 -78 -67h-101q16 50 38 83.5t48 48.5t48 20.5t48 5.5z" />
<glyph horiz-adv-x="1552" d="M1119 1083v-748q0 -44 28 -78t80.5 -34t80 33.5t27.5 78.5v525q0 67 -19.5 134t-63.5 132.5t-106.5 115.5t-158 81t-210.5 31t-210.5 -31t-158.5 -81t-106.5 -115.5t-63 -132.5t-19.5 -134v-474q0 -66 19.5 -133t63 -132.5t106.5 -115.5t158.5 -81t210.5 -31 q212 0 358 105l45 -64q-164 -116 -403 -116q-95 0 -178.5 19t-147 51t-115.5 76.5t-87.5 95.5t-59.5 107t-35 111t-11 108v474q0 54 11 109t35 111t59.5 106.5t87.5 95t115.5 77t147 51.5t178.5 19t178.5 -19t147 -51.5t115.5 -77t87.5 -95t59.5 -106.5t35 -111t11 -109 v-511q0 -101 -50 -152t-137 -51q-80 0 -131 38t-68 92q-40 -62 -110 -96t-149 -34q-51 0 -100 11.5t-95.5 39t-81 67.5t-55.5 102.5t-21 139.5v242q0 77 21 139.5t55.5 103t81 67.5t95.5 38.5t100 11.5q79 0 149 -34t110 -96v105h94zM1025 506v242q0 122 -72.5 195.5 t-186 73.5t-186 -73.5t-72.5 -195.5v-242q0 -122 72.5 -195.5t186 -73.5t186 73.5t72.5 195.5z" />
<glyph horiz-adv-x="965" d="M823 920v-920h-94v112q-40 -62 -110 -95.5t-148 -33.5q-52 0 -100.5 11t-95.5 38.5t-81 67.5t-55.5 102.5t-21.5 139.5v243q0 77 21.5 139.5t55.5 102.5t81 67t95.5 38.5t100.5 11.5q78 0 148 -33.5t110 -96.5v106h94zM729 342v243q0 122 -72 195t-186 73t-186.5 -73 t-72.5 -195v-243q0 -122 72.5 -195.5t186.5 -73.5t186 73.5t72 195.5z" />
<glyph horiz-adv-x="965" d="M823 920v-920h-94v112q-40 -62 -110 -95.5t-148 -33.5q-52 0 -100.5 11t-95.5 38.5t-81 67.5t-55.5 102.5t-21.5 139.5v243q0 77 21.5 139.5t55.5 102.5t81 67t95.5 38.5t100.5 11.5q78 0 148 -33.5t110 -96.5v106h94zM729 342v243q0 122 -72 195t-186 73t-186.5 -73 t-72.5 -195v-243q0 -122 72.5 -195.5t186.5 -73.5t186 73.5t72 195.5zM522 1248h150l-211 -231h-90z" />
<glyph horiz-adv-x="965" d="M823 920v-920h-94v112q-40 -62 -110 -95.5t-148 -33.5q-52 0 -100.5 11t-95.5 38.5t-81 67.5t-55.5 102.5t-21.5 139.5v243q0 77 21.5 139.5t55.5 102.5t81 67t95.5 38.5t100.5 11.5q78 0 148 -33.5t110 -96.5v106h94zM729 342v243q0 122 -72 195t-186 73t-186.5 -73 t-72.5 -195v-243q0 -122 72.5 -195.5t186.5 -73.5t186 73.5t72 195.5zM467 1105h43q59 0 100.5 42t41.5 101h88q0 -62 -31 -115.5t-84 -84.5t-115 -31h-43q-94 0 -162 68t-68 163h88q0 -59 41.5 -101t100.5 -42z" />
<glyph horiz-adv-x="965" d="M823 920v-920h-94v112q-40 -62 -110 -95.5t-148 -33.5q-52 0 -100.5 11t-95.5 38.5t-81 67.5t-55.5 102.5t-21.5 139.5v243q0 77 21.5 139.5t55.5 102.5t81 67t95.5 38.5t100.5 11.5q78 0 148 -33.5t110 -96.5v106h94zM729 342v243q0 122 -72 195t-186 73t-186.5 -73 t-72.5 -195v-243q0 -122 72.5 -195.5t186.5 -73.5t186 73.5t72 195.5zM626 1017l-155 148l-156 -148h-114l223 231h93l223 -231h-114z" />
<glyph horiz-adv-x="965" d="M823 920v-920h-94v112q-40 -62 -110 -95.5t-148 -33.5q-52 0 -100.5 11t-95.5 38.5t-81 67.5t-55.5 102.5t-21.5 139.5v243q0 77 21.5 139.5t55.5 102.5t81 67t95.5 38.5t100.5 11.5q78 0 148 -33.5t110 -96.5v106h94zM729 342v243q0 122 -72 195t-186 73t-186.5 -73 t-72.5 -195v-243q0 -122 72.5 -195.5t186.5 -73.5t186 73.5t72 195.5zM328 1210v-156h-95v156h95zM707 1210v-156h-94v156h94z" />
<glyph horiz-adv-x="965" d="M823 920v-920h-94v112q-40 -62 -110 -95.5t-148 -33.5q-52 0 -100.5 11t-95.5 38.5t-81 67.5t-55.5 102.5t-21.5 139.5v243q0 77 21.5 139.5t55.5 102.5t81 67t95.5 38.5t100.5 11.5q78 0 148 -33.5t110 -96.5v106h94zM729 342v243q0 122 -72 195t-186 73t-186.5 -73 t-72.5 -195v-243q0 -122 72.5 -195.5t186.5 -73.5t186 73.5t72 195.5zM269 1248h149l152 -231h-91z" />
<glyph horiz-adv-x="965" d="M823 920v-920h-94v112q-40 -62 -110 -95.5t-148 -33.5q-52 0 -100.5 11t-95.5 38.5t-81 67.5t-55.5 102.5t-21.5 139.5v243q0 77 21.5 139.5t55.5 102.5t81 67t95.5 38.5t100.5 11.5q78 0 148 -33.5t110 -96.5v106h94zM729 342v243q0 122 -72 195t-186 73t-186.5 -73 t-72.5 -195v-243q0 -122 72.5 -195.5t186.5 -73.5t186 73.5t72 195.5zM746 1092h-515v81h515v-81z" />
<glyph horiz-adv-x="965" d="M729 0v112q-40 -62 -110 -95.5t-148 -33.5q-52 0 -100.5 11t-95.5 38.5t-81 67.5t-55.5 102.5t-21.5 139.5v243q0 77 21.5 139.5t55.5 102.5t81 67t95.5 38.5t100.5 11.5q78 0 148 -33.5t110 -96.5v106h94v-920q-34 -25 -54.5 -41.5t-44.5 -40t-35.5 -46t-11.5 -45.5 q0 -39 20 -58t51 -19q30 0 75 22v-85q-38 -24 -83 -24q-49 0 -84.5 19t-54 53.5t-18.5 80.5q0 113 146 184zM729 342v243q0 122 -72 195t-186 73t-186.5 -73t-72.5 -195v-243q0 -122 72.5 -195.5t186.5 -73.5t186 73.5t72 195.5z" />
<glyph horiz-adv-x="965" d="M823 920v-920h-94v112q-40 -62 -110 -95.5t-148 -33.5q-52 0 -100.5 11t-95.5 38.5t-81 67.5t-55.5 102.5t-21.5 139.5v243q0 77 21.5 139.5t55.5 102.5t81 67t95.5 38.5t100.5 11.5q78 0 148 -33.5t110 -96.5v106h94zM729 342v243q0 122 -72 195t-186 73t-186.5 -73 t-72.5 -195v-243q0 -122 72.5 -195.5t186.5 -73.5t186 73.5t72 195.5zM338 1131q0 55 39 94.5t94 39.5q36 0 66.5 -18t48.5 -49t18 -67q0 -55 -39 -93t-94 -38q-27 0 -51.5 10t-42.5 27.5t-28.5 42t-10.5 51.5zM415 1131q0 -23 16.5 -39t39.5 -16q15 0 28 7.5t20.5 20 t7.5 27.5q0 23 -17 40t-39.5 17t-39 -17t-16.5 -40z" />
<glyph horiz-adv-x="965" d="M823 920v-920h-94v112q-40 -62 -110 -95.5t-148 -33.5q-52 0 -100.5 11t-95.5 38.5t-81 67.5t-55.5 102.5t-21.5 139.5v243q0 77 21.5 139.5t55.5 102.5t81 67t95.5 38.5t100.5 11.5q78 0 148 -33.5t110 -96.5v106h94zM729 342v243q0 122 -72 195t-186 73t-186.5 -73 t-72.5 -195v-243q0 -122 72.5 -195.5t186.5 -73.5t186 73.5t72 195.5zM659 1210h87q-15 -49 -37 -82.5t-48 -48.5t-48 -20.5t-48 -5.5q-41 0 -80 21l-60 34q-30 18 -58 18q-51 0 -83 -70h-88q15 50 37 83t48 48.5t48.5 21t48.5 5.5q40 0 80 -22l59 -34q30 -17 59 -17 q51 0 83 69z" />
<glyph horiz-adv-x="1535" d="M1110 920v-749q0 -44 28.5 -78t80.5 -34t79.5 34t27.5 78v526q0 47 -10 94.5t-31.5 96.5t-53 93t-77.5 82.5t-101.5 66.5t-128.5 44t-156 16q-114 0 -209.5 -31t-158.5 -81t-107 -115.5t-63 -132.5t-19 -133v-474q0 -67 19 -134t63 -132.5t107 -115.5t158.5 -81 t209.5 -31q212 0 358 106l45 -65q-163 -115 -403 -115q-95 0 -178.5 18.5t-146.5 51t-115.5 77t-88 95t-59.5 106.5t-35 111t-11 109v474q0 47 8.5 94.5t26 97t46 95.5t65.5 88.5t87.5 77.5t109.5 60.5t133.5 40t157.5 14.5q95 0 178.5 -18.5t147 -51t115.5 -77t87.5 -95 t59.5 -107t35 -111t11 -108.5v-512q0 -101 -49.5 -151.5t-137.5 -50.5q-79 0 -131 37.5t-69 91.5q-40 -62 -109.5 -95.5t-148.5 -33.5q-52 0 -100.5 11t-95 38.5t-81 67.5t-55 102.5t-20.5 139.5v243q0 77 20.5 139.5t55 102.5t81 67t95 38.5t100.5 11.5q79 0 148.5 -33.5 t109.5 -96.5v106h95zM1015 342v243q0 122 -72 195t-186 73t-186 -73t-72 -195v-243q0 -122 72 -195.5t186 -73.5t186 73.5t72 195.5z" />
<glyph horiz-adv-x="379" d="M237 1248v-1248h-94v1248h94z" />
<glyph horiz-adv-x="379" d="M237 1248v-1248h-94v1248h94zM240 1557h151l-211 -229h-91z" />
<glyph horiz-adv-x="379" d="M472 1248l-108 -282h-73l49 282h132zM237 1248v-1248h-94v1248h94z" />
<glyph horiz-adv-x="379" d="M237 1248v-1248h-94v1248h94zM123 -221v132h132v-132l-37 -132h-88l38 132h-45z" />
<glyph horiz-adv-x="473" d="M237 1248v-1248h-94v1248h94zM474 700v-155h-95v155h95z" />
<glyph horiz-adv-x="407" d="M251 1248v-521l114 64v-87l-114 -65v-639h-94v588l-114 -63v88l114 62v573h94z" />
<glyph horiz-adv-x="922" d="M59 828v92h130v144q0 47 8.5 79t29 56.5t58.5 36.5t94 12h131v-92h-131q-57 0 -76 -20t-19 -72v-144h226v-92h-226v-828h-95v828h-130zM780 1248v-1248h-94v1248h94z" />
<glyph horiz-adv-x="1465" d="M59 828v92h130v144q0 47 8.5 79t29 56.5t58.5 36.5t94 12h131v-92h-131q-57 0 -76 -20t-19 -72v-144h226v-92h-226v-828h-95v828h-130zM602 828v92h131v144q0 47 8 79t29 56.5t59 36.5t94 12h130v-92h-130q-58 0 -77.5 -20t-19.5 -72v-144h227v-92h-227v-828h-93v828 h-131zM1324 1248v-1248h-95v1248h95z" />
</font>
</defs>
</svg>
